<?xml version="1.0" standalone="no"?>
<!DOCTYPE svg PUBLIC "-//W3C//DTD SVG 1.1//EN" "http://www.w3.org/Graphics/SVG/1.1/DTD/svg11.dtd" >
<svg xmlns="http://www.w3.org/2000/svg" xmlns:xlink="http://www.w3.org/1999/xlink" version="1.1">
<metadata>
Created by FontForge 20170924 at Wed Mar 30 22:14:28 2016
 By root
(c)  2015 Bahij Virtual Academy. All rights reserved.
</metadata>
<defs>
<font id="BahijGretaArabic-Regular" horiz-adv-x="0" >
  <font-face 
    font-family="BahijGretaArabic-Regular"
    font-weight="400"
    font-stretch="normal"
    units-per-em="2048"
    panose-1="2 4 5 3 5 2 1 2 2 3"
    ascent="1638"
    descent="-410"
    x-height="928"
    cap-height="1194"
    bbox="-288 -1828 5716 2592"
    underline-thickness="50"
    underline-position="-100"
    unicode-range="U+0020-FEFC"
  />
<missing-glyph horiz-adv-x="728" 
d="M73 138l247 372l-247 371v-743zM612 73l-248 371l-247 -371h495zM655 881l-247 -371l247 -372v743zM117 947l247 -372l248 372h-495zM0 0v1020h728v-1020h-728z" />
    <glyph glyph-name="uniFB01" unicode="fi" horiz-adv-x="1212" 
d="M213 807h-166v84l166 39v92q0 168 126 299t320 131q146 0 240 -47l-33 -180h-45l-264 116q-152 -84 -152 -258v-155h379l140 18h81v-825l162 -47v-74h-489v72l135 45v690h-408v-686l148 -47v-74h-494v72l154 45v690z" />
    <glyph glyph-name="uniFB02" unicode="fl" horiz-adv-x="1204" 
d="M405 1075v-147h205v-121h-205v-686l148 -47v-74h-494v72l154 45v690h-166v84l166 39v110q0 166 128 286t333 120q83 0 168 -21l55 15h113v-1317l159 -49v-74h-504v72l152 47v1128l-256 86q-156 -86 -156 -258z" />
    <glyph glyph-name="uniFC31" unicode="&#xfed3;&#xfef0;" horiz-adv-x="2008" arabic-form="isolated" 
d="M1461 1356q62 78 125 131q90 -76 129 -131q-49 -72 -129 -127q-76 55 -125 127zM1210 -74q0 -39 -33.5 -131t-56.5 -110q-216 -156 -590 -156q-223 0 -336 115q-94 95 -94 241q0 205 160 451l59 -33q-82 -168 -82 -274q0 -281 325.5 -281t549.5 121q-71 131 -279 131h-35
l-6 10l62 191l12 6h648q176 0 289 22q6 37 6 93.5t-12 130.5l-59 -101q-84 -35 -189 -35q-153 0 -198 76q-64 83 -64 189q4 135 93 271q102 157 237.5 157t223 -195.5t87.5 -423.5q0 -70 -11.5 -121.5t-70.5 -134t-78 -88.5q-99 -47 -340 -47h-243q25 -35 25 -74zM1570 809
q-67 0 -124.5 -77.5t-78.5 -176.5q78 -59 194.5 -59t219.5 28q-75 285 -211 285z" />
    <glyph glyph-name="uniFC32" unicode="&#xfed3;&#xfef2;" horiz-adv-x="2008" arabic-form="isolated" 
d="M1461 1356q62 78 125 131q90 -76 129 -131q-49 -72 -129 -127q-76 55 -125 127zM1210 -74q0 -39 -33.5 -131t-56.5 -110q-216 -156 -590 -156q-223 0 -336 115q-94 95 -94 241q0 205 160 451l59 -33q-82 -168 -82 -274q0 -281 325.5 -281t549.5 121q-71 131 -279 131h-35
l-6 10l62 191l12 6h648q176 0 289 22q6 37 6 93.5t-12 130.5l-59 -101q-84 -35 -189 -35q-153 0 -198 76q-64 83 -64 189q4 135 93 271q102 157 237.5 157t223 -195.5t87.5 -423.5q0 -70 -11.5 -121.5t-70.5 -134t-78 -88.5q-99 -47 -340 -47h-243q25 -35 25 -74zM1570 809
q-67 0 -124.5 -77.5t-78.5 -176.5q78 -59 194.5 -59t219.5 28q-75 285 -211 285zM743 -877q-66 48 -113 111q-51 -63 -118 -111q-76 56 -127 129q63 76 127 132q92 -76 118 -115q55 65 113 115q94 -76 131 -132q-51 -73 -131 -129z" />
    <glyph glyph-name="uniFC43" unicode="&#xfedf;&#xfef0;" horiz-adv-x="1814" arabic-form="isolated" 
d="M1210 -74q0 -39 -33.5 -131t-56.5 -110q-216 -156 -590 -156q-223 0 -336 115q-94 95 -94 241q0 205 160 451l59 -33q-82 -168 -82 -274q0 -281 325.5 -281t549.5 121q-71 131 -279 131h-35l-6 10l62 191l12 6h375q185 0 248 14l-23 912l-53 137l186 182l41 -25v-96
l94 -172l-94 -100v-727q0 -52 -87.5 -168t-124 -139.5t-166.5 -24.5h-77q25 -35 25 -74z" />
    <glyph glyph-name="uniFC44" unicode="&#xfedf;&#xfef2;" horiz-adv-x="1814" arabic-form="isolated" 
d="M1210 -74q0 -39 -33.5 -131t-56.5 -110q-216 -156 -590 -156q-223 0 -336 115q-94 95 -94 241q0 205 160 451l59 -33q-82 -168 -82 -274q0 -281 325.5 -281t549.5 121q-71 131 -279 131h-35l-6 10l62 191l12 6h375q185 0 248 14l-23 912l-53 137l186 182l41 -25v-96
l94 -172l-94 -100v-727q0 -52 -87.5 -168t-124 -139.5t-166.5 -24.5h-77q25 -35 25 -74zM743 -877q-66 48 -113 111q-51 -63 -118 -111q-76 56 -127 129q63 76 127 132q92 -76 118 -115q55 65 113 115q94 -76 131 -132q-51 -73 -131 -129z" />
    <glyph glyph-name="uniFC64" unicode="&#xfe8c;&#xfeae;" horiz-adv-x="1480" arabic-form="final" 
d="M859 0q-94 0 -190 84q-12 -139 -105 -294q-110 -185 -244 -185q-35 0 -160 69t-157 97l25 57q94 -25 159 -25q271 0 394 363q-11 26 -136 307l131 158h29l47 -195q39 -149 76 -188.5t157 -39.5t189 17q20 97 73 332l127 84l29 -8q-21 -302 -47 -381q65 -45 225 -45l33 -6
v-195l-33 -6h-14q-218 0 -320 135q-80 -101 -104 -112q-45 -22 -159 -23h-25zM1108 795q-26 0 -143 96l6 33q96 0 119 4v2q-39 22 -39 94.5t51.5 138.5t124 66t104.5 -90q16 -45 19 -90l-33 -9q-35 47 -94 47t-113 -49q28 -84 114.5 -84t172.5 33l10 -14l-53 -119
q-119 -59 -246 -59z" />
    <glyph glyph-name="uniFC67" unicode="&#xfe8c;&#xfee6;" horiz-adv-x="1890" arabic-form="final" 
d="M524 -395q-424 0 -424 356q0 203 160 442l53 -26q-76 -180 -76 -295q0 -266 330 -266q217 0 389 90l-74 569l148 115h37l8 -154q9 -139 36 -175q39 -53 171.5 -53t201.5 17q20 97 73 332l127 84l29 -8q-21 -302 -47 -381q65 -45 225 -45l33 -6v-195l-33 -6h-14
q-218 0 -320 135q-80 -101 -104 -112q-45 -22 -159 -23h-14q-133 5 -195 92l2 -78q-54 -207 -129 -276q-133 -133 -434 -133zM1518 795q-26 0 -143 96l6 33q96 0 119 4v2q-39 22 -39 94.5t51.5 138.5t124 66t104.5 -90q16 -45 19 -90l-33 -9q-35 47 -94 47t-113 -49
q28 -84 114.5 -84t172.5 33l10 -14l-53 -119q-119 -59 -246 -59zM481 764q63 78 127 131q90 -76 129 -131q-51 -72 -129 -127q-76 55 -127 127z" />
    <glyph glyph-name="uniFC6A" unicode="&#xfe92;&#xfeae;" horiz-adv-x="1480" arabic-form="final" 
d="M1055 -264q64 76 127 129q90 -74 129 -129q-51 -74 -129 -129q-76 55 -127 129zM859 0q-94 0 -190 84q-12 -139 -105 -294q-110 -185 -244 -185q-35 0 -160 69t-157 97l25 57q94 -25 159 -25q271 0 394 363q-11 26 -136 307l131 158h29l47 -195q39 -148 76 -188t157 -40
t189 17q20 97 73 332l127 84l29 -8q-21 -302 -47 -381q65 -45 225 -45l33 -6v-195l-33 -6h-14q-218 0 -320 135q-80 -101 -104 -112q-45 -22 -159 -23h-25z" />
    <glyph glyph-name="uniFC70" unicode="&#xfe98;&#xfeae;" horiz-adv-x="1490" arabic-form="final" 
d="M1307 838q-53 39 -114 112q-51 -65 -117 -112q-78 55 -127 131q64 75 127 131q92 -76 117 -115q67 74 114 115q93 -76 129 -131q-49 -76 -129 -131zM859 0q-94 0 -190 84q-12 -139 -105 -294q-110 -185 -244 -185q-35 0 -160 69t-157 97l25 57q94 -25 159 -25
q271 0 394 363q-11 26 -136 307l131 158h29l47 -195q38 -149 76 -189t162 -40t194 18q20 97 73 332l127 84l29 -8q-21 -302 -47 -381q65 -45 225 -45l33 -6v-195l-33 -6h-14q-218 0 -320 135q-80 -101 -104 -112q-47 -23 -169 -23h-25z" />
    <glyph glyph-name="uniFC86" unicode="&#xfee0;&#xfef0;" horiz-adv-x="1842" arabic-form="final" 
d="M1210 -74q0 -39 -33.5 -131t-56.5 -110q-216 -156 -590 -156q-223 0 -336 115q-94 95 -94 241q0 205 160 451l59 -33q-82 -168 -82 -274q0 -281 325.5 -281t549.5 121q-71 131 -279 131h-35l-6 10l62 191l12 6h365q175 0 250 14l-29 1096l143 135h37v-1014
q0 -130 37.5 -180t173.5 -51l33 -6v-195l-33 -6q-222 0 -297 197q-94 -154 -128.5 -174t-154.5 -23h-78q25 -35 25 -74z" />
    <glyph glyph-name="uniFC87" unicode="&#xfee0;&#xfef2;" horiz-adv-x="1842" arabic-form="final" 
d="M1210 -74q0 -39 -33.5 -131t-56.5 -110q-216 -156 -590 -156q-223 0 -336 115q-94 95 -94 241q0 205 160 451l59 -33q-82 -168 -82 -274q0 -281 325.5 -281t549.5 121q-71 131 -279 131h-35l-6 10l62 191l12 6h365q175 0 250 14l-29 1096l143 135h37v-1014
q0 -130 37.5 -180t173.5 -51l33 -6v-195l-33 -6q-222 0 -297 197q-94 -154 -128.5 -174t-154.5 -23h-78q25 -35 25 -74zM743 -877q-66 48 -113 111q-51 -63 -118 -111q-76 56 -127 129q63 76 127 132q92 -76 118 -115q55 65 113 115q94 -76 131 -132q-51 -73 -131 -129z" />
    <glyph glyph-name="uniFCCC" unicode="&#xfedf;&#xfee4;" horiz-adv-x="1584" arabic-form="initial" 
d="M990 0q-139 0 -211 123l-102 -137q-301 5 -394 69q-9 6 -53 90q-65 -145 -229 -145l-33 6v195l33 6q119 0 184 49q15 169 129 334.5t250 165.5q81 0 142 -83q42 -57 109.5 -221t81.5 -186q37 -59 113 -59h1q185 0 248 14l-23 912l-53 137l186 182l41 -25v-96l94 -172
l-94 -100v-727q0 -52 -87.5 -168t-124 -139t-164.5 -25h-44zM505.5 555q-61.5 0 -133.5 -94.5t-103 -204.5q88 -63 420 -63h55q-20 40 -67 148.5t-64 136.5q-46 77 -107.5 77z" />
    <glyph glyph-name="uniFCFB" unicode="&#xfeb3;&#xfef0;" horiz-adv-x="2662" arabic-form="isolated" 
d="M1261 0h-76q25 -35 25 -74t-34 -131t-56 -110q-216 -156 -590 -156q-223 0 -336 115q-94 95 -94 241q0 205 160 451l59 -33q-82 -168 -82 -274q-1 -281 325 -281t550 121q-71 131 -279 131h-35l-6 10l62 191l12 6h395q102 0 174 14l67 203l113 76l27 -15
q-19 -146 -37 -249q73 -29 157 -29t154 12l84 309l115 76l26 -14q-6 -115 -36 -320q144 -84 331 -108l-57 475l145 119h37q21 -377 21 -539q0 -42 -77 -142t-114 -100q-184 0 -391 162q-76 -137 -252 -137t-256 117q-88 -117 -231 -117z" />
    <glyph glyph-name="uniFCFC" unicode="&#xfeb3;&#xfef2;" horiz-adv-x="2662" arabic-form="isolated" 
d="M1261 0h-76q25 -35 25 -74t-34 -131t-56 -110q-216 -156 -590 -156q-223 0 -336 115q-94 95 -94 241q0 205 160 451l59 -33q-82 -168 -82 -274q-1 -281 325 -281t550 121q-71 131 -279 131h-35l-6 10l62 191l12 6h395q102 0 174 14l67 203l113 76l27 -15
q-19 -146 -37 -249q73 -29 157 -29t154 12l84 309l115 76l26 -14q-6 -115 -36 -320q144 -84 331 -108l-57 475l145 119h37q21 -377 21 -539q0 -42 -77 -142t-114 -100q-184 0 -391 162q-76 -137 -252 -137t-256 117q-88 -117 -231 -117zM743 -877q-66 48 -113 111
q-51 -63 -118 -111q-76 56 -127 129q63 76 127 132q92 -76 118 -115q55 65 113 115q94 -76 131 -132q-51 -73 -131 -129z" />
    <glyph glyph-name="uniFCFD" unicode="&#xfeb7;&#xfef0;" horiz-adv-x="2662" arabic-form="isolated" 
d="M2164 809q-45 34 -113 109q-49 -62 -114 -109q-72 55 -123 127q61 74 123 129q110 -111 114 -117q88 88 113 117q90 -76 127 -129q-49 -72 -127 -127zM1261 0h-76q25 -35 25 -74t-34 -131t-56 -110q-216 -156 -590 -156q-223 0 -336 115q-94 95 -94 241q0 205 160 451
l59 -33q-82 -168 -82 -274q-1 -281 325 -281t550 121q-71 131 -279 131h-35l-6 10l62 191l12 6h395q102 0 174 14l67 203l113 76l27 -15q-19 -146 -37 -249q73 -29 157 -29t154 12l84 309l115 76l26 -14q-6 -115 -36 -320q144 -84 331 -108l-57 475l145 119h37
q21 -377 21 -539q0 -42 -77 -142t-114 -100q-184 0 -391 162q-76 -137 -252 -137t-256 117q-88 -117 -231 -117zM1933 1169q61 70 118 121q86 -67 121 -121q-45 -69 -121 -122q-65 53 -118 122z" />
    <glyph glyph-name="uniFCFE" unicode="&#xfeb7;&#xfef2;" horiz-adv-x="2662" arabic-form="isolated" 
d="M2164 809q-45 34 -113 109q-49 -62 -114 -109q-72 55 -123 127q61 74 123 129q110 -111 114 -117q88 88 113 117q90 -76 127 -129q-49 -72 -127 -127zM1261 0h-76q25 -35 25 -74t-34 -131t-56 -110q-216 -156 -590 -156q-223 0 -336 115q-94 95 -94 241q0 205 160 451
l59 -33q-82 -168 -82 -274q-1 -281 325 -281t550 121q-71 131 -279 131h-35l-6 10l62 191l12 6h395q102 0 174 14l67 203l113 76l27 -15q-19 -146 -37 -249q73 -29 157 -29t154 12l84 309l115 76l26 -14q-6 -115 -36 -320q144 -84 331 -108l-57 475l145 119h37
q21 -377 21 -539q0 -42 -77 -142t-114 -100q-184 0 -391 162q-76 -137 -252 -137t-256 117q-88 -117 -231 -117zM1933 1169q61 70 118 121q86 -67 121 -121q-45 -69 -121 -122q-65 53 -118 122zM743 -877q-66 48 -113 111q-51 -63 -118 -111q-76 56 -127 129q63 76 127 132
q92 -76 118 -115q55 65 113 115q94 -76 131 -132q-51 -73 -131 -129z" />
    <glyph glyph-name="uniFD05" unicode="&#xfebb;&#xfef0;" horiz-adv-x="2809" arabic-form="isolated" 
d="M1210 -74q0 -39 -33.5 -131t-56.5 -110q-216 -156 -590 -156q-223 0 -336 115q-94 95 -94 241q0 205 160 451l59 -33q-82 -168 -82 -274q0 -281 325.5 -281t549.5 121q-71 131 -279 131h-35l-6 10l62 191l12 6h385q102 0 174 14q29 94 67 207l113 76l27 -12
q-15 -121 -29 -211q43 -33 109 -48q303 594 643 594q144 0 259 -155.5t115 -287.5t-125.5 -258t-594.5 -126h-39q-337 0 -471 139q-93 -134 -237 -139h-77q25 -35 25 -74zM2297 612q-226 0 -493 -395q92 -10 194 -10l86 2q369 6 539 102q-49 128 -138 214.5t-188 86.5z" />
    <glyph glyph-name="uniFD06" unicode="&#xfebb;&#xfef2;" horiz-adv-x="2809" arabic-form="isolated" 
d="M1210 -74q0 -39 -33.5 -131t-56.5 -110q-216 -156 -590 -156q-223 0 -336 115q-94 95 -94 241q0 205 160 451l59 -33q-82 -168 -82 -274q0 -281 325.5 -281t549.5 121q-71 131 -279 131h-35l-6 10l62 191l12 6h385q102 0 174 14q29 94 67 207l113 76l27 -12
q-15 -121 -29 -211q43 -33 109 -48q303 594 643 594q144 0 259 -155.5t115 -287.5t-125.5 -258t-594.5 -126h-39q-337 0 -471 139q-93 -134 -237 -139h-77q25 -35 25 -74zM2297 612q-226 0 -493 -395q92 -10 194 -10l86 2q369 6 539 102q-49 128 -138 214.5t-188 86.5z
M743 -877q-66 48 -113 111q-51 -63 -118 -111q-76 56 -127 129q63 76 127 132q92 -76 118 -115q55 65 113 115q94 -76 131 -132q-51 -73 -131 -129z" />
    <glyph glyph-name="uniFD07" unicode="&#xfebf;&#xfef0;" horiz-adv-x="2809" arabic-form="isolated" 
d="M1210 -74q0 -39 -33.5 -131t-56.5 -110q-216 -156 -590 -156q-223 0 -336 115q-94 95 -94 241q0 205 160 451l59 -33q-82 -168 -82 -274q0 -281 325.5 -281t549.5 121q-71 131 -279 131h-35l-6 10l62 191l12 6h385q102 0 174 14q29 94 67 207l113 76l27 -12
q-15 -121 -29 -211q43 -33 109 -48q303 594 643 594q144 0 259 -155.5t115 -287.5t-125.5 -258t-594.5 -126h-39q-337 0 -471 139q-93 -134 -237 -139h-77q25 -35 25 -74zM2144 1137q63 75 127 129q90 -76 129 -129q-52 -74 -129 -129q-76 55 -127 129zM2297 612
q-226 0 -493 -395q92 -10 194 -10l86 2q369 6 539 102q-49 128 -138 214.5t-188 86.5z" />
    <glyph glyph-name="uniFD08" unicode="&#xfebf;&#xfef2;" horiz-adv-x="2809" arabic-form="isolated" 
d="M1210 -74q0 -39 -33.5 -131t-56.5 -110q-216 -156 -590 -156q-223 0 -336 115q-94 95 -94 241q0 205 160 451l59 -33q-82 -168 -82 -274q0 -281 325.5 -281t549.5 121q-71 131 -279 131h-35l-6 10l62 191l12 6h385q102 0 174 14q29 94 67 207l113 76l27 -12
q-15 -121 -29 -211q43 -33 109 -48q303 594 643 594q144 0 259 -155.5t115 -287.5t-125.5 -258t-594.5 -126h-39q-337 0 -471 139q-93 -134 -237 -139h-77q25 -35 25 -74zM2144 1137q63 75 127 129q90 -76 129 -129q-52 -74 -129 -129q-76 55 -127 129zM2297 612
q-226 0 -493 -395q92 -10 194 -10l86 2q369 6 539 102q-49 128 -138 214.5t-188 86.5zM743 -877q-66 48 -113 111q-51 -63 -118 -111q-76 56 -127 129q63 76 127 132q92 -76 118 -115q55 65 113 115q94 -76 131 -132q-51 -73 -131 -129z" />
    <glyph glyph-name="uniFD0D" unicode="&#xfeb7;&#xfeae;" horiz-adv-x="2272" arabic-form="isolated" 
d="M1774 809q-45 34 -113 109q-49 -62 -114 -109q-72 55 -123 127q61 74 123 129q110 -111 114 -117q88 88 113 117q90 -76 127 -129q-49 -72 -127 -127zM859 0q-94 0 -190 84q-12 -139 -105 -294q-110 -185 -244 -185q-35 0 -160 69t-157 97l25 57q94 -25 159 -25
q271 0 394 363q-11 26 -136 307l131 158h29l47 -195q39 -148 76 -188q36 -40 142 -40t175 13l67 203l113 76l27 -15q-19 -146 -37 -249q73 -29 157 -29t154 12l84 309l115 76l26 -14q-6 -115 -36 -320q144 -84 331 -108l-57 475l145 119h37q21 -377 21 -539q0 -42 -77 -142
t-114 -100q-184 0 -391 162q-76 -137 -252 -137t-256 117q-83 -111 -216 -117h-27zM1543 1169q61 70 118 121q86 -67 121 -121q-45 -69 -121 -122q-65 53 -118 122z" />
    <glyph glyph-name="uniFD0E" unicode="&#xfeb3;&#xfeae;" horiz-adv-x="2272" arabic-form="isolated" 
d="M859 0q-94 0 -190 84q-12 -139 -105 -294q-110 -185 -244 -185q-35 0 -160 69t-157 97l25 57q94 -25 159 -25q271 0 394 363q-11 26 -136 307l131 158h29l47 -195q39 -148 76 -188q36 -40 142 -40t175 13l67 203l113 76l27 -15q-19 -146 -37 -249q73 -29 157 -29t154 12
l84 309l115 76l26 -14q-6 -115 -36 -320q144 -84 331 -108l-57 475l145 119h37q21 -377 21 -539q0 -42 -77 -142t-114 -100q-184 0 -391 162q-76 -137 -252 -137t-256 117q-83 -111 -216 -117h-27z" />
    <glyph glyph-name="uniFD0F" unicode="&#xfebb;&#xfeae;" horiz-adv-x="2429" arabic-form="isolated" 
d="M859 0q-94 0 -190 84q-12 -139 -105 -294q-110 -185 -244 -185q-35 0 -160 69t-157 97l25 57q94 -25 159 -25q271 0 394 363q-11 26 -136 307l131 158h29l47 -195q39 -149 76 -188.5t142.5 -39.5t174.5 13q29 94 67 207l113 76l27 -12q-15 -121 -29 -211q43 -33 109 -48
q303 594 643 594q144 0 259 -155.5t115 -287.5t-125.5 -258t-594.5 -126h-39q-337 0 -471 139q-92 -132 -233 -139h-27zM1917 612q-226 0 -493 -395q92 -10 194 -10l86 2q369 6 539 102q-49 128 -138 214.5t-188 86.5z" />
    <glyph glyph-name="uniFD10" unicode="&#xfebf;&#xfeae;" horiz-adv-x="2429" arabic-form="isolated" 
d="M859 0q-94 0 -190 84q-12 -139 -105 -294q-110 -185 -244 -185q-35 0 -160 69t-157 97l25 57q94 -25 159 -25q271 0 394 363q-11 26 -136 307l131 158h29l47 -195q39 -149 76 -188.5t142.5 -39.5t174.5 13q29 94 67 207l113 76l27 -12q-15 -121 -29 -211q43 -33 109 -48
q303 594 643 594q144 0 259 -155.5t115 -287.5t-125.5 -258t-594.5 -126h-39q-337 0 -471 139q-92 -132 -233 -139h-27zM1764 1137q63 75 127 129q90 -76 129 -129q-52 -74 -129 -129q-76 55 -127 129zM1917 612q-226 0 -493 -395q92 -10 194 -10l86 2q369 6 539 102
q-49 128 -138 214.5t-188 86.5z" />
    <glyph glyph-name="uniFD17" unicode="&#xfeb4;&#xfef0;" horiz-adv-x="2751" arabic-form="final" 
d="M1210 -74q0 -39 -33.5 -131t-56.5 -110q-216 -156 -590 -156q-223 0 -336 115q-94 95 -94 241q0 205 160 451l59 -33q-82 -168 -82 -274q0 -281 325.5 -281t549.5 121q-71 131 -279 131h-35l-6 10l62 191l12 6h385q102 0 174 14l67 203l113 76l27 -15q-19 -146 -37 -249
q72 -29 156.5 -29t154.5 12l84 309l115 76l26 -14q-15 -196 -43 -350q70 -33 168.5 -33t171.5 18q-16 113 -36 336l149 113h37v-367q0 -63 16.5 -81.5t93.5 -18.5h64l33 -6v-195l-33 -6h-59q-150 0 -215 135q-73 -135 -246.5 -135t-253.5 117q-70 -117 -243 -117t-253 117
q-85 -112 -220 -117h-77q25 -35 25 -74z" />
    <glyph glyph-name="uniFD18" unicode="&#xfeb4;&#xfef2;" horiz-adv-x="2751" arabic-form="final" 
d="M1210 -74q0 -39 -33.5 -131t-56.5 -110q-216 -156 -590 -156q-223 0 -336 115q-94 95 -94 241q0 205 160 451l59 -33q-82 -168 -82 -274q0 -281 325.5 -281t549.5 121q-71 131 -279 131h-35l-6 10l62 191l12 6h385q102 0 174 14l67 203l113 76l27 -15q-19 -146 -37 -249
q72 -29 156.5 -29t154.5 12l84 309l115 76l26 -14q-15 -196 -43 -350q70 -33 168.5 -33t171.5 18q-16 113 -36 336l149 113h37v-367q0 -63 16.5 -81.5t93.5 -18.5h64l33 -6v-195l-33 -6h-59q-150 0 -215 135q-73 -135 -246.5 -135t-253.5 117q-70 -117 -243 -117t-253 117
q-85 -112 -220 -117h-77q25 -35 25 -74zM743 -877q-66 48 -113 111q-51 -63 -118 -111q-76 56 -127 129q63 76 127 132q92 -76 118 -115q55 65 113 115q94 -76 131 -132q-51 -73 -131 -129z" />
    <glyph glyph-name="uniFD19" unicode="&#xfeb8;&#xfef0;" horiz-adv-x="2751" arabic-form="final" 
d="M2150 809q-45 34 -113 109q-49 -62 -114 -109q-72 55 -123 127q61 74 123 129l116 -117q112 120 113 120l-2 -3q90 -76 127 -129q-49 -72 -127 -127zM1210 -74q0 -39 -33.5 -131t-56.5 -110q-216 -156 -590 -156q-223 0 -336 115q-94 95 -94 241q0 205 160 451l59 -33
q-82 -168 -82 -274q0 -281 325.5 -281t549.5 121q-71 131 -279 131h-35l-6 10l62 191l12 6h385q102 0 174 14l67 203l113 76l27 -15q-19 -146 -37 -249q72 -29 156.5 -29t154.5 12l84 309l115 76l26 -14q-15 -196 -43 -350q70 -33 168.5 -33t171.5 18q-16 113 -36 336
l149 113h37v-367q0 -63 16.5 -81.5t93.5 -18.5h64l33 -6v-195l-33 -6h-59q-150 0 -215 135q-73 -135 -246.5 -135t-253.5 117q-70 -117 -243 -117t-253 117q-85 -112 -220 -117h-77q25 -35 25 -74zM1918 1169q64 70 119 121q86 -67 121 -121q-45 -69 -121 -122
q-65 53 -119 122z" />
    <glyph glyph-name="uniFD1A" unicode="&#xfeb8;&#xfef2;" horiz-adv-x="2751" arabic-form="final" 
d="M2150 809q-45 34 -113 109q-49 -62 -114 -109q-72 55 -123 127q61 74 123 129l116 -117q112 120 113 120l-2 -3q90 -76 127 -129q-49 -72 -127 -127zM1210 -74q0 -39 -33.5 -131t-56.5 -110q-216 -156 -590 -156q-223 0 -336 115q-94 95 -94 241q0 205 160 451l59 -33
q-82 -168 -82 -274q0 -281 325.5 -281t549.5 121q-71 131 -279 131h-35l-6 10l62 191l12 6h385q102 0 174 14l67 203l113 76l27 -15q-19 -146 -37 -249q72 -29 156.5 -29t154.5 12l84 309l115 76l26 -14q-15 -196 -43 -350q70 -33 168.5 -33t171.5 18q-16 113 -36 336
l149 113h37v-367q0 -63 16.5 -81.5t93.5 -18.5h64l33 -6v-195l-33 -6h-59q-150 0 -215 135q-73 -135 -246.5 -135t-253.5 117q-70 -117 -243 -117t-253 117q-85 -112 -220 -117h-77q25 -35 25 -74zM1918 1169q64 70 119 121q86 -67 121 -121q-45 -69 -121 -122
q-65 53 -119 122zM743 -877q-66 48 -113 111q-51 -63 -118 -111q-76 56 -127 129q63 76 127 132q92 -76 118 -115q55 65 113 115q94 -76 131 -132q-51 -73 -131 -129z" />
    <glyph glyph-name="uniFD21" unicode="&#xfebc;&#xfef0;" horiz-adv-x="2855" arabic-form="final" 
d="M1210 -74q0 -39 -33.5 -131t-56.5 -110q-216 -156 -590 -156q-223 0 -336 115q-94 95 -94 241q0 205 160 451l59 -33q-82 -168 -82 -274q0 -281 325.5 -281t549.5 121q-71 131 -279 131h-35l-6 10l62 191l12 6h385q102 0 174 14q29 94 67 207l113 76l27 -12
q-15 -121 -29 -211q43 -33 109 -48q303 594 643 594q144 0 259 -155.5t115 -282.5q0 -67 -67 -182h194l33 -6v-195l-33 -6h-139q-78 0 -158 96q-187 -96 -550 -96h-39q-337 0 -471 139q-93 -134 -237 -139h-77q25 -35 25 -74zM2297 612q-226 0 -493 -395q92 -10 194 -10
l86 2q369 6 539 102q-49 128 -138 214.5t-188 86.5z" />
    <glyph glyph-name="uniFD22" unicode="&#xfebc;&#xfef2;" horiz-adv-x="2855" arabic-form="final" 
d="M1210 -74q0 -39 -33.5 -131t-56.5 -110q-216 -156 -590 -156q-223 0 -336 115q-94 95 -94 241q0 205 160 451l59 -33q-82 -168 -82 -274q0 -281 325.5 -281t549.5 121q-71 131 -279 131h-35l-6 10l62 191l12 6h385q102 0 174 14q29 94 67 207l113 76l27 -12
q-15 -121 -29 -211q43 -33 109 -48q303 594 643 594q144 0 259 -155.5t115 -282.5q0 -67 -67 -182h194l33 -6v-195l-33 -6h-139q-78 0 -158 96q-187 -96 -550 -96h-39q-337 0 -471 139q-93 -134 -237 -139h-77q25 -35 25 -74zM2297 612q-226 0 -493 -395q92 -10 194 -10
l86 2q369 6 539 102q-49 128 -138 214.5t-188 86.5zM743 -877q-66 48 -113 111q-51 -63 -118 -111q-76 56 -127 129q63 76 127 132q92 -76 118 -115q55 65 113 115q94 -76 131 -132q-51 -73 -131 -129z" />
    <glyph glyph-name="uniFD23" unicode="&#xfec0;&#xfef0;" horiz-adv-x="2855" arabic-form="final" 
d="M1210 -74q0 -39 -33.5 -131t-56.5 -110q-216 -156 -590 -156q-223 0 -336 115q-94 95 -94 241q0 205 160 451l59 -33q-82 -168 -82 -274q0 -281 325.5 -281t549.5 121q-71 131 -279 131h-35l-6 10l62 191l12 6h385q102 0 174 14q29 94 67 207l113 76l27 -12
q-15 -121 -29 -211q43 -33 109 -48q303 594 643 594q144 0 259 -155.5t115 -282.5q0 -67 -67 -182h194l33 -6v-195l-33 -6h-139q-78 0 -158 96q-187 -96 -550 -96h-39q-337 0 -471 139q-93 -134 -237 -139h-77q25 -35 25 -74zM2150 1137q63 75 127 129q90 -76 129 -129
q-51 -74 -129 -129q-76 55 -127 129zM2297 612q-226 0 -493 -395q92 -10 194 -10l86 2q369 6 539 102q-49 128 -138 214.5t-188 86.5z" />
    <glyph glyph-name="uniFD24" unicode="&#xfec0;&#xfef2;" horiz-adv-x="2855" arabic-form="final" 
d="M1210 -74q0 -39 -33.5 -131t-56.5 -110q-216 -156 -590 -156q-223 0 -336 115q-94 95 -94 241q0 205 160 451l59 -33q-82 -168 -82 -274q0 -281 325.5 -281t549.5 121q-71 131 -279 131h-35l-6 10l62 191l12 6h385q102 0 174 14q29 94 67 207l113 76l27 -12
q-15 -121 -29 -211q43 -33 109 -48q303 594 643 594q144 0 259 -155.5t115 -282.5q0 -67 -67 -182h194l33 -6v-195l-33 -6h-139q-78 0 -158 96q-187 -96 -550 -96h-39q-337 0 -471 139q-93 -134 -237 -139h-77q25 -35 25 -74zM2150 1137q63 75 127 129q90 -76 129 -129
q-51 -74 -129 -129q-76 55 -127 129zM2297 612q-226 0 -493 -395q92 -10 194 -10l86 2q369 6 539 102q-49 128 -138 214.5t-188 86.5zM743 -877q-66 48 -113 111q-51 -63 -118 -111q-76 56 -127 129q63 76 127 132q92 -76 118 -115q55 65 113 115q94 -76 131 -132
q-51 -73 -131 -129z" />
    <glyph glyph-name="uniFD29" unicode="&#xfeb8;&#xfeae;" horiz-adv-x="2371" arabic-form="final" 
d="M1770 809q-45 34 -113 109q-49 -62 -114 -109q-72 55 -123 127q61 74 123 129l116 -117q112 120 113 120l-2 -3q90 -76 127 -129q-49 -72 -127 -127zM859 0q-94 0 -190 84q-12 -139 -105 -294q-110 -185 -244 -185q-35 0 -160 69t-157 97l25 57q94 -25 159 -25
q271 0 394 363q-11 26 -136 307l131 158h29l47 -195q39 -148 76 -188q36 -40 142 -40t175 13l67 203l113 76l27 -15q-19 -146 -37 -249q73 -29 157 -29t154 12l84 309l115 76l26 -14q-15 -196 -43 -350q70 -33 168 -33t172 18q-16 113 -36 336l149 113h37v-367q0 -63 16 -81
t94 -19h64l33 -6v-195l-33 -6h-59q-150 0 -215 135q-72 -135 -246 -135t-254 117q-70 -117 -243 -117t-253 117q-83 -111 -216 -117h-27zM1538 1169q64 70 119 121q86 -67 121 -121q-45 -69 -121 -122q-65 53 -119 122z" />
    <glyph glyph-name="uniFD2A" unicode="&#xfeb4;&#xfeae;" horiz-adv-x="2371" arabic-form="final" 
d="M859 0q-94 0 -190 84q-12 -139 -105 -294q-110 -185 -244 -185q-35 0 -160 69t-157 97l25 57q94 -25 159 -25q271 0 394 363q-11 26 -136 307l131 158h29l47 -195q39 -148 76 -188q36 -40 142 -40t175 13l67 203l113 76l27 -15q-19 -146 -37 -249q73 -29 157 -29t154 12
l84 309l115 76l26 -14q-15 -196 -43 -350q70 -33 168 -33t172 18q-16 113 -36 336l149 113h37v-367q0 -63 16 -81t94 -19h64l33 -6v-195l-33 -6h-59q-150 0 -215 135q-72 -135 -246 -135t-254 117q-70 -117 -243 -117t-253 117q-83 -111 -216 -117h-27z" />
    <glyph glyph-name="uniFD2B" unicode="&#xfebc;&#xfeae;" horiz-adv-x="2475" arabic-form="final" 
d="M859 0q-94 0 -190 84q-12 -139 -105 -294q-110 -185 -244 -185q-35 0 -160 69t-157 97l25 57q94 -25 159 -25q271 0 394 363q-11 26 -136 307l131 158h29l47 -195q39 -149 76 -188.5t142.5 -39.5t174.5 13q29 94 67 207l113 76l27 -12q-15 -121 -29 -211q43 -33 109 -48
q303 594 643 594q144 0 259 -155.5t115 -282.5q0 -67 -67 -182h194l33 -6v-195l-33 -6h-139q-78 0 -158 96q-187 -96 -550 -96h-39q-337 0 -471 139q-92 -132 -233 -139h-27zM1917 612q-226 0 -493 -395q92 -10 194 -10l86 2q369 6 539 102q-49 128 -138 214.5t-188 86.5z
" />
    <glyph glyph-name="uniFD2C" unicode="&#xfec0;&#xfeae;" horiz-adv-x="2475" arabic-form="final" 
d="M859 0q-94 0 -190 84q-12 -139 -105 -294q-110 -185 -244 -185q-35 0 -160 69t-157 97l25 57q94 -25 159 -25q271 0 394 363q-11 26 -136 307l131 158h29l47 -195q39 -149 76 -188.5t142.5 -39.5t174.5 13q29 94 67 207l113 76l27 -12q-15 -121 -29 -211q43 -33 109 -48
q303 594 643 594q144 0 259 -155.5t115 -282.5q0 -67 -67 -182h194l33 -6v-195l-33 -6h-139q-78 0 -158 96q-187 -96 -550 -96h-39q-337 0 -471 139q-92 -132 -233 -139h-27zM1770 1137q63 75 127 129q90 -76 129 -129q-51 -74 -129 -129q-76 55 -127 129zM1917 612
q-226 0 -493 -395q92 -10 194 -10l86 2q369 6 539 102q-49 128 -138 214.5t-188 86.5z" />
    <glyph glyph-name="uniFEF5" unicode="&#xfedf;&#xfe82;" horiz-adv-x="1176" arabic-form="isolated" 
d="M279.5 1333q-115.5 0 -193.5 20l-55 -96l-35 13q15 73 42 130q5 8 48.5 49t55.5 41l67 -3q56 -3 132 -3t209 19l7 -11l-59 -129q-103 -30 -218.5 -30zM645 201q217 0 262 22q-44 104 -147 221q-129 -117 -344 -243h229zM833 938v180l-59 152l188 182l41 -29v-100l93 -166
l-95 -100v-43q-2 -275 -141 -461q148 -189 148 -295q0 -36 -55 -127.5t-85 -105.5q-49 -25 -288.5 -25t-307.5 16l-8 15l39 205q185 106 375 288q-171 160 -385 332l-84 -25l-119 103l63 272l33 6q443 -398 588 -561q59 112 59 287z" />
    <glyph glyph-name="uniFEF6" unicode="&#xfee0;&#xfe82;" horiz-adv-x="1215" arabic-form="final" 
d="M279.5 1333q-115.5 0 -193.5 20l-55 -96l-35 13q15 73 42 130q5 8 48.5 49t55.5 41l67 -3q56 -3 132 -3t209 19l7 -11l-59 -129q-103 -30 -218.5 -30zM421 0q-98 0 -331 125l12 59q313 0 525 68q-54 353 -306 604l-84 -20l-118 104l82 268h30q430 -452 484 -739l-41 -201
q117 45 184 105l-23 944l142 135h37v-1014q0 -131 27 -172q40 -58 175 -59l33 -6v-195l-33 -6q-290 0 -323 315q-70 -159 -74 -161q-39 -39 -169.5 -96.5t-228.5 -57.5z" />
    <glyph glyph-name="uniFEF7" unicode="&#xfedf;&#xfe84;" horiz-adv-x="1176" arabic-form="isolated" 
d="M198 1288q-26 0 -143 96l6 33q96 0 119 4v2q-39 23 -39 95.5t51.5 139t124 66.5t104.5 -91q16 -45 19 -91l-35 -8q-27 49 -86.5 49t-118.5 -49q28 -86 114.5 -86t172.5 33l10 -15l-55 -118q-119 -60 -244 -60zM645 201q217 0 262 22q-44 104 -147 221
q-129 -117 -344 -243h229zM833 938v180l-59 152l188 182l41 -29v-100l93 -166l-95 -100v-43q-2 -275 -141 -461q148 -189 148 -295q0 -36 -55 -127.5t-85 -105.5q-49 -25 -288.5 -25t-307.5 16l-8 15l39 205q185 106 375 288q-171 160 -385 332l-84 -25l-119 103l63 272
l33 6q443 -398 588 -561q59 112 59 287z" />
    <glyph glyph-name="uniFEF8" unicode="&#xfee0;&#xfe84;" horiz-adv-x="1215" arabic-form="final" 
d="M157 1303q-26 0 -143 96l8 33q96 0 119 4v2q-41 23 -41 96t52.5 139t124.5 66t104 -91q15 -46 18 -92l-33 -8q-33 49 -90.5 49t-116.5 -49q29 -86 125 -86q70 0 162 35l10 -14l-53 -121q-119 -59 -246 -59zM421 0q-98 0 -331 125l12 59q313 0 525 68q-54 353 -306 604
l-84 -20l-118 104l82 268h30q430 -452 484 -739l-41 -201q117 45 184 105l-23 944l142 135h37v-1014q0 -131 27 -172q40 -58 175 -59l33 -6v-195l-33 -6q-290 0 -323 315q-70 -159 -74 -161q-39 -39 -169.5 -96.5t-228.5 -57.5z" />
    <glyph glyph-name="uniFEF9" unicode="&#xfedf;&#xfe88;" horiz-adv-x="1176" arabic-form="isolated" 
d="M319 -575q-26 0 -145 96l8 33q96 0 119 4v2q-41 23 -41 95t52.5 138t124.5 66t104 -90q15 -45 18 -91l-33 -8q-33 49 -90.5 49t-116.5 -49q32 -86 116.5 -86t170.5 33l10 -14l-53 -119q-119 -59 -244 -59zM645 201q217 0 262 22q-44 104 -147 221q-129 -117 -344 -243
h229zM833 938v180l-59 152l188 182l41 -29v-100l93 -166l-95 -100v-43q-2 -275 -141 -461q148 -189 148 -295q0 -36 -55 -127.5t-85 -105.5q-49 -25 -288.5 -25t-307.5 16l-8 15l39 205q185 106 375 288q-171 160 -385 332l-84 -25l-119 103l63 272l33 6q443 -398 588 -561
q59 112 59 287z" />
    <glyph glyph-name="uniFEFA" unicode="&#xfee0;&#xfe88;" horiz-adv-x="1215" arabic-form="final" 
d="M463 -551q-27 0 -144 96l7 33q96 0 118 4v2q-39 22 -39 96t51.5 139.5t124 65.5t105.5 -91q16 -45 18 -91l-34 -8q-28 49 -87 49t-118 -49q27 -86 113.5 -86t173.5 33l10 -15l-56 -119q-118 -59 -243 -59zM421 0q-98 0 -331 125l12 59q313 0 525 68q-54 353 -306 604
l-84 -20l-118 104l82 268h30q430 -452 484 -739l-41 -201q117 45 184 105l-23 944l142 135h37v-1014q0 -131 27 -172q40 -58 175 -59l33 -6v-195l-33 -6q-290 0 -323 315q-70 -159 -74 -161q-39 -39 -169.5 -96.5t-228.5 -57.5z" />
    <glyph glyph-name="uniFEFB" unicode="&#xfedf;&#xfe8e;" horiz-adv-x="1176" arabic-form="isolated" 
d="M647 201q217 0 262 22q-45 107 -149 221q-122 -113 -344 -243h231zM833 938v180l-57 152l186 182l43 -29v-100l91 -166l-95 -100v-43q-2 -275 -141 -461q148 -184 148 -295q0 -36 -54.5 -127.5t-83.5 -105.5q-52 -25 -291 -25t-307 16l-8 15l41 205q189 108 373 288
q-171 160 -385 332l-82 -25l-121 103l66 272l30 6q425 -377 590 -561q57 115 57 287z" />
    <glyph glyph-name="uniFEFC" unicode="&#xfee0;&#xfe8e;" horiz-adv-x="1215" arabic-form="final" 
d="M421 0q-98 0 -331 125l12 59q313 0 525 68q-54 353 -306 604l-84 -20l-118 104l82 268h30q430 -452 484 -739l-41 -201q117 45 184 105l-23 944l142 135h37v-1014q0 -131 27 -172q40 -58 175 -59l33 -6v-195l-33 -6q-290 0 -323 315q-70 -159 -74 -161
q-39 -39 -169.5 -96.5t-228.5 -57.5z" />
    <glyph glyph-name="uniFE8B_uniFEE4.liga" unicode="&#xfe8b;&#xfee4;" horiz-adv-x="1549" 
d="M1213 999q-26 0 -145 97l8 32q96 0 119 5v2q-41 23 -41 95t52.5 138t124.5 66t103 -91q16 -45 19 -90l-33 -8q-33 49 -90.5 49t-116.5 -49q32 -86 116.5 -86t170.5 33l10 -14l-53 -119q-119 -60 -244 -60zM990 0q-139 0 -211 123l-102 -137q-301 5 -394 69q-9 6 -53 90
q-65 -145 -229 -145l-33 6v195l33 6q119 0 184 49q15 169 129 334.5t250 165.5q81 0 142 -83q42 -57 109.5 -221t81.5 -186q37 -59 113 -59h11q224 0 286 14q-24 195 -98 465l141 137h37l82 -227l-4 -23l-47 -49q18 -124 18 -175.5t-3 -81t-64.5 -125t-97.5 -117.5
q-57 -24 -238 -25h-43zM505.5 555q-61.5 0 -133.5 -94.5t-103 -204.5q88 -63 420 -63h55q-20 40 -67 148.5t-64 136.5q-46 77 -107.5 77z" />
    <glyph glyph-name="uniFE8B_uniFEF0.liga" unicode="&#xfe8b;&#xfef0;" horiz-adv-x="1779" 
d="M1210 -74q0 -39 -33.5 -131t-56.5 -110q-216 -156 -590 -156q-223 0 -336 115q-94 95 -94 241q0 205 160 451l59 -33q-82 -168 -82 -274q0 -281 325.5 -281t549.5 121q-71 131 -279 131h-35l-6 10l62 191l12 6h385q224 0 286 14q-24 195 -98 465l141 137h37l82 -227
l-4 -23l-47 -49q18 -124 18 -175.5t-3 -81t-64.5 -125t-97.5 -117.5q-57 -24 -240 -25h-76q25 -35 25 -74zM1443 999q-26 0 -145 97l8 32q96 0 119 5v2q-41 23 -41 95t52.5 138t124.5 66t103 -91q16 -45 19 -90l-33 -8q-33 49 -90.5 49t-116.5 -49q32 -86 116.5 -86
t170.5 33l10 -14l-53 -119q-119 -60 -244 -60z" />
    <glyph glyph-name="uniFE8B_uniFEF2.liga" unicode="&#xfe8b;&#xfef2;" horiz-adv-x="1779" 
d="M1210 -74q0 -39 -33.5 -131t-56.5 -110q-216 -156 -590 -156q-223 0 -336 115q-94 95 -94 241q0 205 160 451l59 -33q-82 -168 -82 -274q0 -281 325.5 -281t549.5 121q-71 131 -279 131h-35l-6 10l62 191l12 6h385q224 0 286 14q-24 195 -98 465l141 137h37l82 -227
l-4 -23l-47 -49q18 -124 18 -175.5t-3 -81t-64.5 -125t-97.5 -117.5q-57 -24 -240 -25h-76q25 -35 25 -74zM1443 999q-26 0 -145 97l8 32q96 0 119 5v2q-41 23 -41 95t52.5 138t124.5 66t103 -91q16 -45 19 -90l-33 -8q-33 49 -90.5 49t-116.5 -49q32 -86 116.5 -86
t170.5 33l10 -14l-53 -119q-119 -60 -244 -60zM743 -877q-66 48 -113 111q-51 -63 -118 -111q-76 56 -127 129q63 76 127 132q92 -76 118 -115q55 65 113 115q94 -76 131 -132q-51 -73 -131 -129z" />
    <glyph glyph-name="uniFE91_uniFEE4.liga" unicode="&#xfe91;&#xfee4;" horiz-adv-x="1547" 
d="M1135 -264q64 76 127 129q91 -74 129 -129q-51 -74 -129 -129q-75 55 -127 129zM990 0q-139 0 -211 123l-102 -137q-301 5 -394 69q-9 6 -53 90q-65 -145 -229 -145l-33 6v195l33 6q119 0 184 49q15 169 129 334.5t250 165.5q81 0 142 -83q42 -57 109.5 -221t81.5 -186
q37 -59 113 -59h11q224 0 286 14q-24 195 -98 465l141 137h35l82 -227l-2 -23l-47 -49q16 -137 16 -184.5t-2.5 -74.5t-63.5 -122t-97 -118q-57 -24 -238 -25h-43zM505.5 555q-61.5 0 -133.5 -94.5t-103 -204.5q88 -63 420 -63h55q-20 40 -67 148.5t-64 136.5
q-46 77 -107.5 77z" />
    <glyph glyph-name="uniFE92_uniFEE6.liga" unicode="&#xfe92;&#xfee6;" horiz-adv-x="1880" 
d="M1455 -264q64 76 127 129q90 -74 129 -129q-51 -74 -129 -129q-76 55 -127 129zM524 -395q-424 0 -424 356q0 203 160 442l53 -26q-76 -180 -76 -295q0 -266 330 -266q217 0 389 90l-74 569l148 115h37l8 -154q9 -139 36 -175q39 -52 167.5 -52.5t195.5 16.5
q20 97 73 332l127 84l29 -8q-21 -302 -47 -381q65 -45 225 -45l33 -6v-195l-33 -6h-14q-218 0 -320 135q-80 -101 -104 -112q-43 -21 -148 -23h-24l-5 1q-123 8 -181 91l2 -78q-54 -207 -129 -276q-133 -133 -434 -133zM481 764q63 78 127 131q90 -76 129 -131
q-51 -72 -129 -127q-76 55 -127 127z" />
    <glyph glyph-name="uniFE91_uniFEF0.liga" unicode="&#xfe91;&#xfef0;" horiz-adv-x="1777" 
d="M1210 -74q0 -39 -33.5 -131t-56.5 -110q-216 -156 -590 -156q-223 0 -336 115q-94 95 -94 241q0 205 160 451l59 -33q-82 -168 -82 -274q0 -281 325.5 -281t549.5 121q-71 131 -279 131h-35l-6 10l62 191l12 6h385q224 0 286 14q-24 195 -98 465l141 137h35l82 -227
l-2 -23l-47 -49q16 -137 16 -184.5t-2.5 -74.5t-63.5 -122t-97 -118q-57 -24 -240 -25h-76q25 -35 25 -74zM1365 -264q64 76 127 129q91 -74 129 -129q-51 -74 -129 -129q-75 55 -127 129z" />
    <glyph glyph-name="uniFE91_uniFEF2.liga" unicode="&#xfe91;&#xfef2;" horiz-adv-x="1777" 
d="M1210 -74q0 -39 -33.5 -131t-56.5 -110q-216 -156 -590 -156q-223 0 -336 115q-94 95 -94 241q0 205 160 451l59 -33q-82 -168 -82 -274q0 -281 325.5 -281t549.5 121q-71 131 -279 131h-35l-6 10l62 191l12 6h385q224 0 286 14q-24 195 -98 465l141 137h35l82 -227
l-2 -23l-47 -49q16 -137 16 -184.5t-2.5 -74.5t-63.5 -122t-97 -118q-57 -24 -240 -25h-76q25 -35 25 -74zM1365 -264q64 76 127 129q91 -74 129 -129q-51 -74 -129 -129q-75 55 -127 129zM743 -877q-66 48 -113 111q-51 -63 -118 -111q-76 56 -127 129q63 76 127 132
q92 -76 118 -115q55 65 113 115q94 -76 131 -132q-51 -73 -131 -129z" />
    <glyph glyph-name="uniFE97_uniFEE4.liga" unicode="&#xfe97;&#xfee4;" horiz-adv-x="1557" 
d="M1416 1024q-53 39 -114 113q-52 -66 -117 -113q-76 57 -127 131q63 76 127 131q92 -76 119 -115q42 51 112 115q92 -76 131 -131q-51 -74 -131 -131zM990 0q-139 0 -211 123l-102 -137q-301 5 -394 69q-9 6 -53 90q-65 -145 -229 -145l-33 6v195l33 6q119 0 184 49
q15 169 129 334.5t250 165.5q81 0 142 -83q42 -57 109.5 -221t81.5 -186q37 -59 113 -59h11q224 0 286 14q-24 195 -98 465l141 137h35l82 -227l-2 -23l-47 -49q16 -137 16 -184.5t-2.5 -74.5t-63.5 -122t-97 -118q-57 -24 -238 -25h-43zM505.5 555q-61.5 0 -133.5 -94.5
t-103 -204.5q88 -63 420 -63h55q-20 40 -67 148.5t-64 136.5q-46 77 -107.5 77z" />
    <glyph glyph-name="uniFE98_uniFEE6.liga" unicode="&#xfe98;&#xfee6;" horiz-adv-x="1890" 
d="M524 -395q-424 0 -424 356q0 203 160 442l53 -26q-76 -180 -76 -295q0 -266 330 -266q217 0 389 90l-74 569l148 115h37l8 -154q9 -139 36 -175q39 -53 171.5 -53t201.5 17q20 97 73 332l127 84l29 -8q-21 -302 -47 -381q65 -45 225 -45l33 -6v-195l-33 -6h-14
q-218 0 -320 135q-80 -101 -104 -112q-45 -22 -159 -23h-14q-133 5 -195 92l2 -78q-54 -207 -129 -276q-133 -133 -434 -133zM1707 838q-53 39 -114 112q-51 -65 -117 -112q-78 55 -127 131q64 75 127 131q92 -76 117 -115q67 74 114 115q93 -76 129 -131q-49 -76 -129 -131
zM481 764q63 78 127 131q90 -76 129 -131q-51 -72 -129 -127q-76 55 -127 127z" />
    <glyph glyph-name="uniFE97_uniFEF0.liga" unicode="&#xfe97;&#xfef0;" horiz-adv-x="1787" 
d="M1210 -74q0 -39 -33.5 -131t-56.5 -110q-216 -156 -590 -156q-223 0 -336 115q-94 95 -94 241q0 205 160 451l59 -33q-82 -168 -82 -274q0 -281 325.5 -281t549.5 121q-71 131 -279 131h-35l-6 10l62 191l12 6h385q224 0 286 14q-24 195 -98 465l141 137h35l82 -227
l-2 -23l-47 -49q16 -137 16 -184.5t-2.5 -74.5t-63.5 -122t-97 -118q-57 -24 -240 -25h-76q25 -35 25 -74zM1646 1024q-53 39 -114 113q-52 -66 -117 -113q-76 57 -127 131q63 76 127 131q92 -76 119 -115q42 51 112 115q92 -76 131 -131q-51 -74 -131 -131z" />
    <glyph glyph-name="uniFE97_uniFEF2.liga" unicode="&#xfe97;&#xfef2;" horiz-adv-x="1787" 
d="M1210 -74q0 -39 -33.5 -131t-56.5 -110q-216 -156 -590 -156q-223 0 -336 115q-94 95 -94 241q0 205 160 451l59 -33q-82 -168 -82 -274q0 -281 325.5 -281t549.5 121q-71 131 -279 131h-35l-6 10l62 191l12 6h385q224 0 286 14q-24 195 -98 465l141 137h35l82 -227
l-2 -23l-47 -49q16 -137 16 -184.5t-2.5 -74.5t-63.5 -122t-97 -118q-57 -24 -240 -25h-76q25 -35 25 -74zM1646 1024q-53 39 -114 113q-52 -66 -117 -113q-76 57 -127 131q63 76 127 131q92 -76 119 -115q42 51 112 115q92 -76 131 -131q-51 -74 -131 -131zM743 -877
q-66 48 -113 111q-51 -63 -118 -111q-76 56 -127 129q63 76 127 132q92 -76 118 -115q55 65 113 115q94 -76 131 -132q-51 -73 -131 -129z" />
    <glyph glyph-name="uniFE9C_uniFEAE.liga" unicode="&#xfe9c;&#xfeae;" horiz-adv-x="1480" 
d="M1305 872q-57 42 -112 109q-50 -63 -115 -109q-74 56 -123 127q61 74 123 129q110 -110 115 -116q84 84 112 116q90 -75 127 -129q-51 -71 -127 -127zM859 0q-94 0 -190 84q-12 -139 -105 -294q-110 -185 -244 -185q-35 0 -160 69t-157 97l25 57q94 -25 159 -25
q271 0 394 363q-11 26 -136 307l131 158h29l47 -195q39 -148 76 -188t157 -40t189 17q20 97 73 332l127 84l29 -8q-21 -302 -47 -381q65 -45 225 -45l33 -6v-195l-33 -6h-14q-218 0 -320 135q-80 -101 -104 -112q-45 -22 -159 -23h-25zM1074 1233q61 70 119 121
q86 -68 120 -121q-45 -70 -120 -123q-66 53 -119 123z" />
    <glyph glyph-name="uniFE9B_uniFEE4.liga" unicode="&#xfe9b;&#xfee4;" horiz-adv-x="1555" 
d="M1177 1384q61 70 119 121q84 -67 121 -121q-46 -69 -121 -122q-68 53 -119 122zM1408 1024q-41 30 -112 109q-49 -62 -115 -109q-74 55 -123 127q62 74 123 129l115 -117q57 62 112 117q90 -76 127 -129q-51 -72 -127 -127zM990 0q-139 0 -211 123l-102 -137
q-301 5 -394 69q-9 6 -53 90q-65 -145 -229 -145l-33 6v195l33 6q119 0 184 49q15 169 129 334.5t250 165.5q81 0 142 -83q42 -57 109.5 -221t81.5 -186q37 -59 113 -59h11q224 0 286 14q-24 195 -98 465l141 137h35l82 -227l-2 -23l-47 -49q16 -137 16 -184.5t-2.5 -74.5
t-63.5 -122t-97 -118q-57 -24 -238 -25h-43zM505.5 555q-61.5 0 -133.5 -94.5t-103 -204.5q88 -63 420 -63h55q-20 40 -67 148.5t-64 136.5q-46 77 -107.5 77z" />
    <glyph glyph-name="uniFE9C_uniFEE6.liga" unicode="&#xfe9c;&#xfee6;" horiz-adv-x="1890" 
d="M1715 872q-57 42 -112 109q-50 -63 -115 -109q-74 56 -123 127q61 74 123 129q110 -110 115 -116q84 84 112 116q90 -75 127 -129q-51 -71 -127 -127zM524 -395q-424 0 -424 356q0 203 160 442l53 -26q-76 -180 -76 -295q0 -266 330 -266q217 0 389 90l-74 569l148 115
h37l8 -154q9 -139 36 -175q39 -53 171.5 -53t201.5 17q20 97 73 332l127 84l29 -8q-21 -302 -47 -381q65 -45 225 -45l33 -6v-195l-33 -6h-14q-218 0 -320 135q-80 -101 -104 -112q-45 -22 -159 -23h-14q-133 5 -195 92l2 -78q-54 -207 -129 -276q-133 -133 -434 -133z
M1484 1233q61 70 119 121q86 -68 120 -121q-45 -70 -120 -123q-66 53 -119 123zM481 764q63 78 127 131q90 -76 129 -131q-51 -72 -129 -127q-76 55 -127 127z" />
    <glyph glyph-name="uniFE9B_uniFEF0.liga" unicode="&#xfe9b;&#xfef0;" horiz-adv-x="1785" 
d="M1210 -74q0 -39 -33.5 -131t-56.5 -110q-216 -156 -590 -156q-223 0 -336 115q-94 95 -94 241q0 205 160 451l59 -33q-82 -168 -82 -274q0 -281 325.5 -281t549.5 121q-71 131 -279 131h-35l-6 10l62 191l12 6h385q224 0 286 14q-24 195 -98 465l141 137h35l82 -227
l-2 -23l-47 -49q16 -137 16 -184.5t-2.5 -74.5t-63.5 -122t-97 -118q-57 -24 -240 -25h-76q25 -35 25 -74zM1407 1384q61 70 119 121q84 -67 121 -121q-46 -69 -121 -122q-68 53 -119 122zM1638 1024q-41 30 -112 109q-49 -62 -115 -109q-74 55 -123 127q62 74 123 129
l115 -117q57 62 112 117q90 -76 127 -129q-51 -72 -127 -127z" />
    <glyph glyph-name="uniFE9B_uniFEF2.liga" unicode="&#xfe9b;&#xfef2;" horiz-adv-x="1785" 
d="M1210 -74q0 -39 -33.5 -131t-56.5 -110q-216 -156 -590 -156q-223 0 -336 115q-94 95 -94 241q0 205 160 451l59 -33q-82 -168 -82 -274q0 -281 325.5 -281t549.5 121q-71 131 -279 131h-35l-6 10l62 191l12 6h385q224 0 286 14q-24 195 -98 465l141 137h35l82 -227
l-2 -23l-47 -49q16 -137 16 -184.5t-2.5 -74.5t-63.5 -122t-97 -118q-57 -24 -240 -25h-76q25 -35 25 -74zM1407 1384q61 70 119 121q84 -67 121 -121q-46 -69 -121 -122q-68 53 -119 122zM1638 1024q-41 30 -112 109q-49 -62 -115 -109q-74 55 -123 127q62 74 123 129
l115 -117q57 62 112 117q90 -76 127 -129q-51 -72 -127 -127zM743 -877q-66 48 -113 111q-51 -63 -118 -111q-76 56 -127 129q63 76 127 132q92 -76 118 -115q55 65 113 115q94 -76 131 -132q-51 -73 -131 -129z" />
    <glyph glyph-name="uniFEDB_uniFEF0.liga" unicode="&#xfedb;&#xfef0;" horiz-adv-x="2158" 
d="M1210 -74q0 -39 -33.5 -131t-56.5 -110q-216 -156 -590 -156q-223 0 -336 115q-94 95 -94 241q0 205 160 451l59 -33q-82 -168 -82 -274q0 -281 325.5 -281t549.5 121q-71 131 -279 131h-35l-6 10l62 191l12 6h664q309 0 395 24q-71 165 -432 390l-37 -35l-159 114
q-3 3 -3 23t33.5 132.5t53.5 121.5l706 407l23 -14l-39 -205l-598 -307q277 -151 434 -327q131 -145 131 -240q0 -26 -44 -124.5t-69 -117.5q-62 -49 -420 -49h-320q25 -35 25 -74z" />
    <glyph glyph-name="uniFEDC_uniFEF0.liga" unicode="&#xfedc;&#xfef0;" horiz-adv-x="2135" 
d="M1210 -74q0 -39 -33.5 -131t-56.5 -110q-216 -156 -590 -156q-223 0 -336 115q-94 95 -94 241q0 205 160 451l59 -33q-82 -168 -82 -274q0 -281 325.5 -281t549.5 121q-71 131 -279 131h-35l-6 10l62 191l12 6h468q186 0 247 16v12q0 101 -92 240l-196 285q-2 3 -2 20.5
t32 108.5t52 98l612 408l22 -17l-38 -202l-514 -324q51 -78 206.5 -298t240 -283.5t202.5 -63.5h30l33 -6v-195l-33 -6h-30q-147 0 -237 63q-60 41 -179 187q-111 -204 -147 -217q-66 -33 -256 -33h-102q25 -35 25 -74z" />
    <glyph glyph-name="uniFEDB_uniFEF2.liga" unicode="&#xfedb;&#xfef2;" horiz-adv-x="2158" 
d="M1210 -74q0 -39 -33.5 -131t-56.5 -110q-216 -156 -590 -156q-223 0 -336 115q-94 95 -94 241q0 205 160 451l59 -33q-82 -168 -82 -274q0 -281 325.5 -281t549.5 121q-71 131 -279 131h-35l-6 10l62 191l12 6h664q309 0 395 24q-71 165 -432 390l-37 -35l-159 114
q-3 3 -3 23t33.5 132.5t53.5 121.5l706 407l23 -14l-39 -205l-598 -307q277 -151 434 -327q131 -145 131 -240q0 -26 -44 -124.5t-69 -117.5q-62 -49 -420 -49h-320q25 -35 25 -74zM743 -877q-66 48 -113 111q-51 -63 -118 -111q-76 56 -127 129q63 76 127 132
q92 -76 118 -115q55 65 113 115q94 -76 131 -132q-51 -73 -131 -129z" />
    <glyph glyph-name="uniFEDC_uniFEF2.liga" unicode="&#xfedc;&#xfef2;" horiz-adv-x="2135" 
d="M1210 -74q0 -39 -33.5 -131t-56.5 -110q-216 -156 -590 -156q-223 0 -336 115q-94 95 -94 241q0 205 160 451l59 -33q-82 -168 -82 -274q0 -281 325.5 -281t549.5 121q-71 131 -279 131h-35l-6 10l62 191l12 6h468q186 0 247 16v12q0 101 -92 240l-196 285q-2 3 -2 20.5
t32 108.5t52 98l612 408l22 -17l-38 -202l-514 -324q51 -78 206.5 -298t240 -283.5t202.5 -63.5h30l33 -6v-195l-33 -6h-30q-147 0 -237 63q-60 41 -179 187q-111 -204 -147 -217q-66 -33 -256 -33h-102q25 -35 25 -74zM743 -877q-66 48 -113 111q-51 -63 -118 -111
q-76 56 -127 129q63 76 127 132q92 -76 118 -115q55 65 113 115q94 -76 131 -132q-51 -73 -131 -129z" />
    <glyph glyph-name="uniFEDF_uniFB51.rlig" unicode="&#xfedf;&#xfb51;" horiz-adv-x="1176" 
d="M300 1332q-123 0 -204 33l-57 -82l-29 11q20 88 37 122q45 68 84 68l40 -11q138 221 245 221q52 0 99 -61.5t47 -121.5q0 -21 -31.5 -76.5t-47.5 -63.5q-60 -39 -183 -39zM394 1570q-68 0 -170 -108q62 -7 139 -7t141 23q-42 92 -110 92zM645 201q217 0 262 22
q-44 104 -147 221q-129 -117 -344 -243h229zM833 938v180l-59 152l188 182l41 -29v-100l93 -166l-95 -100v-43q-2 -275 -141 -461q148 -189 148 -295q0 -36 -55 -127.5t-85 -105.5q-49 -25 -288.5 -25t-307.5 16l-8 15l39 205q185 106 375 288q-171 160 -385 332l-84 -25
l-119 103l63 272l33 6q443 -398 588 -561q59 112 59 287z" />
    <glyph glyph-name="uniFEE0_uniFB51.rlig" unicode="&#xfee0;&#xfb51;" horiz-adv-x="1215" 
d="M300 1332q-123 0 -204 33l-57 -82l-29 11q20 88 37 122q45 68 84 68l40 -11q138 221 245 221q52 0 99 -61.5t47 -121.5q0 -21 -31.5 -76.5t-47.5 -63.5q-60 -39 -183 -39zM394 1570q-68 0 -170 -108q62 -7 139 -7t141 23q-42 92 -110 92zM421 0q-98 0 -331 125l12 59
q313 0 525 68q-54 353 -306 604l-84 -20l-118 104l82 268h30q430 -452 484 -739l-41 -201q117 45 184 105l-23 944l142 135h37v-1014q0 -131 27 -172q40 -58 175 -59l33 -6v-195l-33 -6q-290 0 -323 315q-70 -159 -74 -161q-39 -39 -169.5 -96.5t-228.5 -57.5z" />
    <glyph glyph-name="uniFEDF_uniFEE2.liga" unicode="&#xfedf;&#xfee2;" horiz-adv-x="1783" 
d="M100 225q0 74 71.5 199t133.5 156q337 176 459 176q79 0 131 -70t120 -235.5t82 -187.5q36 -56 111 -56h2q185 0 248 14l-23 912l-53 137l186 182l41 -25v-96l94 -172l-94 -100v-727q0 -52 -87.5 -168t-124 -139.5t-166.5 -24.5h-41q-141 0 -213 123l-101 -137
q-303 5 -393 69q-12 9 -56 92.5t-44 104.5v2q9 121 73 240q-161 -75 -204 -123l86 -621q0 -104 -91 -362h-59l-46 363q-42 339 -42 474zM704 555q-61 0 -133.5 -94.5t-103.5 -204.5q88 -63 420 -63h55l-49 112q-62 142 -81 173q-47 77 -108 77z" />
    <glyph glyph-name="uniFEE4_uniFE8E.liga" unicode="&#xfee4;&#xfe8e;" horiz-adv-x="1562" 
d="M330 1452v-1149q0 -63 61 -83q39 -12 150 -12t174 48q15 169 129 334.5t250 165.5q81 0 142 -83q42 -57 109.5 -221t81.5 -186q37 -59 113 -59h23l33 -6v-195l-33 -6h-43q-139 0 -211 123l-102 -137q-301 5 -394 69q-9 6 -53 90q-61 -135 -207 -144l-4 -1h-20
q-197 7 -280.5 150t-86.5 522q0 88 -12 643l145 137h35zM1035.5 555q-61.5 0 -133.5 -94.5t-103 -204.5q88 -63 420 -63h55q-20 40 -67 148.5t-64 136.5q-46 77 -107.5 77z" />
    <glyph glyph-name="uniFEE4_uniFE82.liga" unicode="&#xfee4;&#xfe82;" horiz-adv-x="1622" 
d="M389 1294v-991q0 -63 60 -83q40 -12 151 -12t175 48q15 169 129 334.5t250 165.5q81 0 142 -83q42 -57 109.5 -221t81.5 -186q37 -59 113 -59h23l33 -6v-195l-33 -6h-43q-139 0 -211 123l-102 -137q-301 5 -394 69q-9 6 -53 90q-62 -137 -212 -145h-18q-199 6 -284 148
q-89 153 -91 530q0 88 -6 479l143 137h37zM1095.5 555q-61.5 0 -133.5 -94.5t-103 -204.5q88 -63 420 -63h55q-20 40 -67 148.5t-64 136.5q-46 77 -107.5 77zM311.5 1430q-128.5 0 -213.5 24l-61 -106l-37 12q17 80 47 143q5 10 52 55.5t61 45.5l74 -3q62 -4 140.5 -4
t239.5 23l7 -14l-64 -144q-117 -32 -245.5 -32z" />
    <glyph glyph-name="uniFEE4_uniFE84.liga" unicode="&#xfee4;&#xfe84;" horiz-adv-x="1562" 
d="M158 678q0 88 -8 479l146 137h34v-991q0 -63 62 -83q39 -12 149.5 -12t173.5 48q15 169 129 334.5t250 165.5q81 0 142 -83q42 -57 109.5 -221t81.5 -186q37 -59 113 -59h23l33 -6v-195l-33 -6h-43q-139 0 -211 123l-102 -137q-301 5 -394 69q-9 6 -53 90
q-61 -135 -207 -144l-4 -1h-20q-198 7 -284.5 154t-86.5 524zM1035.5 555q-61.5 0 -133.5 -94.5t-103 -204.5q88 -63 420 -63h55q-20 40 -67 148.5t-64 136.5q-46 77 -107.5 77zM160 1384q-26 0 -143 97l6 32q96 0 119 5v2q-39 22 -39 94.5t52 138.5t124.5 66t104.5 -90
q15 -46 18 -91l-33 -8q-35 47 -94 47t-113 -49q28 -84 114.5 -84t172.5 33l10 -14l-53 -119q-119 -60 -246 -60z" />
    <glyph glyph-name="uniFEE4_uniFE88.liga" unicode="&#xfee4;&#xfe88;" horiz-adv-x="1562" 
d="M330 1452v-1149q0 -63 61 -83q39 -12 150 -12t174 48q15 169 129 334.5t250 165.5q81 0 142 -83q42 -57 109.5 -221t81.5 -186q37 -59 113 -59h23l33 -6v-195l-33 -6h-43q-139 0 -211 123l-102 -137q-301 5 -394 69q-9 6 -53 90q-61 -135 -207 -144l-4 -1h-20
q-197 7 -280.5 150t-86.5 522q0 88 -12 643l145 137h35zM1035.5 555q-61.5 0 -133.5 -94.5t-103 -204.5q88 -63 420 -63h55q-20 40 -67 148.5t-64 136.5q-46 77 -107.5 77zM181 -498q-26 0 -145 97l8 32q96 0 119 4v3q-41 23 -41 95t52.5 138t124.5 66t104 -91
q15 -45 18 -90l-33 -8q-33 49 -90.5 49t-116.5 -49q28 -86 114.5 -86t172.5 33l10 -14l-53 -119q-119 -60 -244 -60z" />
    <glyph glyph-name="uniFEE8_uniFEAE.liga" unicode="&#xfee8;&#xfeae;" horiz-adv-x="1470" 
d="M859 0q-94 0 -190 84q-12 -139 -105 -294q-110 -185 -244 -185q-35 0 -160 69t-157 97l25 57q94 -25 159 -25q271 0 394 363q-11 26 -136 307l131 158h29l47 -195q39 -149 76 -188q37 -40 153 -40t183 17q20 97 73 332l127 84l29 -8q-21 -302 -47 -381q65 -45 225 -45
l33 -6v-195l-33 -6h-14q-218 0 -320 135q-80 -101 -104 -112q-43 -21 -148 -23h-26zM1078 999q63 76 127 131q90 -75 129 -131q-51 -73 -129 -129q-76 56 -127 129z" />
    <glyph glyph-name="uniFEE7_uniFEE4.liga" unicode="&#xfee7;&#xfee4;" horiz-adv-x="1537" 
d="M990 0q-139 0 -211 123l-102 -137q-301 5 -394 69q-9 6 -53 90q-65 -145 -229 -145l-33 6v195l33 6q119 0 184 49q15 169 129 334.5t250 165.5q81 0 142 -83q42 -57 109.5 -221t81.5 -186q37 -59 113 -59h1q224 0 286 14q-24 195 -98 465l141 137h35l82 -227l-2 -23
l-47 -49q16 -137 16 -184.5t-2.5 -74.5t-63.5 -122t-97 -118q-55 -23 -228 -25h-43zM1191 1165q61 76 125 131q90 -75 129 -131q-49 -73 -129 -129q-76 56 -125 129zM505.5 555q-61.5 0 -133.5 -94.5t-103 -204.5q88 -63 420 -63h55q-20 40 -67 148.5t-64 136.5
q-46 77 -107.5 77z" />
    <glyph glyph-name="uniFEE7_uniFEF0.liga" unicode="&#xfee7;&#xfef0;" horiz-adv-x="1747" 
d="M1210 -74q0 -39 -33.5 -131t-56.5 -110q-216 -156 -590 -156q-223 0 -336 115q-94 95 -94 241q0 205 160 451l59 -33q-82 -168 -82 -274q0 -281 325.5 -281t549.5 121q-71 131 -279 131h-35l-6 10l62 191l12 6h355q224 0 286 14q-24 195 -98 465l141 137h35l82 -227
l-2 -23l-47 -49q16 -137 16 -184.5t-2.5 -74.5t-63.5 -122t-97 -118q-52 -22 -208 -25h-78q25 -35 25 -74zM1401 1165q61 76 125 131q90 -75 129 -131q-49 -73 -129 -129q-76 56 -125 129z" />
    <glyph glyph-name="uniFEE7_uniFEF2.liga" unicode="&#xfee7;&#xfef2;" horiz-adv-x="1747" 
d="M1210 -74q0 -39 -33.5 -131t-56.5 -110q-216 -156 -590 -156q-223 0 -336 115q-94 95 -94 241q0 205 160 451l59 -33q-82 -168 -82 -274q0 -281 325.5 -281t549.5 121q-71 131 -279 131h-35l-6 10l62 191l12 6h355q224 0 286 14q-24 195 -98 465l141 137h35l82 -227
l-2 -23l-47 -49q16 -137 16 -184.5t-2.5 -74.5t-63.5 -122t-97 -118q-52 -22 -208 -25h-78q25 -35 25 -74zM1401 1165q61 76 125 131q90 -75 129 -131q-49 -73 -129 -129q-76 56 -125 129zM743 -877q-66 48 -113 111q-51 -63 -118 -111q-76 56 -127 129q63 76 127 132
q92 -76 118 -115q55 65 113 115q94 -76 131 -132q-51 -73 -131 -129z" />
    <glyph glyph-name="uniFEF4_uniFEAE.liga" unicode="&#xfef4;&#xfeae;" horiz-adv-x="1470" 
d="M1244 -393q-50 37 -106 106q-49 -61 -113 -106q-72 53 -121 125q60 71 121 125q88 -74 113 -111q48 58 106 111q90 -74 125 -125q-47 -72 -125 -125zM859 0q-94 0 -190 84q-12 -139 -105 -294q-110 -185 -244 -185q-35 0 -160 69t-157 97l25 57q94 -25 159 -25
q271 0 394 363q-11 26 -136 307l131 158h29l47 -195q39 -149 76 -188q37 -40 153 -40t183 17q20 97 73 332l127 84l29 -8q-21 -302 -47 -381q65 -45 225 -45l33 -6v-195l-33 -6h-14q-218 0 -320 135q-80 -101 -104 -112q-43 -21 -148 -23h-26z" />
    <glyph glyph-name="uniFEF3_uniFEE4.liga" unicode="&#xfef3;&#xfee4;" horiz-adv-x="1567" 
d="M1355 -393q-37 27 -109 106q-47 -61 -111 -106q-71 53 -120 125q59 71 120 125q89 -74 113 -111q48 58 107 111q88 -74 125 -125q-50 -72 -125 -125zM990 0q-139 0 -211 123l-102 -137q-301 5 -394 69q-9 6 -53 90q-65 -145 -229 -145l-33 6v195l33 6q119 0 184 49
q15 169 129 334.5t250 165.5q81 0 142 -83q42 -57 109.5 -221t81.5 -186q37 -59 113 -59h1q254 0 316 14q-24 195 -98 465l141 137h35l82 -227l-2 -23l-47 -49q16 -137 16 -184.5t-2.5 -74.5t-63.5 -122t-97 -118q-56 -24 -258 -25h-43zM505.5 555q-61.5 0 -133.5 -94.5
t-103 -204.5q88 -63 420 -63h55q-20 40 -67 148.5t-64 136.5q-46 77 -107.5 77z" />
    <glyph glyph-name="uniFEF4_uniFEE6.liga" unicode="&#xfef4;&#xfee6;" horiz-adv-x="1880" 
d="M1654 -393q-50 37 -106 106q-49 -61 -113 -106q-72 53 -121 125q60 71 121 125q88 -74 113 -111q48 58 106 111q90 -74 125 -125q-47 -72 -125 -125zM524 -395q-424 0 -424 356q0 203 160 442l53 -26q-76 -180 -76 -295q0 -266 330 -266q217 0 389 90l-74 569l148 115h37
l8 -154q9 -139 36 -175q39 -52 167.5 -52.5t195.5 16.5q20 97 73 332l127 84l29 -8q-21 -302 -47 -381q65 -45 225 -45l33 -6v-195l-33 -6h-14q-218 0 -320 135q-80 -101 -104 -112q-43 -21 -148 -23h-24l-5 1q-123 8 -181 91l2 -78q-54 -207 -129 -276q-133 -133 -434 -133
zM481 764q63 78 127 131q90 -76 129 -131q-51 -72 -129 -127q-76 55 -127 127z" />
    <glyph glyph-name="T_h.liga" unicode="Th" horiz-adv-x="2098" 
d="M659 1337v-1212l188 -47v-78h-596v76l189 47v1214h-236l-100 -247h-82v354h1270v-635q169 135 353 135q264 0 264 -336v-487l153 -47v-74h-501v72l157 49v454q0 220 -202 220q-105 0 -224 -60v-612l154 -49v-74h-502v72l156 47v1218h-441z" />
    <glyph glyph-name="f_b.liga" unicode="fb" horiz-adv-x="1714" 
d="M1165 104q139 0 203 104t63 259q0 156 -67 252q-68 96 -172 96t-184 -39v-631q85 -41 157 -41zM405 1075v-147h205v-121h-205v-686l148 -47v-74h-494v72l154 45v690h-166v84l166 39v110q0 166 128 286t333 120q83 0 168 -21l55 15h111v-584q146 90 274 90q362 0 362 -459
q0 -221 -148 -363t-348 -142q-201 0 -333 86v1181l-254 84q-156 -86 -156 -258z" />
    <glyph glyph-name="f_f_b.liga" unicode="ffb" horiz-adv-x="2334" 
d="M405 1075v-147h428v112q0 109 53 196l-8 4v1q-153 91 -266 107q-90 -26 -148 -100t-59 -173zM1294 1446q83 0 168 -21l55 15h111v-584q146 90 274 90q362 0 362 -459q0 -221 -148 -363t-348 -142q-201 0 -333 86v1181l-254 84q-156 -86 -156 -258v-147h205v-121h-205
v-686l148 -47v-74h-494v72l154 45v690h-428v-686l164 -47v-74h-510v72l154 45v690h-166v84l166 39v102q1 164 139 292t359 128q154 0 286 -82l1 1l9 -8q119 83 287 83zM1785 104q139 0 203 104t63 259q0 156 -67 252q-68 96 -172 96t-184 -39v-631q85 -41 157 -41z" />
    <glyph glyph-name="f_f.liga" unicode="ff" horiz-adv-x="1288" 
d="M213 807h-166v84l166 39v102q1 164 139 292t359 128q154 0 286 -82q117 78 262 78q56 0 105 -12l-27 -181h-45l-192 64q-72 -84 -72 -223v-168h201v-121h-201v-684l162 -49v-74h-508v72l153 47v688h-430v-686l164 -47v-74h-510v72l154 45v690zM835 1073q0 89 43 168
q-153 91 -266 107q-90 -26 -148 -100t-59 -173v-147h430v145z" />
    <glyph glyph-name="f_h.liga" unicode="fh" horiz-adv-x="1847" 
d="M405 1075v-147h205v-121h-205v-686l148 -47v-74h-494v72l154 45v690h-166v84l166 39v110q0 166 128 286t333 120q87 0 172 -23l55 17h115v-629q169 135 352 135q264 0 264 -338v-487l154 -47v-74h-504v72l158 49v454q0 222 -201 222q-109 0 -223 -62v-612l153 -49v-74
h-501v72l155 47v1126l-262 88q-156 -86 -156 -258z" />
    <glyph glyph-name="f_f_h.liga" unicode="ffh" horiz-adv-x="2467" 
d="M405 807v-686l164 -47v-74h-510v72l154 45v690h-166v84l166 39v102q1 164 139 292t359 128q154 0 286 -82h1l10 -6q118 82 286 82q87 0 172 -23l55 17h115v-629q169 135 352 135q264 0 264 -338v-487l154 -47v-74h-504v72l158 49v454q0 222 -201 222q-109 0 -223 -62
v-612l153 -49v-74h-501v72l155 47v1126l-262 88q-156 -86 -156 -258v-147h205v-121h-205v-686l148 -47v-74h-494v72l154 45v690h-428zM405 1075v-147h428v112q0 109 53 197l-8 4q-153 91 -266 107q-90 -26 -148 -100t-59 -173z" />
    <glyph glyph-name="f_f_i.liga" unicode="ffi" horiz-adv-x="1837" 
d="M213 807h-166v84l166 39v102q1 164 139 292t359 128q159 0 297 -90q116 90 266 90t246 -47l-33 -180h-45l-265 116q-151 -84 -151 -258v-155h381l139 18h80v-825l162 -47v-74h-488v72l136 45v690h-410v-686l149 -47v-74h-495v72l155 45v690h-430v-686l164 -47v-74h-510
v72l154 45v690zM835 1022q0 109 58 211q-154 98 -281 115q-90 -26 -148 -100t-59 -173v-147h430v94z" />
    <glyph glyph-name="f_j.liga" unicode="fj" horiz-adv-x="1138" 
d="M213 807h-166v84l166 39v92q0 168 125 299t319 131q146 0 240 -47l-33 -180h-45l-264 116q-152 -84 -152 -258v-155h381l137 18h82v-934q0 -278 -241 -465l-80 58q131 141 131 403v799h-410v-686l150 -47v-74h-496v72l156 45v690z" />
    <glyph glyph-name="f_f_j.liga" unicode="ffj" horiz-adv-x="1761" 
d="M1626 944v-881q0 -324 -236 -505l-71 53q114 165 114 397v799h-407v-686l149 -47v-74h-495v72l155 45v690h-430v-686l164 -47v-74h-510v72l154 45v690h-166v84l166 39v102q1 164 139 292t359 128q159 0 297 -90q116 90 266 90t246 -47l-33 -180h-45l-265 116
q-151 -84 -151 -258v-155h461l57 16h82zM835 1022q0 109 58 211q-154 98 -281 115q-90 -26 -148 -100t-59 -173v-147h430v94z" />
    <glyph glyph-name="f_k.liga" unicode="fk" horiz-adv-x="1714" 
d="M1196 928h428v-74l-115 -57l-264 -248l281 -412l153 -63v-74h-313l-297 477v37l270 285l-143 57v72zM405 1075v-147h205v-121h-205v-686l148 -47v-74h-494v72l154 45v690h-166v84l166 39v110q0 166 128 286t333 120q89 0 174 -23l59 17h113v-1319l153 -47v-74h-501v72
l155 49v1124l-266 88q-156 -86 -156 -258z" />
    <glyph glyph-name="f_f_k.liga" unicode="ffk" horiz-adv-x="2314" 
d="M1796 928h428v-74l-115 -57l-264 -248l281 -412l153 -63v-74h-313l-297 477v37l270 285l-143 57v72zM833 807h-428v-686l164 -47v-74h-510v72l154 45v690h-166v84l166 39v102q1 164 139 292t359 128q153 0 299 -90q120 84 284 84q74 0 160 -19l47 13h115v-1317l160 -49
v-74h-504v72l151 47v1134l-241 80q-156 -86 -156 -258v-147h205v-121h-205v-686l147 -47v-74h-493v72l153 45v690zM405 928h428v112q0 103 58 195q-166 98 -279 113q-90 -26 -148 -100t-59 -173v-147z" />
    <glyph glyph-name="f_f_l.liga" unicode="ffl" horiz-adv-x="1812" 
d="M833 807h-428v-686l164 -47v-74h-510v72l154 45v690h-166v84l166 39v102q1 164 139 292t359 128q153 0 299 -90q120 84 284 84q74 0 160 -19l47 13h115v-1317l160 -49v-74h-504v72l151 47v1134l-241 80q-156 -86 -156 -258v-147h205v-121h-205v-686l147 -47v-74h-493v72
l153 45v690zM405 928h428v112q0 103 58 195q-166 98 -279 113q-90 -26 -148 -100t-59 -173v-147z" />
    <glyph glyph-name="f_t.liga" unicode="ft" horiz-adv-x="1375" 
d="M1006 1169v-241h307v-125h-307v-531q3 -170 186 -170q62 0 133 21l19 -82q-118 -57 -258 -57q-279 0 -279 278v541h-402v-680l164 -49v-74h-510v72l154 47v684h-166v88l166 37v145q0 163 126 269t298 106q54 0 106 -12l-26 -181h-45l-195 64q-72 -84 -72 -223v-168h410
l68 241h123z" />
    <glyph glyph-name="f_f_t.liga" unicode="fft" horiz-adv-x="1995" 
d="M405 1075v-147h428v145q0 94 43 169q-152 90 -264 106q-90 -26 -148 -100t-59 -173zM1257 1448q54 0 106 -12l-26 -181h-45l-195 64q-72 -84 -72 -223v-168h410l68 241h123v-241h307v-125h-307v-531q3 -170 186 -170q62 0 133 21l19 -82q-118 -57 -258 -57
q-279 0 -279 278v541h-402v-680l164 -49v-74h-510v72l154 47v684h-428v-682l164 -47v-74h-510v72l154 45v686h-166v88l166 39v102q1 164 139 292t359 128q154 0 285 -82q112 78 261 78z" />
    <glyph glyph-name="uni0647.fina" unicode="&#x647;" horiz-adv-x="1134" arabic-form="final" 
d="M675 580q-55 0 -135 -110t-104 -262l46 1q249 12 334 149q-52 222 -141 222zM783 -418q-142 0 -266 108t-162 314l-24 -4q-53 0 -103 10l-200 185l10 24q160 -8 309 -10q35 243 157 417t230 175q82 1 138 -129t57 -221q0 -91 -99 -215q-6 -10 -28 -29h334l32 -6v-195
l-32 -6h-138q64 -60 64 -109v-5q0 -40 -47 -148t-64 -125q-26 -31 -168 -31zM818 -217q84 0 135 18q-47 236 -352 258q-73 0 -162 -30q92 -246 379 -246z" />
    <glyph glyph-name="uni0672.fina" unicode="&#x672;" horiz-adv-x="578" 
d="M159.5 1512q6.5 0 31 -23.5t53 -23.5t42.5 6q-36 26 -36 85.5t46.5 113.5t110.5 54t91 -76q15 -39 16 -76l-29 -7q-31 45 -84.5 45t-95.5 -45q27 -74 97.5 -74t151.5 29l9 -12l-47 -100q-209 -64 -282 -64t-103 65q-8 14 -8 15l-72 -110l-31 10q10 42 45 116q4 8 46 40
t48.5 32zM362 1294v-991q0 -63 61 -83q41 -13 156 -13l33 -6v-195l-33 -6q-212 0 -300.5 150.5t-90.5 527.5q0 88 -6 479l143 137h37z" />
    <glyph glyph-name="uni0673.fina" unicode="&#x673;" horiz-adv-x="564" 
d="M159.5 -276q6.5 0 31 -23.5t53 -23.5t42.5 7q-36 26 -36 85.5t46.5 113.5t110.5 54t91 -77q15 -38 16 -76l-29 -7q-31 46 -84.5 46t-95.5 -46q27 -73 97.5 -73t151.5 29l9 -12l-47 -100q-209 -65 -282.5 -65t-102.5 66q-8 13 -8 15l-72 -110l-31 10q10 42 45 115
q4 8 46 40t48.5 32zM346 1452v-1149q0 -63 60 -83q42 -13 159 -13l33 -6v-195l-33 -6q-213 0 -298.5 146.5t-88.5 525.5q0 88 -13 643l146 137h35z" />
    <glyph glyph-name="uni0675.fina" unicode="&#x675;" horiz-adv-x="918" 
d="M551 1334q-26 0 -143 97l6 32q96 0 119 5v2q-39 22 -39 94.5t51.5 138.5t124 66t103.5 -90q16 -46 18 -91l-33 -8q-29 47 -90 47t-115 -49q28 -84 114.5 -84t172.5 33l10 -14l-55 -119q-119 -60 -244 -60zM518 0q-189 0 -267 145q-86 148 -89 527q0 88 -12 643l145 137
h35v-1149q0 -63 71 -83q141 -13 518 -13l33 -6v-195l-33 -6h-401z" />
    <glyph glyph-name="uni0676.fina" unicode="&#x676;" horiz-adv-x="1060" 
d="M724 932q-26 0 -145 96l8 33q96 0 119 4v2q-41 23 -41 95t52.5 138t124.5 66t104 -90q15 -45 18 -90l-33 -8q-35 47 -94 47t-113 -49q28 -84 114.5 -84t172.5 32l10 -14l-53 -119q-119 -59 -244 -59zM309 -197q279 0 397 197h-217q-217 0 -280 84q-64 103 -64 201
q6 156 105 313.5t243 157.5q123 0 212.5 -169.5t97.5 -379.5h258l33 -6v-195l-33 -6h-277q-29 -154 -128.5 -274.5t-235.5 -120.5q-37 0 -167.5 71t-160.5 99l25 57q118 -29 192 -29zM448 555q-77 0 -141 -91.5t-84 -203.5q80 -53 266 -53h201v6q-26 124 -95.5 233
t-146.5 109z" />
    <glyph glyph-name="uni0677.fina" unicode="&#x677;" horiz-adv-x="1060" 
d="M266 1195.5q0 26.5 10 44.5q51 117 150 117q45 0 70.5 -44t25.5 -92.5t-20 -92.5l57 -10v-19l-57 -78q-34 3 -68 13q-97 -88 -207 -105l-127 68l4 20q168 10 258 45q-75 38 -90 76q-6 31 -6 57.5zM401 1261q-26 0 -56 -19.5t-32 -37.5q42 -40 127 -62l8 14l4 31
q0 74 -51 74zM724 932q-26 0 -145 96l8 33q96 0 119 4v2q-41 23 -41 95t52.5 138t124.5 66t104 -90q15 -45 18 -90l-33 -8q-35 47 -94 47t-113 -49q28 -84 114.5 -84t172.5 32l10 -14l-53 -119q-119 -59 -244 -59zM309 -197q279 0 397 197h-217q-217 0 -280 84
q-64 103 -64 201q6 156 105 313.5t243 157.5q123 0 212.5 -169.5t97.5 -379.5h258l33 -6v-195l-33 -6h-277q-29 -154 -128.5 -274.5t-235.5 -120.5q-37 0 -167.5 71t-160.5 99l25 57q118 -29 192 -29zM448 555q-77 0 -141 -91.5t-84 -203.5q80 -53 266 -53h201v6
q-26 124 -95.5 233t-146.5 109z" />
    <glyph glyph-name="uni0678.init" unicode="&#x678;" horiz-adv-x="780" 
d="M443 999q-26 0 -145 97l8 32q96 0 119 5v2q-41 23 -41 95t52.5 138t124.5 66t103 -91q16 -45 19 -90l-33 -8q-33 49 -90.5 49t-116.5 -49q32 -86 116.5 -86t170.5 33l10 -14l-53 -119q-119 -60 -244 -60zM416 348.5q0 -51.5 -3 -81t-64.5 -125t-97.5 -117.5
q-59 -25 -250 -25l-33 6v195l33 6q224 0 286 14q-24 195 -98 465l141 137h37l82 -227l-4 -23l-47 -49q18 -124 18 -175.5z" />
    <glyph glyph-name="uni0678.medi" unicode="&#x678;" horiz-adv-x="800" 
d="M657 0q-278 0 -380 135q-80 -101 -104 -112q-48 -23 -172 -23l-33 6v195l33 6q132 0 203 18q20 97 73 332l127 84l29 -8q-21 -302 -47 -381q65 -45 415 -45l33 -6v-195l-33 -6h-144zM488 795q-26 0 -143 96l6 33q96 0 119 4v2q-39 22 -39 94.5t51.5 138.5t124 66
t104.5 -90q16 -45 19 -90l-33 -9q-35 47 -94 47t-113 -49q28 -84 114.5 -84t172.5 33l10 -14l-53 -119q-119 -59 -246 -59z" />
    <glyph glyph-name="uni0678.fina" unicode="&#x678;" horiz-adv-x="1490" 
d="M100 -115q0 205 160 451l59 -33q-82 -168 -82 -274q0 -281 325.5 -281t549.5 121q-71 131 -279 131h-35l-6 10l62 191l12 6h625l33 -6v-195l-33 -6h-306q25 -35 25 -74t-33.5 -131t-56.5 -110q-216 -156 -590 -156q-223 0 -336 115q-94 95 -94 241zM1129 403
q-27 0 -144 98l7 33q96 0 118 4v2q-39 22 -39 94.5t51.5 138.5t124 66t105.5 -91q16 -46 18 -92l-34 -6q-30 47 -91 47t-114 -49q28 -86 123 -86q72 0 164 35l10 -14l-56 -119q-122 -61 -243 -61z" />
    <glyph glyph-name="uni067C.init" unicode="&#x67c;" horiz-adv-x="545" 
d="M404 1024q-62 46 -112 113q-52 -66 -119 -113q-76 57 -127 131q63 76 127 131q92 -76 119 -115q67 74 112 115q94 -76 131 -131q-51 -74 -131 -131zM199 -154q86 0 86 80q0 86 -86 86t-86 -86q0 -33 25.5 -56.5t60.5 -23.5zM44 -82q0 55 20 84q-22 -2 -63 -2l-33 6v195
l33 6q224 0 286 14q-24 195 -98 465l141 137h35l82 -227l-2 -23l-47 -49q16 -137 16 -184.5t-2 -63.5q-4 -79 -129 -219q70 -43 70 -118.5t-44 -120.5t-108.5 -45t-110.5 45t-46 100z" />
    <glyph glyph-name="uni067C.medi" unicode="&#x67c;" horiz-adv-x="690" 
d="M340 -72q0 -70 -45.5 -115t-109.5 -45t-109.5 45t-45.5 99t20 88h-49l-33 6v195l33 6q212 0 283 18q20 97 73 332l127 84l29 -8q-21 -302 -47 -381q65 -45 225 -45l33 -6v-195l-33 -6h-14q-218 0 -320 135q-49 -62 -77 -90q60 -47 60 -117zM507 838q-53 39 -114 112
q-51 -65 -117 -112q-78 55 -127 131q64 75 127 131q92 -76 117 -115q67 74 114 115q93 -76 129 -131q-49 -76 -129 -131zM99 -80q0 -34 25.5 -57t60.5 -23q86 0 86 80q0 85 -83 86q-3 0 -6 -1l-25 -6q-58 -17 -58 -79z" />
    <glyph glyph-name="uni067C.fina" unicode="&#x67c;" horiz-adv-x="1620" 
d="M729 -172q86 0 86 82t-86 82t-86 -82t86 -82zM882 -94.5q0 -61.5 -43 -106.5t-107 -45t-110.5 45.5t-46.5 104.5t31 96q-506 7 -506 365q0 204 160 442l57 -31q-82 -182 -82 -291q0 -278 428 -278q283 0 553 37q21 98 70 313l129 88l28 -12q-26 -312 -47 -381
q65 -45 226 -45l32 -6v-195l-32 -6q-252 0 -344 145q-72 -82 -99 -96q-106 -32 -329 -43q32 -39 32 -100.5zM897 678q-54 39 -115 113q-51 -66 -117 -113q-76 57 -127 131q64 76 127 131q92 -76 117 -115q75 83 115 115q92 -76 131 -131q-51 -74 -131 -131z" />
    <glyph glyph-name="uni067D.init" unicode="&#x67d;" horiz-adv-x="539" 
d="M401 1149q-62 -70 -119 -121q-84 68 -121 121q47 68 121 123q67 -55 119 -123zM282 1368q-86 -86 -111 -115q-92 74 -129 129q51 72 129 127q65 -48 111 -110q49 63 115 110q73 -55 122 -127q-61 -75 -122 -129q-109 111 -115 115zM416 348.5q0 -51.5 -3 -81t-64.5 -125
t-97.5 -117.5q-59 -25 -250 -25l-33 6v195l33 6q224 0 286 14q-24 195 -98 465l141 137h37l82 -227l-4 -23l-47 -49q18 -124 18 -175.5z" />
    <glyph glyph-name="uni067D.medi" unicode="&#x67d;" horiz-adv-x="610" 
d="M597 0q-218 0 -320 135q-80 -101 -104 -112q-48 -23 -172 -23l-33 6v195l33 6q132 0 203 18q20 97 73 332l127 84l29 -8q-21 -302 -47 -381q65 -45 225 -45l33 -6v-195l-33 -6h-14zM457 963q-61 -70 -118 -121q-84 67 -121 121q45 69 121 122q67 -53 118 -122zM339 1184
q-58 -62 -113 -117q-90 76 -127 129q51 72 127 127q42 -30 113 -109q49 62 114 109q74 -55 123 -127q-61 -74 -123 -129z" />
    <glyph glyph-name="uni067D.fina" unicode="&#x67d;" horiz-adv-x="1620" 
d="M624 0q-524 0 -524 365q0 204 160 442l57 -31q-82 -182 -82 -291q0 -278 428 -278q283 0 553 37q21 98 70 313l129 88l28 -12q-26 -312 -47 -381q65 -45 226 -45l32 -6v-195l-32 -6q-252 0 -344 145q-72 -82 -99 -96q-155 -49 -555 -49zM901 815q-62 -72 -119 -123
q-86 68 -121 123q45 68 121 121q66 -53 119 -121zM782 1034q-100 -100 -113 -114q-90 73 -127 129q50 69 127 125q61 -46 113 -109q49 63 115 109q71 -56 123 -125q-62 -76 -123 -129q-111 108 -115 114z" />
    <glyph glyph-name="uni0681.init" unicode="&#x681;" horiz-adv-x="1308" 
d="M161 0h-160l-33 6v195l33 6h237q224 0 428 90q116 53 144 61q-111 36 -246 111l-250 141l-186 -127l-43 47q182 258 280 258q23 0 301 -153q226 -129 385 -129h168l9 -27l-66 -155h-162q-31 -5 -375 -201q-205 -123 -464 -123zM541 901q-26 0 -143 96l6 33q96 0 119 4v2
q-39 23 -39 95.5t51.5 138t124 65.5t104.5 -90q17 -45 19 -90l-33 -8q-32 49 -90 49t-117 -49q28 -86 114.5 -86t172.5 33l10 -15l-53 -118q-119 -60 -246 -60z" />
    <glyph glyph-name="uni0681.medi" unicode="&#x681;" horiz-adv-x="1327" 
d="M161 0h-160l-33 6v195l33 6h237q230 0 430 92q107 49 142 59q-115 39 -246 111l-250 141l-186 -127l-43 47q182 258 280 258q23 0 301 -153q226 -129 385 -129h164l8 -27l-67 -155l-101 -7q5 -110 130 -110h143l33 -6v-195l-33 -6h-152q-203 0 -203 217q0 44 9 98
q-37 -8 -357 -192q-205 -123 -464 -123zM541 901q-26 0 -143 96l6 33q96 0 119 4v2q-39 23 -39 95.5t51.5 138t124 65.5t104.5 -90q17 -45 19 -90l-33 -8q-32 49 -90 49t-117 -49q28 -86 114.5 -86t172.5 33l10 -15l-53 -118q-119 -60 -246 -60z" />
    <glyph glyph-name="uni0681.fina" unicode="&#x681;" horiz-adv-x="1326" 
d="M1226 0q-265 0 -265 275q0 79 30 188q-283 -88 -549 -307q-169 -142 -203 -306q141 -251 670 -251q117 0 354 22l13 -43q-319 -205 -451 -205q-257 0 -439 102q-153 87 -194 206q-44 108 -44 218q0 13 1 27q46 310 418 518q53 27 188 39l2 11q-110 10 -259 41t-195 34
l-160 -141l-43 37q158 295 231 295q42 0 275.5 -47t392.5 -47h213l8 -25l-65 -162l-101 2q-2 -36 -2 -96.5t22 -104.5q38 -73 159 -73h94l33 -6v-195l-33 -6h-101zM608 940q-27 0 -146 96l9 33q96 0 118 4v2q-40 24 -40 96t52 137.5t124 65.5t104 -90q16 -45 19 -90l-33 -8
q-36 47 -94.5 47t-112.5 -49q28 -84 114 -84t173 33l10 -15l-53 -119q-119 -59 -244 -59z" />
    <glyph glyph-name="uni0682.init" unicode="&#x682;" horiz-adv-x="1308" 
d="M498 1065q76 92 115 117q-74 67 -115 114q76 93 132 129q73 -49 131 -129q-39 -53 -113 -114q66 -51 113 -117q-58 -78 -131 -127q-76 61 -132 127zM161 0h-160l-33 6v195l33 6h237q224 0 428 90q116 53 144 61q-111 36 -246 111l-250 141l-186 -127l-43 47
q182 258 280 258q23 0 301 -153q226 -129 385 -129h168l9 -27l-66 -155h-162q-31 -5 -375 -201q-205 -123 -464 -123z" />
    <glyph glyph-name="uni0682.medi" unicode="&#x682;" horiz-adv-x="1327" 
d="M500 1065q76 92 115 117q-74 67 -115 114q76 93 132 129q73 -49 131 -129q-39 -53 -113 -114q66 -51 113 -117q-58 -78 -131 -127q-76 61 -132 127zM161 0h-160l-33 6v195l33 6h237q230 0 430 92q107 49 142 59q-115 39 -246 111l-250 141l-186 -127l-43 47
q182 258 280 258q23 0 301 -153q226 -129 385 -129h164l8 -27l-67 -155l-101 -7q5 -110 130 -110h143l33 -6v-195l-33 -6h-152q-203 0 -203 217q0 44 9 98q-37 -8 -357 -192q-205 -123 -464 -123z" />
    <glyph glyph-name="uni0682.fina" unicode="&#x682;" horiz-adv-x="1326" 
d="M568 1049q76 92 115 117q-74 67 -115 114q76 93 132 129q73 -49 131 -129q-39 -53 -113 -114q66 -51 113 -117q-58 -78 -131 -127q-76 61 -132 127zM1226 0q-265 0 -265 275q0 79 30 188q-283 -88 -549 -307q-169 -142 -203 -306q141 -251 670 -251q117 0 354 22l13 -43
q-319 -205 -451 -205q-257 0 -439 102q-153 87 -194 206q-44 108 -44 218q0 13 1 27q46 310 418 518q53 27 188 39l2 11q-110 10 -259 41t-195 34l-160 -141l-43 37q158 295 231 295q42 0 275.5 -47t392.5 -47h213l8 -25l-65 -162l-101 2q-2 -36 -2 -96.5t22 -104.5
q38 -73 159 -73h94l33 -6v-195l-33 -6h-101z" />
    <glyph glyph-name="uni0685.init" unicode="&#x685;" horiz-adv-x="1308" 
d="M161 0h-160l-33 6v195l33 6h237q224 0 428 90q116 53 144 61q-111 36 -246 111l-250 141l-186 -127l-43 47q182 258 280 258q23 0 301 -153q226 -129 385 -129h168l9 -27l-66 -155h-162q-31 -5 -375 -201q-205 -123 -464 -123zM802 903q-58 44 -111 109
q-51 -62 -117 -109q-71 55 -123 127q62 74 123 129l117 -117q111 120 113 120l-2 -3q90 -76 127 -129q-50 -72 -127 -127zM572 1264q62 69 119 120q84 -67 121 -120q-47 -70 -121 -123q-68 53 -119 123z" />
    <glyph glyph-name="uni0685.medi" unicode="&#x685;" horiz-adv-x="1327" 
d="M161 0h-160l-33 6v195l33 6h237q230 0 430 92q107 49 142 59q-115 39 -246 111l-250 141l-186 -127l-43 47q182 258 280 258q23 0 301 -153q226 -129 385 -129h164l8 -27l-67 -155l-101 -7q5 -110 130 -110h143l33 -6v-195l-33 -6h-152q-203 0 -203 217q0 44 9 98
q-37 -8 -357 -192q-205 -123 -464 -123zM802 903q-58 44 -111 109q-51 -62 -117 -109q-71 55 -123 127q62 74 123 129l117 -117q111 120 113 120l-2 -3q90 -76 127 -129q-50 -72 -127 -127zM572 1264q62 69 119 120q84 -67 121 -120q-47 -70 -121 -123q-68 53 -119 123z" />
    <glyph glyph-name="uni0685.fina" unicode="&#x685;" horiz-adv-x="1326" 
d="M1226 0q-265 0 -265 275q0 79 30 188q-283 -88 -549 -307q-169 -142 -203 -306q141 -251 670 -251q117 0 354 22l13 -43q-319 -205 -451 -205q-257 0 -439 102q-153 87 -194 206q-44 108 -44 218q0 13 1 27q46 310 418 518q53 27 188 39l2 11q-110 10 -259 41t-195 34
l-160 -141l-43 37q158 295 231 295q42 0 275.5 -47t392.5 -47h213l8 -25l-65 -162l-101 2q-2 -36 -2 -96.5t22 -104.5q38 -73 159 -73h94l33 -6v-195l-33 -6h-101zM798 948q-45 35 -112 109q-49 -62 -115 -109q-72 56 -123 127q62 76 123 129l115 -114q18 17 62 62l50 52
q90 -76 127 -129q-51 -71 -127 -127zM567 1309q61 69 119 121q86 -68 121 -121q-45 -68 -121 -123q-66 55 -119 123z" />
    <glyph glyph-name="uni0689.fina" unicode="&#x689;" horiz-adv-x="1020" 
d="M995 0q-159 0 -244 158l-96 -127q-11 -6 -66 -13q46 -45 46 -111.5t-43.5 -110.5t-108 -44t-111.5 44.5t-47 103t35 100.5q-260 0 -260 201q0 124 70 254l61 -19q-20 -69 -20 -121t36.5 -80t174 -28t301.5 10q-9 23 -242 596l121 154h37l155 -500q69 -194 95.5 -227
t132.5 -33l32 -6v-195l-32 -6h-27zM483 -174q84 0 84 78q0 86 -86 86t-86 -86q0 -33 25.5 -55.5t62.5 -22.5z" />
    <glyph glyph-name="uni068A.fina" unicode="&#x68a;" horiz-adv-x="1020" 
d="M995 0q-159 0 -244 158l-96 -127q-84 -31 -293 -31q-262 0 -262 201q0 124 70 254l61 -19q-20 -69 -20 -121t36.5 -80t174 -28t301.5 10q-9 23 -242 596l121 154h37l155 -500q69 -194 95.5 -227t132.5 -33l32 -6v-195l-32 -6h-27zM346 -260q61 76 125 129
q90 -74 129 -129q-49 -74 -129 -129q-76 55 -125 129z" />
    <glyph glyph-name="uni068B.fina" unicode="&#x68b;" horiz-adv-x="1020" 
d="M346 -260q61 76 125 129q90 -74 129 -129q-49 -74 -129 -129q-76 55 -125 129zM995 0q-159 0 -244 158l-96 -127q-84 -31 -293 -31q-262 0 -262 201q0 124 70 254l61 -19q-20 -69 -20 -121t36.5 -80t174 -28t301.5 10q-9 23 -242 596l121 154h37l155 -500
q69 -194 95.5 -227t132.5 -33l32 -6v-195l-32 -6h-27zM686 1506q53 0 101 -63t48 -124q0 -21 -34 -73t-51 -63q-55 -35 -159 -35t-171 13l-123 96l5 18l125 -7l18 28q-18 182 -23 281l-17 47l84 80l18 -11v-35l46 -80l-34 -35l-2 -86q0 -18 -33 -101q113 150 202 150z
M662 1383q-72 0 -180 -116q40 -2 136 -2t158 24q-42 94 -114 94z" />
    <glyph glyph-name="uni068F.fina" unicode="&#x68f;" horiz-adv-x="1020" 
d="M995 0q-159 0 -244 158l-96 -127q-84 -31 -293 -31q-262 0 -262 201q0 124 70 254l61 -19q-20 -69 -20 -121t36.5 -80t174 -28t301.5 10q-9 23 -242 596l121 154h37l155 -500q69 -194 95.5 -227t132.5 -33l32 -6v-195l-32 -6h-27zM675 1262q-61 -70 -118 -121
q-84 67 -121 121q45 67 121 122q67 -55 118 -122zM557 1481l-113 -115q-90 76 -127 129q51 72 127 127q42 -30 113 -109q49 62 114 109q74 -55 123 -127q-61 -76 -123 -129q-108 111 -114 115z" />
    <glyph glyph-name="uni0690.fina" unicode="&#x690;" horiz-adv-x="1020" 
d="M653 1412l-106 105l-102 -105l102 -104zM549 1283q-33 -43 -113 -108q-76 61 -123 123q23 32 113 114q-83 71 -113 115q19 25 123 123q83 -63 111 -111q16 19 115 111q77 -59 120 -123q-30 -48 -110 -115q91 -84 110 -114q-37 -59 -120 -123q-88 67 -113 108zM995 0
q-159 0 -244 158l-96 -127q-84 -31 -293 -31q-262 0 -262 201q0 124 70 254l61 -19q-20 -69 -20 -121t36.5 -80t174 -28t301.5 10q-9 23 -242 596l121 154h37l155 -500q69 -194 95.5 -227t132.5 -33l32 -6v-195l-32 -6h-27z" />
    <glyph glyph-name="uni0692.fina" unicode="&#x692;" horiz-adv-x="882" 
d="M859 0q-94 0 -190 84q-12 -139 -105 -294q-110 -185 -244 -185q-35 0 -160 69t-157 97l25 57q94 -25 159 -25q271 0 394 363q-11 26 -136 307l131 158h29l47 -195q39 -149 76.5 -189t155.5 -40l32 -6v-195l-32 -6h-25zM470 840l-8 6q-45 128 -180 233l65 131l12 4
q103 -93 168 -268q45 134 154 264l14 -2l49 -104q-128 -135 -170 -264h-104z" />
    <glyph glyph-name="uni0693.fina" unicode="&#x693;" horiz-adv-x="882" 
d="M859 0q-94 0 -190 84q-12 -111 -74 -236l22 2q67 0 109.5 -43t42.5 -108.5t-43 -110.5t-109 -45q-124 0 -153 123q-68 -61 -144 -61q-35 0 -160 69t-157 97l25 57q94 -25 159 -25q271 0 394 363q-11 26 -136 307l131 158h29l47 -195q39 -149 76.5 -189t155.5 -40l32 -6
v-195l-32 -6h-25zM617 -383q86 0 86 80q0 86 -86 86t-86 -86q0 -80 86 -80z" />
    <glyph glyph-name="uni0694.fina" unicode="&#x694;" horiz-adv-x="882" 
d="M859 0q-94 0 -190 84q-12 -139 -105 -294q-110 -185 -244 -185q-35 0 -160 69t-157 97l25 57q94 -25 159 -25q271 0 394 363q-11 26 -136 307l131 158h29l47 -195q39 -149 76.5 -189t155.5 -40l32 -6v-195l-32 -6h-25zM251 -657q63 75 127 131q90 -76 127 -131
q-49 -74 -127 -129q-78 55 -127 129z" />
    <glyph glyph-name="uni0695.fina" unicode="&#x695;" horiz-adv-x="882" 
d="M859 0q-94 0 -190 84q-12 -139 -105 -294q-110 -185 -244 -185q-35 0 -160 69t-157 97l25 57q94 -25 159 -25q271 0 394 363q-11 26 -136 307l131 158h29l47 -195q39 -149 76.5 -189t155.5 -40l32 -6v-195l-32 -6h-25zM380 -897l-8 8q-45 128 -181 234l66 131l12 4
q104 -97 168 -268q45 134 154 264l14 -2l47 -105q-125 -136 -168 -266h-104z" />
    <glyph glyph-name="uni0696.fina" unicode="&#x696;" horiz-adv-x="879" 
d="M856 0q-94 0 -190 84q-12 -139 -105 -294q-110 -185 -244 -185q-35 0 -160 69t-157 97l25 57q94 -25 159 -25q271 0 394 363q-11 26 -136 307l131 158h29l47 -195q39 -149 76.5 -189t155.5 -40l32 -6v-195l-32 -6h-25zM584 -487q61 77 127 131q88 -76 127 -131
q-50 -74 -127 -127q-78 53 -127 127zM92 231q62 76 125 129q90 -73 129 -129q-49 -73 -129 -129q-76 56 -125 129z" />
    <glyph glyph-name="uni0697.fina" unicode="&#x697;" horiz-adv-x="882" 
d="M859 0q-94 0 -190 84q-12 -139 -105 -294q-110 -185 -244 -185q-35 0 -160 69t-157 97l25 57q94 -25 159 -25q271 0 394 363q-11 26 -136 307l131 158h29l47 -195q39 -149 76.5 -189t155.5 -40l32 -6v-195l-32 -6h-25zM630 844q-53 38 -113 110q-49 -63 -115 -110
q-73 55 -123 127q62 76 123 129l115 -115q19 17 63 63l50 52q90 -74 127 -129q-52 -72 -127 -127z" />
    <glyph glyph-name="uni0699.fina" unicode="&#x699;" horiz-adv-x="882" 
d="M859 0q-94 0 -190 84q-12 -139 -105 -294q-110 -185 -244 -185q-35 0 -160 69t-157 97l25 57q98 -25 159 -25q271 0 394 363q-11 26 -136 307l131 158h29l47 -195q39 -149 76.5 -189t155.5 -40l32 -6v-195l-32 -6h-25zM632 1071l-107 107l-104 -107l104 -104zM525 942
q-37 -52 -112 -108q-77 61 -123 122q15 26 112 115q-80 68 -112 117q36 44 123 121q74 -52 112 -109q44 47 115 109q70 -49 123 -121q-33 -50 -113 -117q81 -70 113 -115q-37 -56 -123 -122q-71 54 -115 108z" />
    <glyph glyph-name="uni069A.init" unicode="&#x69a;" horiz-adv-x="1402" 
d="M636 -297q61 76 127 131q88 -76 127 -131q-50 -74 -127 -129q-78 55 -127 129zM1131 -25q-184 0 -391 162q-75 -137 -251.5 -137t-256.5 117q-88 -117 -231 -117l-33 6v195l33 6q102 0 174 14l67 203l113 76l27 -15q-19 -146 -37 -249q72 -29 156.5 -29t154.5 12l84 309
l115 76l26 -14q-6 -115 -36 -320q144 -84 331 -108l-57 475l145 119h37q21 -377 21 -539q0 -42 -77 -142t-114 -100zM679 958q61 78 127 132q90 -76 127 -132q-50 -71 -127 -127q-78 56 -127 127z" />
    <glyph glyph-name="uni069A.medi" unicode="&#x69a;" horiz-adv-x="1501" 
d="M642 -297q61 76 125 131q90 -76 129 -131q-49 -74 -129 -129q-76 55 -125 129zM1443 0q-150 0 -215 135q-72 -135 -246 -135t-254 117q-70 -117 -243 -117t-253 117q-88 -117 -231 -117l-33 6v195l33 6q102 0 174 14l67 203l113 76l27 -15q-19 -146 -37 -249
q73 -29 157 -29t154 12l84 309l115 76l26 -14q-15 -196 -43 -350q70 -33 168 -33t172 18q-16 113 -36 336l149 113h37v-367q0 -63 16 -81t94 -19h64l33 -6v-195l-33 -6h-59zM679 958q61 78 127 132q90 -76 127 -132q-50 -71 -127 -127q-78 56 -127 127z" />
    <glyph glyph-name="uni069A.fina" unicode="&#x69a;" horiz-adv-x="2198" 
d="M1339 -297q61 76 125 131q90 -76 129 -131q-49 -74 -129 -129q-76 55 -125 129zM100 -39q0 203 160 451l55 -27q-78 -188 -78 -303q0 -266 324 -266q244 0 391 98q-35 225 -80 551l158 127h37l12 -367q52 -18 128.5 -18t145.5 12l84 309l115 76l27 -14q-16 -196 -43 -350
q69 -33 167.5 -33t172.5 18q-17 113 -35 336l147 113h37v-367q0 -63 16.5 -81.5t94.5 -18.5h63l33 -6v-195l-33 -6h-59q-149 0 -215 135q-73 -135 -246.5 -135t-253.5 117q-69 -117 -248 -117q-61 0 -100 23l-4 -37q-19 -116 -113 -238q-140 -143 -442 -143q-227 0 -334 114
q-84 91 -84 242zM1376 965q63 75 127 131q90 -76 127 -131q-49 -74 -127 -129q-78 55 -127 129z" />
    <glyph glyph-name="uni069B.init" unicode="&#x69b;" horiz-adv-x="1402" 
d="M907 -530q-62 -70 -119 -121q-84 67 -121 121q45 69 121 122q68 -53 119 -122zM788 -309q-57 -62 -113 -117q-90 76 -127 129q52 72 127 127q42 -30 113 -109q49 62 115 109q74 -55 123 -127q-62 -74 -123 -129zM1131 -25q-184 0 -391 162q-75 -137 -251.5 -137
t-256.5 117q-88 -117 -231 -117l-33 6v195l33 6q102 0 174 14l67 203l113 76l27 -15q-19 -146 -37 -249q72 -29 156.5 -29t154.5 12l84 309l115 76l26 -14q-6 -115 -36 -320q144 -84 331 -108l-57 475l145 119h37q21 -377 21 -539q0 -42 -77 -142t-114 -100z" />
    <glyph glyph-name="uni069B.medi" unicode="&#x69b;" horiz-adv-x="1501" 
d="M907 -530q-62 -70 -119 -121q-84 67 -121 121q45 69 121 122q68 -53 119 -122zM788 -309q-57 -62 -113 -117q-90 76 -127 129q52 72 127 127q42 -30 113 -109q49 62 115 109q74 -55 123 -127q-62 -74 -123 -129zM1443 0q-150 0 -215 135q-72 -135 -246 -135t-254 117
q-70 -117 -243 -117t-253 117q-88 -117 -231 -117l-33 6v195l33 6q102 0 174 14l67 203l113 76l27 -15q-19 -146 -37 -249q73 -29 157 -29t154 12l84 309l115 76l26 -14q-15 -196 -43 -350q70 -33 168 -33t172 18q-16 113 -36 336l149 113h37v-367q0 -63 16 -81t94 -19h64
l33 -6v-195l-33 -6h-59z" />
    <glyph glyph-name="uni069B.fina" unicode="&#x69b;" horiz-adv-x="2198" 
d="M1627 -530q-62 -70 -119 -121q-84 67 -121 121q45 69 121 122q68 -53 119 -122zM1508 -309q-57 -62 -113 -117q-90 76 -127 129q52 72 127 127q42 -30 113 -109q49 62 115 109q74 -55 123 -127q-62 -74 -123 -129zM100 -39q0 203 160 451l55 -27q-78 -188 -78 -303
q0 -266 324 -266q244 0 391 98q-35 225 -80 551l158 127h37l12 -367q52 -18 128.5 -18t145.5 12l84 309l115 76l27 -14q-16 -196 -43 -350q69 -33 167.5 -33t172.5 18q-17 113 -35 336l147 113h37v-367q0 -63 16.5 -81.5t94.5 -18.5h63l33 -6v-195l-33 -6h-59
q-149 0 -215 135q-73 -135 -246.5 -135t-253.5 117q-69 -117 -248 -117q-61 0 -100 23l-4 -37q-19 -116 -113 -238q-140 -143 -442 -143q-227 0 -334 114q-84 91 -84 242z" />
    <glyph glyph-name="uni069C.init" unicode="&#x69c;" horiz-adv-x="1402" 
d="M907 -530q-62 -70 -119 -121q-84 67 -121 121q45 69 121 122q68 -53 119 -122zM788 -309q-57 -62 -113 -117q-90 76 -127 129q52 72 127 127q42 -30 113 -109q49 62 115 109q74 -55 123 -127q-62 -74 -123 -129zM1131 -25q-184 0 -391 162q-75 -137 -251.5 -137
t-256.5 117q-88 -117 -231 -117l-33 6v195l33 6q102 0 174 14l67 203l113 76l27 -15q-19 -146 -37 -249q72 -29 156.5 -29t154.5 12l84 309l115 76l26 -14q-6 -115 -36 -320q144 -84 331 -108l-57 475l145 119h37q21 -377 21 -539q0 -42 -77 -142t-114 -100zM904 809
q-45 34 -113 109q-49 -62 -114 -109q-72 55 -123 127q61 74 123 129q110 -111 114 -117q88 88 113 117q90 -76 127 -129q-49 -72 -127 -127zM673 1169q61 70 118 121q86 -67 121 -121q-45 -69 -121 -122q-65 53 -118 122z" />
    <glyph glyph-name="uni069C.medi" unicode="&#x69c;" horiz-adv-x="1501" 
d="M907 -530q-62 -70 -119 -121q-84 67 -121 121q45 69 121 122q68 -53 119 -122zM788 -309q-57 -62 -113 -117q-90 76 -127 129q52 72 127 127q42 -30 113 -109q49 62 115 109q74 -55 123 -127q-62 -74 -123 -129zM1443 0q-150 0 -215 135q-72 -135 -246 -135t-254 117
q-70 -117 -243 -117t-253 117q-88 -117 -231 -117l-33 6v195l33 6q102 0 174 14l67 203l113 76l27 -15q-19 -146 -37 -249q73 -29 157 -29t154 12l84 309l115 76l26 -14q-15 -196 -43 -350q70 -33 168 -33t172 18q-16 113 -36 336l149 113h37v-367q0 -63 16 -81t94 -19h64
l33 -6v-195l-33 -6h-59zM900 809q-45 34 -113 109q-49 -62 -114 -109q-72 55 -123 127q61 74 123 129l116 -117q112 120 113 120l-2 -3q90 -76 127 -129q-49 -72 -127 -127zM668 1169q64 70 119 121q86 -67 121 -121q-45 -69 -121 -122q-65 53 -119 122z" />
    <glyph glyph-name="uni069C.fina" unicode="&#x69c;" horiz-adv-x="2198" 
d="M1627 -530q-62 -70 -119 -121q-84 67 -121 121q45 69 121 122q68 -53 119 -122zM1508 -309q-57 -62 -113 -117q-90 76 -127 129q52 72 127 127q42 -30 113 -109q49 62 115 109q74 -55 123 -127q-62 -74 -123 -129zM100 -39q0 203 160 451l55 -27q-78 -188 -78 -303
q0 -266 324 -266q244 0 391 98q-35 225 -80 551l158 127h37l12 -367q52 -18 128.5 -18t145.5 12l84 309l115 76l27 -14q-16 -196 -43 -350q69 -33 167.5 -33t172.5 18q-17 113 -35 336l147 113h37v-367q0 -63 16.5 -81.5t94.5 -18.5h63l33 -6v-195l-33 -6h-59
q-149 0 -215 135q-73 -135 -246.5 -135t-253.5 117q-69 -117 -248 -117q-61 0 -100 23l-4 -37q-19 -116 -113 -238q-140 -143 -442 -143q-227 0 -334 114q-84 91 -84 242zM1624 809q-58 44 -111 109q-49 -62 -115 -109q-73 55 -124 127q61 74 124 129l115 -117
q112 120 113 120l-2 -3q90 -76 127 -129q-49 -72 -127 -127zM1394 1169q62 70 119 121q84 -67 121 -121q-47 -69 -121 -122q-67 53 -119 122z" />
    <glyph glyph-name="uni069D.init" unicode="&#x69d;" horiz-adv-x="1559" 
d="M965 -309q-57 -62 -113 -117q-90 76 -127 129q52 72 127 127q42 -30 113 -109q49 62 115 109q74 -55 123 -127q-62 -74 -123 -129zM720 0q-337 0 -471 139q-97 -139 -248 -139l-33 6v195l33 6q102 0 174 14q29 94 67 207l113 76l27 -12q-15 -121 -29 -211q43 -33 109 -48
q303 594 643 594q144 0 259 -155.5t115 -287.5t-125.5 -258t-594.5 -126h-39zM1047 612q-226 0 -493 -395q92 -10 194 -10l86 2q369 6 539 102q-49 128 -138 214.5t-188 86.5z" />
    <glyph glyph-name="uni069D.medi" unicode="&#x69d;" horiz-adv-x="1605" 
d="M965 -309q-57 -62 -113 -117q-90 76 -127 129q52 72 127 127q42 -30 113 -109q49 62 115 109q74 -55 123 -127q-62 -74 -123 -129zM1467 0q-78 0 -158 96q-187 -96 -550 -96h-39q-337 0 -471 139q-97 -139 -248 -139l-33 6v195l33 6q102 0 174 14q29 94 67 207l113 76
l27 -12q-15 -121 -29 -211q43 -33 109 -48q303 594 643 594q144 0 259 -155.5t115 -282.5q0 -67 -67 -182h194l33 -6v-195l-33 -6h-139zM1047 612q-226 0 -493 -395q92 -10 194 -10l86 2q369 6 539 102q-49 128 -138 214.5t-188 86.5z" />
    <glyph glyph-name="uni069D.fina" unicode="&#x69d;" horiz-adv-x="2251" 
d="M1615 -309q-57 -62 -113 -117q-90 76 -127 129q52 72 127 127q42 -30 113 -109q49 62 115 109q74 -55 123 -127q-62 -74 -123 -129zM100 -39q0 203 160 451l55 -27q-78 -188 -78 -303q0 -266 324 -266q244 0 391 98q-35 225 -80 551l158 127h37l12 -352q10 -4 31 -9
q304 596 643 596q144 0 260.5 -155.5t116.5 -282.5q0 -63 -70 -182h192l33 -6v-195l-33 -6h-137q-78 0 -157 96q-193 -96 -549 -96h-39q-205 0 -291 55q-4 -60 -6 -69q-19 -116 -113 -238q-140 -143 -442 -143q-227 0 -334 114q-84 91 -84 242zM1695 612q-223 0 -491 -395
q116 -10 192 -10l88 2q369 6 539 102q-48 128 -137.5 214.5t-190.5 86.5z" />
    <glyph glyph-name="uni069E.init" unicode="&#x69e;" horiz-adv-x="1559" 
d="M1024 1012q-58 44 -111 109q-49 -62 -115 -109q-73 55 -124 127q61 74 124 129l115 -117q111 120 113 120l-2 -3q90 -76 127 -129q-49 -72 -127 -127zM794 1373q62 69 119 120q84 -67 121 -120q-47 -70 -121 -123q-67 53 -119 123zM720 0q-337 0 -471 139
q-97 -139 -248 -139l-33 6v195l33 6q102 0 174 14q29 94 67 207l113 76l27 -12q-15 -121 -29 -211q43 -33 109 -48q303 594 643 594q144 0 259 -155.5t115 -287.5t-125.5 -258t-594.5 -126h-39zM1047 612q-226 0 -493 -395q92 -10 194 -10l86 2q369 6 539 102
q-49 128 -138 214.5t-188 86.5z" />
    <glyph glyph-name="uni069E.medi" unicode="&#x69e;" horiz-adv-x="1605" 
d="M1027 1009q-58 44 -111 109q-49 -62 -115 -109q-73 55 -124 127q61 74 124 129l115 -117q111 120 113 120l-2 -3q90 -76 127 -129q-49 -72 -127 -127zM797 1370q62 69 119 120q84 -67 121 -120q-47 -70 -121 -123q-67 53 -119 123zM1467 0q-78 0 -158 96
q-187 -96 -550 -96h-39q-337 0 -471 139q-97 -139 -248 -139l-33 6v195l33 6q102 0 174 14q29 94 67 207l113 76l27 -12q-15 -121 -29 -211q43 -33 109 -48q303 594 643 594q144 0 259 -155.5t115 -282.5q0 -67 -67 -182h194l33 -6v-195l-33 -6h-139zM1047 612
q-226 0 -493 -395q92 -10 194 -10l86 2q369 6 539 102q-49 128 -138 214.5t-188 86.5z" />
    <glyph glyph-name="uni069E.fina" unicode="&#x69e;" horiz-adv-x="2251" 
d="M1658 1006q-58 44 -111 109q-49 -62 -115 -109q-73 55 -124 127q61 74 124 129l115 -117q111 120 113 120l-2 -3q90 -76 127 -129q-49 -72 -127 -127zM1428 1367q62 69 119 120q84 -67 121 -120q-47 -70 -121 -123q-67 53 -119 123zM100 -39q0 203 160 451l55 -27
q-78 -188 -78 -303q0 -266 324 -266q244 0 391 98q-35 225 -80 551l158 127h37l12 -352q10 -4 31 -9q304 596 643 596q144 0 260.5 -155.5t116.5 -282.5q0 -63 -70 -182h192l33 -6v-195l-33 -6h-137q-78 0 -157 96q-193 -96 -549 -96h-39q-205 0 -291 55q-4 -60 -6 -69
q-19 -116 -113 -238q-140 -143 -442 -143q-227 0 -334 114q-84 91 -84 242zM1695 612q-223 0 -491 -395q116 -10 192 -10l88 2q369 6 539 102q-48 128 -137.5 214.5t-190.5 86.5z" />
    <glyph glyph-name="uni069F.init" unicode="&#x69f;" horiz-adv-x="1215" 
d="M844 949q-45 34 -113 109q-49 -62 -114 -109q-72 55 -123 127q61 74 123 129q110 -111 114 -117q88 88 113 117q90 -76 127 -129q-49 -72 -127 -127zM613 1309q61 70 118 121q86 -67 121 -121q-45 -69 -121 -122q-65 53 -118 122zM695 612q-227 0 -494 -405h242l47 2
q364 6 537 102q-47 127 -138 214t-194 87zM376 764q0 -70 -64 -213l10 -8q224 284 441 284q144 0 258 -155t114 -283q0 -47 -47 -139t-80 -125q-125 -125 -594 -125h-413l-33 6v195l33 6h110q51 100 109 192l-9 321q-9 297 -12 423l-49 127l187 182l41 -29v-100l92 -166
l-94 -100v-293z" />
    <glyph glyph-name="uni069F.medi" unicode="&#x69f;" horiz-adv-x="1265" 
d="M839 950q-45 34 -113 109q-49 -62 -114 -109q-72 55 -123 127q61 74 123 129q110 -111 114 -117q88 88 113 117q90 -76 127 -129q-49 -72 -127 -127zM608 1310q61 70 118 121q86 -67 121 -121q-45 -69 -121 -122q-65 53 -118 122zM1129 0q-80 0 -162 98
q-186 -98 -553 -98h-413l-33 6v195l33 6h110q51 100 109 192l-9 321q-9 297 -12 423l-49 127l187 182l41 -29v-100l92 -166l-94 -100v-293q0 -70 -64 -213l10 -8q224 284 441 284q144 0 258 -155t114 -283q0 -59 -69 -182h200l33 -6v-195l-33 -6h-137zM695 612
q-227 0 -494 -405h242l47 2q364 6 537 102q-47 127 -138 214t-194 87z" />
    <glyph glyph-name="uni069F.fina" unicode="&#x69f;" horiz-adv-x="1458" 
d="M1060 944q-45 34 -113 109q-49 -62 -114 -109q-72 55 -123 127q61 74 123 129q110 -111 114 -117q88 88 113 117q90 -76 127 -129q-49 -72 -127 -127zM829 1304q61 70 118 121q86 -67 121 -121q-45 -69 -121 -122q-65 53 -118 122zM1322 0q-81 0 -159 98
q-192 -98 -555 -98h-72q-197 0 -266 35l-244 178l10 31q119 -15 273 -25q55 104 104 180l-9 322q-8 301 -11 422l-50 127l187 182l41 -29v-100l92 -166l-94 -100v-293q0 -99 -64 -213l10 -8q225 284 441 284q144 0 258.5 -155t114.5 -283q0 -59 -70 -182h201l32 -6v-195
l-32 -6h-138zM888 612q-226 0 -489 -399q83 -6 166 -6l118 2q360 6 537 102q-47 127 -138 214t-194 87z" />
    <glyph glyph-name="uni06A0.init" unicode="&#x6a0;" horiz-adv-x="1017" 
d="M613 1008q-45 34 -113 109q-49 -62 -114 -109q-72 55 -123 127q61 74 123 129q110 -111 114 -117q88 88 113 117q90 -76 127 -129q-49 -72 -127 -127zM382 1368q61 70 118 121q86 -67 121 -121q-45 -69 -121 -122q-65 53 -118 122zM161 0h-160l-33 6v195l33 6h235
q-123 105 -123 245t74 236q42 70 143 131.5t191 61.5q139 0 278 -258l-38 -39l-185 116q-197 -16 -352 -176q35 -104 128.5 -189t234.5 -85t333 96l17 -14l-82 -205q-368 -127 -694 -127z" />
    <glyph glyph-name="uni06A0.medi" unicode="&#x6a0;" horiz-adv-x="1165" 
d="M721 1020q-45 34 -113 109q-49 -62 -114 -109q-72 55 -123 127q61 74 123 129q110 -111 114 -117q88 88 113 117q90 -76 127 -129q-49 -72 -127 -127zM490 1380q61 70 118 121q86 -67 121 -121q-45 -69 -121 -122q-65 53 -118 122zM1025 0q-235 0 -404 113
q-222 -113 -491 -113h-129l-33 6v195l33 6h297q92 0 182 22l-45 45q-30 32 -118 127l-113 121l-70 -98l-47 29q92 259 162 284q145 58 434 58t379 -86q10 -13 10 -83.5t-19 -101.5q-98 -175 -260 -301q63 -16 131 -16h242l33 -6v-195l-33 -6h-141zM653 608q-176 0 -308 -22
q230 -240 309 -295q214 107 320 278q-145 39 -321 39z" />
    <glyph glyph-name="uni06A0.fina" unicode="&#x6a0;" horiz-adv-x="1209" 
d="M760 1066q-45 34 -113 109q-49 -62 -114 -109q-72 55 -123 127q61 74 123 129q110 -111 114 -117q88 88 113 117q90 -76 127 -129q-49 -72 -127 -127zM529 1426q61 70 118 121q86 -67 121 -121q-45 -69 -121 -122q-65 53 -118 122zM164 -179q0 245 342 423l-281 295
l-76 -109l-49 27q94 262 166 291q158 57 438.5 57t370.5 -86q9 -10 9 -75.5t-17 -108.5q-62 -172 -281 -297q77 -31 178 -31h246l33 -6v-195l-33 -6h-178q-223 0 -402 133q-339 -172 -378 -317q91 -215 618 -215q117 0 326 22l14 -43q-319 -205 -410 -205q-498 0 -608 297
q-28 77 -28 149zM680 621q-174 0 -314 -21q221 -228 291 -281h2q256 116 332 261q-137 41 -311 41z" />
    <glyph glyph-name="uni06A1.init" unicode="&#x6a1;" horiz-adv-x="818" 
d="M380 809q-67 0 -124.5 -77.5t-78.5 -176.5q78 -59 194.5 -59t219.5 28q-75 285 -211 285zM238 0h-237l-33 6v195l33 6h323q176 0 289 22q6 37 6 93.5t-12 130.5l-59 -101q-84 -35 -189 -35q-153 0 -198 76q-64 83 -64 189q4 135 93 271q102 157 237.5 157t223 -195.5
t87.5 -423.5q0 -70 -11.5 -121.5t-70.5 -134t-78 -88.5q-99 -47 -340 -47z" />
    <glyph glyph-name="uni06A1.medi" unicode="&#x6a1;" horiz-adv-x="897" 
d="M271 207q-146 124 -146 245q0 43 5 70q18 111 129 244t228 133t199.5 -141.5t82.5 -321.5q0 -105 -135 -227l39 -2h225l33 -6v-195l-33 -6h-96q-172 0 -347 90q-165 -90 -350 -90h-104l-33 6v195l33 6h270zM447 692q-68 0 -138.5 -70t-104.5 -159q108 -143 294 -217
l19 10q73 42 121 98q-9 122 -66 230t-125 108z" />
    <glyph glyph-name="uni06A1.fina" unicode="&#x6a1;" horiz-adv-x="1682" 
d="M1587 0q-168 0 -332 82q-244 -119 -637 -119q-518 0 -518 361q0 202 160 442l59 -33q-82 -182 -82 -291q0 -270 420 -270q237 0 418 21q-102 78 -133.5 147t-31.5 112.5t5 69.5q18 111 129.5 244t228 133t198 -141.5t81.5 -321.5q0 -108 -135 -227l39 -2h225l35 -6v-195
l-35 -6h-94zM1222 692q-59 0 -130 -70t-105 -159q112 -143 295 -217l20 10q67 38 121 98q-8 122 -65.5 230t-135.5 108z" />
    <glyph glyph-name="uni06A2.init" unicode="&#x6a2;" horiz-adv-x="818" 
d="M511 -292q-62 -70 -119 -121q-84 67 -121 121q45 69 121 122q68 -53 119 -122zM380 809q-67 0 -124.5 -77.5t-78.5 -176.5q78 -59 194.5 -59t219.5 28q-75 285 -211 285zM238 0h-237l-33 6v195l33 6h323q176 0 289 22q6 37 6 93.5t-12 130.5l-59 -101q-84 -35 -189 -35
q-153 0 -198 76q-64 83 -64 189q4 135 93 271q102 157 237.5 157t223 -195.5t87.5 -423.5q0 -70 -11.5 -121.5t-70.5 -134t-78 -88.5q-99 -47 -340 -47z" />
    <glyph glyph-name="uni06A2.medi" unicode="&#x6a2;" horiz-adv-x="897" 
d="M564 -292q-62 -70 -119 -121q-84 67 -121 121q45 69 121 122q68 -53 119 -122zM271 207q-146 124 -146 245q0 43 5 70q18 111 129 244t228 133t199.5 -141.5t82.5 -321.5q0 -105 -135 -227l39 -2h225l33 -6v-195l-33 -6h-96q-172 0 -347 90q-165 -90 -350 -90h-104l-33 6
v195l33 6h270zM447 692q-68 0 -138.5 -70t-104.5 -159q108 -143 294 -217l19 10q73 42 121 98q-9 122 -66 230t-125 108z" />
    <glyph glyph-name="uni06A2.fina" unicode="&#x6a2;" horiz-adv-x="1682" 
d="M1400 -292q-62 -70 -119 -121q-84 67 -121 121q45 69 121 122q68 -53 119 -122zM1587 0q-168 0 -332 82q-244 -119 -637 -119q-518 0 -518 361q0 202 160 442l59 -33q-82 -182 -82 -291q0 -270 420 -270q237 0 418 21q-102 78 -133.5 147t-31.5 112.5t5 69.5
q18 111 129.5 244t228 133t198 -141.5t81.5 -321.5q0 -108 -135 -227l39 -2h225l35 -6v-195l-35 -6h-94zM1222 692q-59 0 -130 -70t-105 -159q112 -143 295 -217l20 10q67 38 121 98q-8 122 -65.5 230t-135.5 108z" />
    <glyph glyph-name="uni06A3.init" unicode="&#x6a3;" horiz-adv-x="818" 
d="M511 -292q-62 -70 -119 -121q-84 67 -121 121q45 69 121 122q68 -53 119 -122zM380 809q-67 0 -124.5 -77.5t-78.5 -176.5q78 -59 194.5 -59t219.5 28q-75 285 -211 285zM238 0h-237l-33 6v195l33 6h323q176 0 289 22q6 37 6 93.5t-12 130.5l-59 -101q-84 -35 -189 -35
q-153 0 -198 76q-64 83 -64 189q4 135 93 271q102 157 237.5 157t223 -195.5t87.5 -423.5q0 -70 -11.5 -121.5t-70.5 -134t-78 -88.5q-99 -47 -340 -47zM271 1356q62 78 125 131q90 -76 129 -131q-49 -72 -129 -127q-76 55 -125 127z" />
    <glyph glyph-name="uni06A3.medi" unicode="&#x6a3;" horiz-adv-x="897" 
d="M564 -292q-62 -70 -119 -121q-84 67 -121 121q45 69 121 122q68 -53 119 -122zM271 207q-146 124 -146 245q0 43 5 70q18 111 129 244t228 133t199.5 -141.5t82.5 -321.5q0 -105 -135 -227l39 -2h225l33 -6v-195l-33 -6h-96q-172 0 -347 90q-165 -90 -350 -90h-104l-33 6
v195l33 6h270zM447 692q-68 0 -138.5 -70t-104.5 -159q108 -143 294 -217l19 10q73 42 121 98q-9 122 -66 230t-125 108zM324 1223q64 75 127 129q90 -74 129 -129q-51 -74 -129 -129q-75 55 -127 129z" />
    <glyph glyph-name="uni06A3.fina" unicode="&#x6a3;" horiz-adv-x="1682" 
d="M904 -292q-62 -70 -119 -121q-84 67 -121 121q45 69 121 122q68 -53 119 -122zM1587 0q-168 0 -332 82q-244 -119 -637 -119q-518 0 -518 361q0 202 160 442l59 -33q-82 -182 -82 -291q0 -270 420 -270q237 0 418 21q-102 78 -133.5 147t-31.5 112.5t5 69.5
q18 111 129.5 244t228 133t198 -141.5t81.5 -321.5q0 -108 -135 -227l39 -2h225l35 -6v-195l-35 -6h-94zM1222 692q-59 0 -130 -70t-105 -159q112 -143 295 -217l20 10q67 38 121 98q-8 122 -65.5 230t-135.5 108zM1144 1229q64 76 127 131q91 -76 129 -131
q-51 -74 -129 -129q-75 55 -127 129z" />
    <glyph glyph-name="uni06A5.init" unicode="&#x6a5;" horiz-adv-x="818" 
d="M497 -530q-62 -70 -119 -121q-84 67 -121 121q45 69 121 122q68 -53 119 -122zM378 -309q-57 -62 -113 -117q-90 76 -127 129q52 72 127 127q42 -30 113 -109q49 62 115 109q74 -55 123 -127q-62 -74 -123 -129zM380 809q-67 0 -124.5 -77.5t-78.5 -176.5
q78 -59 194.5 -59t219.5 28q-75 285 -211 285zM238 0h-237l-33 6v195l33 6h323q176 0 289 22q6 37 6 93.5t-12 130.5l-59 -101q-84 -35 -189 -35q-153 0 -198 76q-64 83 -64 189q4 135 93 271q102 157 237.5 157t223 -195.5t87.5 -423.5q0 -70 -11.5 -121.5t-70.5 -134
t-78 -88.5q-99 -47 -340 -47z" />
    <glyph glyph-name="uni06A5.medi" unicode="&#x6a5;" horiz-adv-x="897" 
d="M537 -530q-62 -70 -119 -121q-84 67 -121 121q45 69 121 122q68 -53 119 -122zM418 -309q-57 -62 -113 -117q-90 76 -127 129q52 72 127 127q42 -30 113 -109q49 62 115 109q74 -55 123 -127q-62 -74 -123 -129zM271 207q-146 124 -146 245q0 43 5 70q18 111 129 244
t228 133t199.5 -141.5t82.5 -321.5q0 -105 -135 -227l39 -2h225l33 -6v-195l-33 -6h-96q-172 0 -347 90q-165 -90 -350 -90h-104l-33 6v195l33 6h270zM447 692q-68 0 -138.5 -70t-104.5 -159q108 -143 294 -217l19 10q73 42 121 98q-9 122 -66 230t-125 108z" />
    <glyph glyph-name="uni06A5.fina" unicode="&#x6a5;" horiz-adv-x="1682" 
d="M1347 -530q-62 -70 -119 -121q-84 67 -121 121q45 69 121 122q68 -53 119 -122zM1228 -309q-57 -62 -113 -117q-90 76 -127 129q52 72 127 127q42 -30 113 -109q49 62 115 109q74 -55 123 -127q-62 -74 -123 -129zM1587 0q-168 0 -332 82q-244 -119 -637 -119
q-518 0 -518 361q0 202 160 442l59 -33q-82 -182 -82 -291q0 -270 420 -270q237 0 418 21q-102 78 -133.5 147t-31.5 112.5t5 69.5q18 111 129.5 244t228 133t198 -141.5t81.5 -321.5q0 -108 -135 -227l39 -2h225l35 -6v-195l-35 -6h-94zM1222 692q-59 0 -130 -70t-105 -159
q112 -143 295 -217l20 10q67 38 121 98q-8 122 -65.5 230t-135.5 108z" />
    <glyph glyph-name="uni06A7.init" unicode="&#x6a7;" horiz-adv-x="818" 
d="M269 1329q61 70 118 121q86 -67 121 -121q-45 -69 -121 -122q-65 53 -118 122zM380 809q-67 0 -124.5 -77.5t-78.5 -176.5q78 -59 194.5 -59t219.5 28q-75 285 -211 285zM238 0h-237l-33 6v195l33 6h323q176 0 289 22q6 37 6 93.5t-12 130.5l-59 -101q-84 -35 -205.5 -35
t-182.5 78t-61 171v16q2 134 97.5 281t231 147t223 -195.5t87.5 -423.5q0 -70 -11.5 -121.5t-70.5 -134t-78 -88.5q-99 -47 -340 -47z" />
    <glyph glyph-name="uni06A7.medi" unicode="&#x6a7;" horiz-adv-x="897" 
d="M339 1219q61 70 118 121q86 -67 121 -121q-45 -69 -121 -122q-65 53 -118 122zM271 207q-146 124 -146 245q0 43 5 70q18 111 129 244t228 133t199.5 -141.5t82.5 -321.5q0 -105 -135 -227l39 -2h225l33 -6v-195l-33 -6h-96q-172 0 -347 90q-165 -90 -350 -90h-104l-33 6
v195l33 6h270zM447 692q-68 0 -138.5 -70t-104.5 -159q108 -143 294 -217l19 10q73 42 121 98q-9 122 -66 230t-125 108z" />
    <glyph glyph-name="uni06A7.fina" unicode="&#x6a7;" horiz-adv-x="1307" 
d="M710 1085q61 70 118 121q86 -67 121 -121q-45 -69 -121 -122q-65 53 -118 122zM100 -41q0 203 160 449l55 -27q-78 -180 -78 -295q0 -272 331 -272t517 123l2 63h-227q-176 0 -262 86q-62 90 -62 185v14q6 156 104 313.5t242 157.5q124 0 211 -165t97 -384h118l33 -6
v-195l-33 -6h-127q-7 -48 -49.5 -137.5t-66.5 -106.5q-216 -153 -541 -153q-424 0 -424 356zM837 555q-76 0 -140.5 -92.5t-84.5 -202.5q70 -53 262 -53h203q-27 137 -95.5 242.5t-144.5 105.5z" />
    <glyph glyph-name="uni06A8.init" unicode="&#x6a8;" horiz-adv-x="818" 
d="M500 1207q-45 34 -113 109q-49 -62 -114 -109q-72 55 -123 127q61 74 123 129q110 -111 114 -117q88 88 113 117q90 -76 127 -129q-49 -72 -127 -127zM269 1567q61 70 118 121q86 -67 121 -121q-45 -69 -121 -122q-65 53 -118 122zM380 809q-67 0 -124.5 -77.5
t-78.5 -176.5q78 -59 194.5 -59t219.5 28q-75 285 -211 285zM238 0h-237l-33 6v195l33 6h323q176 0 289 22q6 37 6 93.5t-12 130.5l-59 -101q-84 -35 -205.5 -35t-182.5 78t-61 171v16q2 134 97.5 281t231 147t223 -195.5t87.5 -423.5q0 -70 -11.5 -121.5t-70.5 -134
t-78 -88.5q-99 -47 -340 -47z" />
    <glyph glyph-name="uni06A8.medi" unicode="&#x6a8;" horiz-adv-x="897" 
d="M570 1097q-45 34 -113 109q-49 -62 -114 -109q-72 55 -123 127q61 74 123 129q110 -111 114 -117q88 88 113 117q90 -76 127 -129q-49 -72 -127 -127zM339 1457q61 70 118 121q86 -67 121 -121q-45 -69 -121 -122q-65 53 -118 122zM271 207q-146 124 -146 245q0 43 5 70
q18 111 129 244t228 133t199.5 -141.5t82.5 -321.5q0 -105 -135 -227l39 -2h225l33 -6v-195l-33 -6h-96q-172 0 -347 90q-165 -90 -350 -90h-104l-33 6v195l33 6h270zM447 692q-68 0 -138.5 -70t-104.5 -159q108 -143 294 -217l19 10q73 42 121 98q-9 122 -66 230t-125 108z
" />
    <glyph glyph-name="uni06A8.fina" unicode="&#x6a8;" horiz-adv-x="1307" 
d="M941 963q-45 34 -113 109q-49 -62 -114 -109q-72 55 -123 127q61 74 123 129q110 -111 114 -117q88 88 113 117q90 -76 127 -129q-49 -72 -127 -127zM710 1323q61 70 118 121q86 -67 121 -121q-45 -69 -121 -122q-65 53 -118 122zM100 -41q0 203 160 449l55 -27
q-78 -180 -78 -295q0 -272 331 -272t517 123l2 63h-227q-176 0 -262 86q-62 90 -62 185v14q6 156 104 313.5t242 157.5q124 0 211 -165t97 -384h118l33 -6v-195l-33 -6h-127q-7 -48 -49.5 -137.5t-66.5 -106.5q-216 -153 -541 -153q-424 0 -424 356zM837 555
q-76 0 -140.5 -92.5t-84.5 -202.5q70 -53 262 -53h203q-27 137 -95.5 242.5t-144.5 105.5z" />
    <glyph glyph-name="uni06AA.init" unicode="&#x6aa;" horiz-adv-x="1437" 
d="M888 207q285 0 389 8q-40 117 -115 172q-124 90 -387 90q-612 0 -641 47v5q0 26 29.5 123.5t46.5 115.5q63 91 360 286t332 195l18 -18l-86 -225q-326 -120 -569 -340h543q300 0 443 -149q106 -111 106 -269q0 -28 -44 -116t-61 -101q-34 -31 -418 -31h-833l-33 6v195
l33 6h887z" />
    <glyph glyph-name="uni06AA.medi" unicode="&#x6aa;" horiz-adv-x="1552" 
d="M834 0h-833l-33 6v195l33 6h887q285 0 389 8q-40 117 -115 172q-124 90 -387 90q-612 0 -641 47v5q0 25 30 123t46 116q63 91 360 286t332 195l18 -18l-86 -225q-326 -120 -569 -340h543q276 0 420 -128q109 -97 126 -247q15 -54 48 -69t151 -15l33 -6v-195l-33 -6
q-170 0 -237 137q-47 -93 -64 -106q-34 -31 -418 -31z" />
    <glyph glyph-name="uni06AA.fina" unicode="&#x6aa;" horiz-adv-x="1941" 
d="M1224 0h-666q-233 0 -282 37l-242 186l12 23q269 -39 508 -39h723q286 0 387 8q-37 116 -113 172q-123 90 -387 90q-611 0 -641 47v5q0 25 30 123t46 116q64 91 361 286t331 195l19 -18l-86 -225q-321 -115 -569 -340h542q278 0 421 -128q109 -96 126 -247q14 -54 46 -69
t151 -15l32 -6v-195l-32 -6q-172 0 -236 135q-45 -89 -63 -104q-35 -31 -418 -31z" />
    <glyph glyph-name="uni06AB.init" unicode="&#x6ab;" horiz-adv-x="938" 
d="M310 207q309 0 395 24q-71 165 -432 390l-37 -35l-159 114q-3 3 -3 23t33.5 132.5t53.5 121.5l706 407l23 -14l-39 -205l-598 -307q277 -151 434 -327q131 -145 131 -240q0 -26 -44 -124.5t-69 -117.5q-62 -49 -420 -49h-284l-33 6v195l33 6h309zM115 1214l707 394l6 -11
l-10 -84l-703 -393l-6 10z" />
    <glyph glyph-name="uni06AB.medi" unicode="&#x6ab;" horiz-adv-x="925" 
d="M77 0h-76l-33 6v195l33 6h123q186 0 248 16v10q0 101 -92 242l-197 285q-2 3 -2 20.5t32 108.5t52 98l612 408l23 -17l-39 -202l-514 -324q329 -493 445 -580q86 -65 204 -65h31l32 -6v-195l-32 -6h-31q-146 0 -237 63q-60 41 -179 187q-110 -204 -147 -217
q-66 -33 -256 -33zM71 1190l686 438l6 -10l-10 -84l-684 -438l-7 10z" />
    <glyph glyph-name="uni06AB.fina" unicode="&#x6ab;" horiz-adv-x="1772" 
d="M1740 0q-146 0 -236 62q-60 41 -176 184q-107 -197 -145 -211q-80 -35 -559 -35q-524 0 -524 369q0 192 155 430l56 -33q-80 -182 -80 -291q0 -268 432 -268q374 0 553 14v12q0 103 -92 242l-197 285q-2 3 -2 20t32 108.5t52 98.5l614 408l21 -17l-39 -202l-514 -324
q329 -493 445 -580q86 -65 204 -65h33l33 -6v-195l-33 -6h-33zM917 1190l686 438l6 -10l-10 -84l-684 -438l-6 10z" />
    <glyph glyph-name="uni06AC.init" unicode="&#x6ac;" horiz-adv-x="938" 
d="M235 1433q61 70 118 121q86 -67 121 -121q-45 -69 -121 -122q-65 53 -118 122zM310 207q309 0 395 24q-71 165 -432 390l-37 -35l-159 114q-3 3 -3 23t33.5 132.5t53.5 121.5l706 407l23 -14l-39 -205l-598 -307q277 -151 434 -327q131 -145 131 -240q0 -26 -44 -124.5
t-69 -117.5q-62 -49 -420 -49h-284l-33 6v195l33 6h309z" />
    <glyph glyph-name="uni06AC.medi" unicode="&#x6ac;" horiz-adv-x="925" 
d="M235 1433q61 70 118 121q86 -67 121 -121q-45 -69 -121 -122q-65 53 -118 122zM77 0h-76l-33 6v195l33 6h123q186 0 247 16v12q0 101 -92 240l-196 285q-2 2 -2 20t32 109t52 98l612 408l22 -17l-38 -202l-514 -324q51 -78 207 -298t240 -284t202 -63h30l33 -6v-195
l-33 -6h-30q-147 0 -237 63q-60 41 -179 187q-111 -204 -147 -217q-66 -33 -256 -33z" />
    <glyph glyph-name="uni06AC.fina" unicode="&#x6ac;" horiz-adv-x="1563" 
d="M1138 1693q61 70 118 121q86 -67 121 -121q-45 -69 -121 -122q-65 53 -118 122zM626 0q-526 0 -526 365q0 204 160 442l59 -31q-82 -182 -82 -291q0 -278 428 -278q345 0 553 41l-26 1069l143 135h37v-999q0 -140 22 -181q37 -65 170 -65l33 -6v-195l-33 -6
q-241 0 -309 205l-88 -146q-131 -59 -541 -59zM608 776q0 81 78 147.5t186 96.5l10 -12v-136q-135 -28 -204 -69q111 -17 149 -27q92 -23 92 -102q0 -60 -55 -115q-28 -28 -199 -43l-145 100v15q263 12 330 26q-5 3 -123.5 32.5t-118.5 86.5z" />
    <glyph glyph-name="uni06AE.init" unicode="&#x6ae;" horiz-adv-x="938" 
d="M517 -530q-62 -70 -119 -121q-84 67 -121 121q45 69 121 122q68 -53 119 -122zM398 -309q-57 -62 -113 -117q-90 76 -127 129q52 72 127 127q42 -30 113 -109q49 62 115 109q74 -55 123 -127q-62 -74 -123 -129zM310 207q309 0 395 24q-71 165 -432 390l-37 -35l-159 114
q-3 3 -3 23t33.5 132.5t53.5 121.5l706 407l23 -14l-39 -205l-598 -307q277 -151 434 -327q131 -145 131 -240q0 -26 -44 -124.5t-69 -117.5q-62 -49 -420 -49h-284l-33 6v195l33 6h309z" />
    <glyph glyph-name="uni06AE.medi" unicode="&#x6ae;" horiz-adv-x="925" 
d="M517 -530q-62 -70 -119 -121q-84 67 -121 121q45 69 121 122q68 -53 119 -122zM398 -309q-57 -62 -113 -117q-90 76 -127 129q52 72 127 127q42 -30 113 -109q49 62 115 109q74 -55 123 -127q-62 -74 -123 -129zM77 0h-76l-33 6v195l33 6h123q186 0 247 16v12
q0 101 -92 240l-196 285q-2 2 -2 20t32 109t52 98l612 408l22 -17l-38 -202l-514 -324q51 -78 207 -298t240 -284t202 -63h30l33 -6v-195l-33 -6h-30q-147 0 -237 63q-60 41 -179 187q-111 -204 -147 -217q-66 -33 -256 -33z" />
    <glyph glyph-name="uni06AE.fina" unicode="&#x6ae;" horiz-adv-x="1563" 
d="M857 -530q-62 -70 -119 -121q-84 67 -121 121q45 69 121 122q68 -53 119 -122zM738 -309q-57 -62 -113 -117q-90 76 -127 129q52 72 127 127q42 -30 113 -109q49 62 115 109q74 -55 123 -127q-62 -74 -123 -129zM626 0q-526 0 -526 365q0 204 160 442l59 -31
q-82 -182 -82 -291q0 -278 428 -278q345 0 553 41l-26 1069l143 135h37v-999q0 -140 22 -181q37 -65 170 -65l33 -6v-195l-33 -6q-241 0 -309 205l-88 -146q-131 -59 -541 -59zM608 776q0 81 78 147.5t186 96.5l10 -12v-136q-135 -28 -204 -69q111 -17 149 -27
q92 -23 92 -102q0 -60 -55 -115q-28 -28 -199 -43l-145 100v15q263 12 330 26q-5 3 -123.5 32.5t-118.5 86.5z" />
    <glyph glyph-name="uni06B0.init" unicode="&#x6b0;" horiz-adv-x="938" 
d="M793 974q0 -77 -45.5 -122t-109.5 -45t-109.5 45t-45.5 110q0 7 1 14l-231 -118q277 -151 434 -327q131 -145 131 -240q0 -26 -44 -124.5t-69 -117.5q-62 -49 -420 -49h-284l-33 6v195l33 6h309q309 0 395 24q-71 165 -432 390l-37 -35l-159 114q-3 3 -3 23t33.5 132.5
t53.5 121.5l706 407l23 -14l-39 -205l-135 -69q77 -45 77 -122zM724 959q0 86 -86 86l-28 -7q-58 -17 -58 -79q0 -34 25.5 -57t60.5 -23q86 0 86 80zM115 1214l707 394l6 -11l-10 -84l-703 -393l-6 10z" />
    <glyph glyph-name="uni06B0.medi" unicode="&#x6b0;" horiz-adv-x="925" 
d="M896 207h31l32 -6v-195l-32 -6h-31q-146 0 -237 63q-60 41 -179 187q-110 -204 -147 -217q-66 -33 -256 -33h-76l-33 6v195l33 6h123q186 0 248 16v10q0 101 -92 242l-197 285q-2 3 -2 20.5t32 108.5t52 98l612 408l23 -17l-39 -202l-117 -74q23 -11 44 -31
q45 -45 45 -109.5t-45.5 -109.5t-109.5 -45t-109.5 45t-45.5 110v1l-176 -111q329 -493 445 -580q86 -65 204 -65zM664 959q0 86 -86 86l-28 -7q-58 -17 -58 -79q0 -34 25.5 -57t60.5 -23q86 0 86 80zM71 1190l686 438l6 -10l-10 -84l-684 -438l-7 10z" />
    <glyph glyph-name="uni06B0.fina" unicode="&#x6b0;" horiz-adv-x="1772" 
d="M1573 962q0 -65 -45.5 -110t-109.5 -45t-109 44.5t-46 108.5l-172 -108q329 -493 445 -580q86 -65 204 -65h33l33 -6v-195l-33 -6h-33q-146 0 -236 62q-60 41 -176 184q-107 -197 -145 -211q-80 -35 -559 -35q-524 0 -524 369q0 192 155 430l56 -33q-80 -182 -80 -291
q0 -268 432 -268q374 0 553 14v12q0 103 -92 242l-197 285q-2 3 -2 20t32 108.5t52 98.5l614 408l21 -17l-39 -202l-119 -75q87 -43 87 -139zM1504 959q0 86 -86 86l-28 -7q-58 -17 -58 -79q0 -34 25.5 -57t60.5 -23q86 0 86 80zM917 1190l686 438l6 -10l-10 -84l-684 -438
l-6 10z" />
    <glyph glyph-name="uni06B2.init" unicode="&#x6b2;" horiz-adv-x="938" 
d="M430 -309q-57 -62 -113 -117q-90 76 -127 129q52 72 127 127q42 -30 113 -109q49 62 115 109q74 -55 123 -127q-62 -74 -123 -129zM310 207q309 0 395 24q-71 165 -432 390l-37 -35l-159 114q-3 3 -3 23t33.5 132.5t53.5 121.5l706 407l23 -14l-39 -205l-598 -307
q277 -151 434 -327q131 -145 131 -240q0 -26 -44 -124.5t-69 -117.5q-62 -49 -420 -49h-284l-33 6v195l33 6h309zM115 1214l707 394l6 -11l-10 -84l-703 -393l-6 10z" />
    <glyph glyph-name="uni06B2.medi" unicode="&#x6b2;" horiz-adv-x="925" 
d="M430 -309q-57 -62 -113 -117q-90 76 -127 129q52 72 127 127q42 -30 113 -109q49 62 115 109q74 -55 123 -127q-62 -74 -123 -129zM77 0h-76l-33 6v195l33 6h123q186 0 248 16v10q0 101 -92 242l-197 285q-2 3 -2 20.5t32 108.5t52 98l612 408l23 -17l-39 -202l-514 -324
q329 -493 445 -580q86 -65 204 -65h31l32 -6v-195l-32 -6h-31q-146 0 -237 63q-60 41 -179 187q-110 -204 -147 -217q-66 -33 -256 -33zM71 1190l686 438l6 -10l-10 -84l-684 -438l-7 10z" />
    <glyph glyph-name="uni06B2.fina" unicode="&#x6b2;" horiz-adv-x="1772" 
d="M758 -309q-57 -62 -113 -117q-90 76 -127 129q52 72 127 127q42 -30 113 -109q49 62 115 109q74 -55 123 -127q-62 -74 -123 -129zM1740 0q-146 0 -236 62q-60 41 -176 184q-107 -197 -145 -211q-80 -35 -559 -35q-524 0 -524 369q0 192 155 430l56 -33
q-80 -182 -80 -291q0 -268 432 -268q374 0 553 14v12q0 103 -92 242l-197 285q-2 3 -2 20t32 108.5t52 98.5l614 408l21 -17l-39 -202l-514 -324q329 -493 445 -580q86 -65 204 -65h33l33 -6v-195l-33 -6h-33zM917 1190l686 438l6 -10l-10 -84l-684 -438l-6 10z" />
    <glyph glyph-name="uni06B4.init" unicode="&#x6b4;" horiz-adv-x="938" 
d="M452 1473q-45 34 -113 109q-49 -62 -114 -109q-72 55 -123 127q61 74 123 129q110 -111 114 -117q88 88 113 117q90 -76 127 -129q-49 -72 -127 -127zM221 1833q61 70 118 121q86 -67 121 -121q-45 -69 -121 -122q-65 53 -118 122zM310 207q309 0 395 24
q-71 165 -432 390l-37 -35l-159 114q-3 3 -3 23t33.5 132.5t53.5 121.5l706 407l23 -14l-39 -205l-598 -307q277 -151 434 -327q131 -145 131 -240q0 -26 -44 -124.5t-69 -117.5q-62 -49 -420 -49h-284l-33 6v195l33 6h309zM115 1214l707 394l6 -11l-10 -84l-703 -393l-6 10
z" />
    <glyph glyph-name="uni06B4.medi" unicode="&#x6b4;" horiz-adv-x="925" 
d="M382 1473q-45 34 -113 109q-49 -62 -114 -109q-72 55 -123 127q61 74 123 129q110 -111 114 -117q88 88 113 117q90 -76 127 -129q-49 -72 -127 -127zM151 1833q61 70 118 121q86 -67 121 -121q-45 -69 -121 -122q-65 53 -118 122zM77 0h-76l-33 6v195l33 6h123
q186 0 248 16v10q0 101 -92 242l-197 285q-2 3 -2 20.5t32 108.5t52 98l612 408l23 -17l-39 -202l-514 -324q329 -493 445 -580q86 -65 204 -65h31l32 -6v-195l-32 -6h-31q-146 0 -237 63q-60 41 -179 187q-110 -204 -147 -217q-66 -33 -256 -33zM71 1190l686 438l6 -10
l-10 -84l-684 -438l-7 10z" />
    <glyph glyph-name="uni06B4.fina" unicode="&#x6b4;" horiz-adv-x="1772" 
d="M1232 1473q-45 34 -113 109q-49 -62 -114 -109q-72 55 -123 127q61 74 123 129q110 -111 114 -117q88 88 113 117q90 -76 127 -129q-49 -72 -127 -127zM1001 1833q61 70 118 121q86 -67 121 -121q-45 -69 -121 -122q-65 53 -118 122zM1740 0q-146 0 -236 62
q-60 41 -176 184q-107 -197 -145 -211q-80 -35 -559 -35q-524 0 -524 369q0 192 155 430l56 -33q-80 -182 -80 -291q0 -268 432 -268q374 0 553 14v12q0 103 -92 242l-197 285q-2 3 -2 20t32 108.5t52 98.5l614 408l21 -17l-39 -202l-514 -324q329 -493 445 -580
q86 -65 204 -65h33l33 -6v-195l-33 -6h-33zM917 1190l686 438l6 -10l-10 -84l-684 -438l-6 10z" />
    <glyph glyph-name="uni06B5.init" unicode="&#x6b5;" horiz-adv-x="574" 
d="M222 1569l-8 8q-45 128 -181 234l66 131l10 4q106 -96 170 -268q45 134 154 264l14 -2l47 -105q-129 -140 -170 -266h-102zM400 332q0 -52 -87.5 -168t-125 -140t-186.5 -24l-33 6v195l33 6q185 0 248 14l-23 912l-53 137l186 182l41 -25v-96l94 -172l-94 -100v-727z" />
    <glyph glyph-name="uni06B5.medi" unicode="&#x6b5;" horiz-adv-x="612" 
d="M266 1569l-8 8q-45 128 -181 234l66 131l10 4q106 -96 170 -268q45 134 154 264l14 -2l47 -105q-129 -140 -170 -266h-102zM402 1452v-1014q0 -130 37.5 -180t173.5 -51l33 -6v-195l-33 -6q-222 0 -297 197q-94 -154 -130.5 -175.5t-184.5 -21.5l-33 6v195l33 6
q175 0 250 14l-29 1096l143 135h37z" />
    <glyph glyph-name="uni06B5.fina" unicode="&#x6b5;" horiz-adv-x="1282" 
d="M928 1569l-8 8q-45 128 -181 234l66 131l10 4q106 -96 170 -268q45 134 154 264l14 -2l47 -105q-129 -140 -170 -266h-102zM100 -39q0 203 160 442l59 -30q-82 -183 -82 -291q0 -266 330 -266q184 0 364 84l-34 1417l145 135h35v-1022q0 -124 31 -166q41 -56 174 -57
l32 -6v-195l-32 -6q-132 0 -205 76v-25q-7 -70 -79 -201t-103 -157q-112 -88 -371 -88q-424 0 -424 356z" />
    <glyph glyph-name="uni06B6.init" unicode="&#x6b6;" horiz-adv-x="574" 
d="M205 1697q61 70 118 121q86 -67 121 -121q-45 -69 -121 -122q-65 53 -118 122zM400 332q0 -52 -87.5 -168t-125 -140t-186.5 -24l-33 6v195l33 6q185 0 248 14l-23 912l-53 137l186 182l41 -25v-96l94 -172l-94 -100v-727z" />
    <glyph glyph-name="uni06B6.medi" unicode="&#x6b6;" horiz-adv-x="612" 
d="M188 1697q61 70 118 121q86 -67 121 -121q-45 -69 -121 -122q-65 53 -118 122zM402 1452v-1014q0 -130 37.5 -180t173.5 -51l33 -6v-195l-33 -6q-222 0 -297 197q-94 -154 -130.5 -175.5t-184.5 -21.5l-33 6v195l33 6q175 0 250 14l-29 1096l143 135h37z" />
    <glyph glyph-name="uni06B6.fina" unicode="&#x6b6;" horiz-adv-x="1282" 
d="M881 1697q61 70 118 121q86 -67 121 -121q-45 -69 -121 -122q-65 53 -118 122zM100 -39q0 203 160 442l59 -30q-82 -183 -82 -291q0 -266 330 -266q184 0 364 84l-34 1417l145 135h35v-1022q0 -124 31 -166q41 -56 174 -57l32 -6v-195l-32 -6q-132 0 -205 76v-25
q-7 -70 -79 -201t-103 -157q-112 -88 -371 -88q-424 0 -424 356z" />
    <glyph glyph-name="uni06B7.init" unicode="&#x6b7;" horiz-adv-x="574" 
d="M392 1563q-45 34 -113 109q-49 -62 -114 -109q-72 55 -123 127q61 74 123 129q110 -111 114 -117q88 88 113 117q90 -76 127 -129q-49 -72 -127 -127zM161 1923q61 70 118 121q86 -67 121 -121q-45 -69 -121 -122q-65 53 -118 122zM400 332q0 -52 -87.5 -168t-125 -140
t-186.5 -24l-33 6v195l33 6q185 0 248 14l-23 912l-53 137l186 182l41 -25v-96l94 -172l-94 -100v-727z" />
    <glyph glyph-name="uni06B7.medi" unicode="&#x6b7;" horiz-adv-x="612" 
d="M402 1593q-45 34 -113 109q-49 -62 -114 -109q-72 55 -123 127q61 74 123 129q110 -111 114 -117q88 88 113 117q90 -76 127 -129q-49 -72 -127 -127zM171 1953q61 70 118 121q86 -67 121 -121q-45 -69 -121 -122q-65 53 -118 122zM402 1452v-1014q0 -130 37.5 -180
t173.5 -51l33 -6v-195l-33 -6q-222 0 -297 197q-94 -154 -130.5 -175.5t-184.5 -21.5l-33 6v195l33 6q175 0 250 14l-29 1096l143 135h37z" />
    <glyph glyph-name="uni06B7.fina" unicode="&#x6b7;" horiz-adv-x="1282" 
d="M1072 1563q-45 34 -113 109q-49 -62 -114 -109q-72 55 -123 127q61 74 123 129q110 -111 114 -117q88 88 113 117q90 -76 127 -129q-49 -72 -127 -127zM841 1923q61 70 118 121q86 -67 121 -121q-45 -69 -121 -122q-65 53 -118 122zM100 -39q0 203 160 442l59 -30
q-82 -183 -82 -291q0 -266 330 -266q184 0 364 84l-34 1417l145 135h35v-1022q0 -124 31 -166q41 -56 174 -57l32 -6v-195l-32 -6q-132 0 -205 76v-25q-7 -70 -79 -201t-103 -157q-112 -88 -371 -88q-424 0 -424 356z" />
    <glyph glyph-name="uni06B8.init" unicode="&#x6b8;" horiz-adv-x="574" 
d="M377 -530q-62 -70 -119 -121q-84 67 -121 121q45 69 121 122q68 -53 119 -122zM258 -309q-57 -62 -113 -117q-90 76 -127 129q52 72 127 127q42 -30 113 -109q49 62 115 109q74 -55 123 -127q-62 -74 -123 -129zM400 332q0 -52 -87.5 -168t-125 -140t-186.5 -24l-33 6
v195l33 6q185 0 248 14l-23 912l-53 137l186 182l41 -25v-96l94 -172l-94 -100v-727z" />
    <glyph glyph-name="uni06B8.medi" unicode="&#x6b8;" horiz-adv-x="612" 
d="M377 -530q-62 -70 -119 -121q-84 67 -121 121q45 69 121 122q68 -53 119 -122zM258 -309q-57 -62 -113 -117q-90 76 -127 129q52 72 127 127q42 -30 113 -109q49 62 115 109q74 -55 123 -127q-62 -74 -123 -129zM402 1452v-1014q0 -130 37.5 -180t173.5 -51l33 -6v-195
l-33 -6q-222 0 -297 197q-94 -154 -130.5 -175.5t-184.5 -21.5l-33 6v195l33 6q175 0 250 14l-29 1096l143 135h37z" />
    <glyph glyph-name="uni06B8.fina" unicode="&#x6b8;" horiz-adv-x="1282" 
d="M713 -900q-62 -70 -119 -121q-84 67 -121 121q45 69 121 122q68 -53 119 -122zM594 -679q-57 -62 -113 -117q-90 76 -127 129q52 72 127 127q42 -30 113 -109q49 62 115 109q74 -55 123 -127q-62 -74 -123 -129zM100 -39q0 203 160 442l59 -30q-82 -183 -82 -291
q0 -266 330 -266q184 0 364 84l-34 1417l145 135h35v-1022q0 -124 31 -166q41 -56 174 -57l32 -6v-195l-32 -6q-132 0 -205 76v-25q-7 -70 -79 -201t-103 -157q-112 -88 -371 -88q-424 0 -424 356z" />
    <glyph glyph-name="uni06B9.init" unicode="&#x6b9;" horiz-adv-x="527" 
d="M391 -292q-62 -70 -119 -121q-84 67 -121 121q45 69 121 122q68 -53 119 -122zM414 339.5q0 -47.5 -2.5 -74.5t-63.5 -122t-97 -118q-59 -25 -250 -25l-33 6v195l33 6q224 0 286 14q-24 195 -98 465l141 137h35l82 -227l-2 -23l-47 -49q16 -137 16 -184.5zM151 1165
q61 76 125 131q90 -75 129 -131q-49 -73 -129 -129q-76 56 -125 129z" />
    <glyph glyph-name="uni06B9.medi" unicode="&#x6b9;" horiz-adv-x="610" 
d="M408 -292q-62 -70 -119 -121q-84 67 -121 121q45 69 121 122q68 -53 119 -122zM597 0q-218 0 -320 135q-80 -101 -104 -112q-48 -23 -172 -23l-33 6v195l33 6q132 0 203 18q20 97 73 332l127 84l29 -8q-21 -302 -47 -381q65 -45 225 -45l33 -6v-195l-33 -6h-14zM168 999
q63 76 127 131q90 -75 129 -131q-51 -73 -129 -129q-76 56 -127 129z" />
    <glyph glyph-name="uni06B9.fina" unicode="&#x6b9;" horiz-adv-x="1293" 
d="M454 -705q64 76 127 131q90 -76 129 -131q-51 -74 -129 -129q-75 55 -127 129zM100 -39q0 203 160 442l53 -26q-76 -180 -76 -295q0 -266 330 -266q217 0 389 90l-74 569l148 115h37l8 -154q9 -139 36 -175q40 -54 183 -54l33 -6v-195l-33 -6q-144 0 -209 92l2 -78
q-54 -207 -129 -276q-133 -133 -434 -133q-424 0 -424 356zM481 764q63 78 127 131q90 -76 129 -131q-51 -72 -129 -127q-76 55 -127 127z" />
    <glyph glyph-name="uni06BC.init" unicode="&#x6bc;" horiz-adv-x="545" 
d="M181 1165q61 76 125 131q90 -75 129 -131q-49 -73 -129 -129q-76 56 -125 129zM199 -154q86 0 86 80q0 86 -86 86t-86 -86q0 -33 25.5 -56.5t60.5 -23.5zM44 -82q0 55 20 84q-22 -2 -63 -2l-33 6v195l33 6q224 0 286 14q-24 195 -98 465l141 137h35l82 -227l-2 -23
l-47 -49q16 -137 16 -184.5t-2 -63.5q-4 -79 -129 -219q70 -43 70 -118.5t-44 -120.5t-108.5 -45t-110.5 45t-46 100z" />
    <glyph glyph-name="uni06BC.medi" unicode="&#x6bc;" horiz-adv-x="690" 
d="M340 -74q0 -68 -45.5 -113t-109.5 -45t-109.5 45t-45.5 99t20 88h-49l-33 6v195l33 6q212 0 283 18q20 97 73 332l127 84l29 -8q-21 -302 -47 -381q65 -45 225 -45l33 -6v-195l-33 -6h-14q-218 0 -320 135q-49 -62 -77 -90q60 -51 60 -119zM218 999q63 76 127 131
q90 -75 129 -131q-51 -73 -129 -129q-76 56 -127 129zM271 -80q0 86 -86 86l-28 -7q-58 -17 -58 -79q0 -34 25.5 -57t60.5 -23q86 0 86 80z" />
    <glyph glyph-name="uni06BC.fina" unicode="&#x6bc;" horiz-adv-x="1293" 
d="M686 -477q0 82 -86 82t-86 -82t86 -82t86 82zM753 -479q0 -64 -43 -109t-107.5 -45t-111.5 45.5t-47 100.5t27 92q-371 26 -371 356q0 203 160 442l53 -26q-76 -180 -76 -295q0 -266 330 -266q217 0 389 90l-74 569l148 115h37l8 -154q9 -139 36 -175q40 -54 183 -54
l33 -6v-195l-33 -6q-144 0 -209 92l2 -78q-54 -207 -129.5 -278t-243.5 -109q39 -42 39 -106zM483 772q61 76 127 131q88 -76 127 -131q-49 -74 -127 -129q-78 55 -127 129z" />
    <glyph glyph-name="uni06BD.init" unicode="&#x6bd;" horiz-adv-x="535" 
d="M388 1024q-41 30 -112 109q-49 -62 -115 -109q-74 55 -123 127q62 74 123 129l115 -117q57 62 112 117q90 -76 127 -129q-51 -72 -127 -127zM157 1384q61 70 119 121q84 -67 121 -121q-46 -69 -121 -122q-68 53 -119 122zM414 339.5q0 -47.5 -2.5 -74.5t-63.5 -122
t-97 -118q-59 -25 -250 -25l-33 6v195l33 6q224 0 286 14q-24 195 -98 465l141 137h35l82 -227l-2 -23l-47 -49q16 -137 16 -184.5z" />
    <glyph glyph-name="uni06BD.medi" unicode="&#x6bd;" horiz-adv-x="610" 
d="M597 0q-218 0 -320 135q-80 -101 -104 -112q-48 -23 -172 -23l-33 6v195l33 6q132 0 203 18q20 97 73 332l127 84l29 -8q-21 -302 -47 -381q65 -45 225 -45l33 -6v-195l-33 -6h-14zM435 872q-57 42 -112 109q-50 -63 -115 -109q-74 56 -123 127q61 74 123 129
q110 -110 115 -116q84 84 112 116q90 -75 127 -129q-51 -71 -127 -127zM204 1233q61 70 119 121q86 -68 120 -121q-45 -70 -120 -123q-66 53 -119 123z" />
    <glyph glyph-name="uni06BD.fina" unicode="&#x6bd;" horiz-adv-x="1293" 
d="M713 638q-41 30 -112 109q-49 -62 -115 -109q-74 55 -123 127q62 74 123 129l115 -117q57 62 112 117q90 -76 127 -129q-51 -72 -127 -127zM482 998q61 70 119 121q84 -67 121 -121q-46 -69 -121 -122q-68 53 -119 122zM100 -39q0 203 160 442l53 -26q-76 -180 -76 -295
q0 -266 330 -266q217 0 389 90l-74 569l148 115h37l8 -154q9 -139 36 -175q40 -54 183 -54l33 -6v-195l-33 -6q-144 0 -209 92l2 -78q-54 -207 -129 -276q-133 -133 -434 -133q-424 0 -424 356z" />
    <glyph glyph-name="uni06BF.init" unicode="&#x6bf;" horiz-adv-x="1308" 
d="M500 1067q62 76 125 131q91 -76 129 -131q-49 -74 -129 -129q-75 55 -125 129zM918 -330q-61 -69 -119 -121q-86 68 -120 121q45 70 120 123q66 -53 119 -123zM799 -109l-112 -116q-90 75 -127 129q51 71 127 127q41 -31 112 -109q50 62 115 109q74 -56 123 -127
q-61 -74 -123 -129q-110 110 -115 116zM161 0h-160l-33 6v195l33 6h237q224 0 428 90q116 53 144 61q-111 36 -246 111l-250 141l-186 -127l-43 47q182 258 280 258q23 0 301 -153q226 -129 385 -129h168l9 -27l-66 -155h-162q-31 -5 -375 -201q-205 -123 -464 -123z" />
    <glyph glyph-name="uni06BF.medi" unicode="&#x6bf;" horiz-adv-x="1327" 
d="M500 1067q62 76 125 131q91 -76 129 -131q-49 -74 -129 -129q-75 55 -125 129zM828 -360q-61 -70 -119 -121q-84 67 -120 121q47 69 120 122q68 -53 119 -122zM709 -139q-109 -117 -110 -117q-92 76 -127 129q49 72 127 127q57 -44 110 -109q50 62 115 109
q74 -55 125 -127q-63 -74 -125 -129zM161 0h-160l-33 6v195l33 6h237q230 0 430 92q107 49 142 59q-115 39 -246 111l-250 141l-186 -127l-43 47q182 258 280 258q23 0 301 -153q226 -129 385 -129h164l8 -27l-67 -155l-101 -7q5 -110 130 -110h143l33 -6v-195l-33 -6h-152
q-203 0 -203 217q0 44 9 98q-37 -8 -357 -192q-205 -123 -464 -123z" />
    <glyph glyph-name="uni06BF.fina" unicode="&#x6bf;" horiz-adv-x="1326" 
d="M577 1049q62 77 125 131q90 -76 129 -131q-49 -72 -129 -127q-76 55 -125 127zM835 -176q-59 -66 -112 -115q-80 66 -115 115q45 65 115 117q63 -52 112 -117zM723 33l-58 -61q-40 -42 -47 -50q-86 72 -121 123q47 68 121 121q53 -41 105 -105q47 60 108 105
q70 -53 117 -121q-57 -70 -117 -123zM1226 0q-265 0 -265 275q0 79 30 188q-283 -88 -549 -307q-169 -142 -203 -306q141 -251 670 -251q117 0 354 22l13 -43q-319 -205 -451 -205q-257 0 -439 102q-153 87 -194 206q-44 108 -44 218q0 13 1 27q46 310 418 518q53 27 188 39
l2 11q-110 10 -259 41t-195 34l-160 -141l-43 37q158 295 231 295q42 0 275.5 -47t392.5 -47h213l8 -25l-65 -162l-101 2q-2 -36 -2 -96.5t22 -104.5q38 -73 159 -73h94l33 -6v-195l-33 -6h-101z" />
    <glyph glyph-name="uni06C2.fina" unicode="&#x6c2;" horiz-adv-x="961" 
d="M579 586q141 0 164 -137q23 -126 46 -164q48 -78 173 -78l33 -6v-195l-33 -6q-160 0 -234 116q-54 85 -83 287q-133 -4 -303.5 -81t-264.5 -164l-18 22l104 230q240 176 416 176zM383 786q-27 0 -144 97l6 32q97 0 119 5v2q-39 22 -39 95t52 139.5t124.5 66.5t104.5 -91
q16 -46 18 -92l-33 -8q-32 49 -89.5 49t-116.5 -49q27 -86 125 -86q75 0 161 33l11 -14l-54 -119q-118 -60 -245 -60z" />
    <glyph glyph-name="uni06C3.fina" unicode="&#x6c3;" horiz-adv-x="961" 
d="M579 586q141 0 164 -137q23 -126 46 -164q48 -78 173 -78l33 -6v-195l-33 -6q-160 0 -234 116q-54 85 -83 287q-133 -4 -303.5 -81t-264.5 -164l-18 22l104 230q240 176 416 176zM579 748q-53 38 -114 112q-50 -65 -117 -112q-76 55 -127 131q63 75 127 131
q92 -78 119 -117q52 62 112 117q92 -78 131 -131q-51 -76 -131 -131z" />
    <glyph glyph-name="uni06C4.fina" unicode="&#x6c4;" horiz-adv-x="920" 
d="M453 109q-96 0 -140 -89q-72 21 -104 64q-64 103 -64 201q6 156 105 313.5t243 157.5q123 0 212.5 -169.5t97.5 -379.5h118l33 -6v-195l-33 -6h-137q-29 -154 -128.5 -274.5t-235.5 -120.5q-37 0 -167.5 71t-160.5 99l25 57q118 -29 166 -29t69 1q-37 40 -37 98t42 99.5
t101 41.5t101 -41.5t42 -100.5q0 -9 -1 -17q63 45 106 116h-106q-10 36 -46.5 72.5t-100.5 36.5zM537 -102q0 80 -79 80l-26 -7q-53 -16 -53 -73q0 -31 23.5 -52.5t55.5 -21.5q79 0 79 74zM448 555q-77 0 -141 -91.5t-84 -203.5q80 -53 266 -53h201v6q-26 124 -95.5 233
t-146.5 109z" />
    <glyph glyph-name="uni06CA.fina" unicode="&#x6ca;" horiz-adv-x="920" 
d="M309 -197q279 0 397 197h-217q-217 0 -280 84q-64 103 -64 201q6 156 105 313.5t243 157.5q123 0 212.5 -169.5t97.5 -379.5h118l33 -6v-195l-33 -6h-137q-29 -154 -128.5 -274.5t-235.5 -120.5q-37 0 -167.5 71t-160.5 99l25 57q118 -29 192 -29zM448 555
q-77 0 -141 -91.5t-84 -203.5q80 -53 266 -53h201v6q-26 124 -95.5 233t-146.5 109zM579 973q-58 44 -114 112q-51 -63 -117 -112q-78 57 -127 131q61 76 127 131q92 -76 117 -115q56 67 114 115q93 -76 129 -131q-49 -74 -129 -131z" />
    <glyph glyph-name="uni06CD.fina" unicode="&#x6cd;" horiz-adv-x="1404" 
d="M246 -131.5q0 129.5 61 278.5l-248 -63l-10 10l55 166l328 88l31 -45q-82 -168 -82 -274q0 -281 327.5 -281t546.5 121q-70 131 -278 131h-35l-4 10l59 191l13 6h395l33 -6v-195l-33 -6h-76q27 -38 27 -75.5t-34.5 -129.5t-58.5 -110q-207 -156 -589 -156
q-223 0 -336 115q-92 95 -92 224.5z" />
    <glyph glyph-name="uni06CE.init" unicode="&#x6ce;" horiz-adv-x="552" 
d="M335 -393q-37 27 -109 106q-47 -61 -110 -106q-72 53 -121 125q59 71 121 125q88 -74 112 -111q49 58 107 111q88 -74 125 -125q-49 -72 -125 -125zM415 336.5q0 -45.5 -2 -60.5q-3 -38 -64 -133t-98 -118q-59 -25 -250 -25l-33 6v195l33 6q225 0 287 14q-25 195 -99 465
l142 137h35l81 -227l-2 -23l-47 -49q17 -142 17 -187.5zM241 1008l-9 6q-45 131 -180 235l66 129l12 4q101 -91 168 -266q44 131 154 262l14 -2l49 -104q-128 -135 -170 -264h-104z" />
    <glyph glyph-name="uni06CE.medi" unicode="&#x6ce;" horiz-adv-x="610" 
d="M408 -397q-50 38 -110 110q-49 -63 -113 -110q-76 55 -125 127q62 73 125 127q88 -74 113 -111q73 80 110 111q90 -74 127 -127q-49 -72 -127 -127zM597 0q-218 0 -320 135q-80 -101 -104 -112q-48 -23 -172 -23l-33 6v195l33 6q132 0 203 18q20 97 73 332l127 84l29 -8
q-21 -302 -47 -381q65 -45 225 -45l33 -6v-195l-33 -6h-14zM281 831l-8 7q-45 128 -182 235l65 129l13 4q106 -96 170 -268q39 128 153 264l13 -2l49 -104q-128 -135 -170 -265h-103z" />
    <glyph glyph-name="uni06CE.fina" unicode="&#x6ce;" horiz-adv-x="1260" 
d="M100 -115q0 205 160 451l59 -33q-82 -168 -82 -274q0 -281 325.5 -281t549.5 121q-71 131 -279 131h-35l-6 10l62 191l12 6h395l33 -6v-195l-33 -6h-76q25 -35 25 -74t-33.5 -131t-56.5 -110q-216 -156 -590 -156q-223 0 -336 115q-94 95 -94 241zM561 465l-8 8
q-45 128 -181 234l66 129l12 4q104 -94 168 -267q44 131 154 263l14 -2l49 -105q-128 -135 -170 -264h-104z" />
    <glyph glyph-name="uni06CF.fina" unicode="&#x6cf;" horiz-adv-x="920" 
d="M338 1104q61 76 125 131q90 -75 129 -131q-49 -73 -129 -129q-76 56 -125 129zM309 -197q279 0 397 197h-217q-217 0 -280 84q-64 103 -64 201q6 156 105 313.5t243 157.5q123 0 212.5 -169.5t97.5 -379.5h118l33 -6v-195l-33 -6h-137q-29 -154 -128.5 -274.5
t-235.5 -120.5q-37 0 -167.5 71t-160.5 99l25 57q118 -29 192 -29zM448 555q-77 0 -141 -91.5t-84 -203.5q80 -53 266 -53h201v6q-26 124 -95.5 233t-146.5 109z" />
    <glyph glyph-name="uni06D1.init" unicode="&#x6d1;" horiz-adv-x="529" 
d="M347 -530q-62 -70 -119 -121q-84 67 -121 121q45 69 121 122q68 -53 119 -122zM228 -309q-57 -62 -113 -117q-90 76 -127 129q52 72 127 127q42 -30 113 -109q49 62 115 109q74 -55 123 -127q-62 -74 -123 -129zM416 348.5q0 -51.5 -3 -81t-64.5 -125t-97.5 -117.5
q-59 -25 -250 -25l-33 6v195l33 6q224 0 286 14q-24 195 -98 465l141 137h37l82 -227l-4 -23l-47 -49q18 -124 18 -175.5z" />
    <glyph glyph-name="uni06D1.medi" unicode="&#x6d1;" horiz-adv-x="610" 
d="M412 -530q-61 -70 -118 -121q-86 67 -121 121q45 69 121 122q65 -53 118 -122zM294 -309l-113 -117q-90 76 -127 129q51 72 127 127q45 -34 113 -109q49 62 114 109q72 -55 123 -127q-61 -74 -123 -129q-110 111 -114 117zM597 0q-218 0 -320 135q-80 -101 -104 -112
q-48 -23 -172 -23l-33 6v195l33 6q132 0 203 18q20 97 73 332l127 84l29 -8q-21 -302 -47 -381q65 -45 225 -45l33 -6v-195l-33 -6h-14z" />
    <glyph glyph-name="uni06D1.fina" unicode="&#x6d1;" horiz-adv-x="1260" 
d="M750 -977q-62 -70 -119 -121q-84 67 -121 121q45 69 121 122q68 -53 119 -122zM631 -756q-57 -62 -113 -117q-90 76 -127 129q52 72 127 127q42 -30 113 -109q49 62 115 109q74 -55 123 -127q-62 -74 -123 -129zM100 -115q0 205 160 451l59 -33q-82 -168 -82 -274
q0 -281 325.5 -281t549.5 121q-71 131 -279 131h-35l-6 10l62 191l12 6h395l33 -6v-195l-33 -6h-76q25 -35 25 -74t-33.5 -131t-56.5 -110q-216 -156 -590 -156q-223 0 -336 115q-94 95 -94 241z" />
    <glyph glyph-name="uni06D5.fina" unicode="&#x6d5;" horiz-adv-x="955" 
d="M460 299q67 0 150 14l-25 308q-266 -121 -379 -244q82 -78 254 -78zM870 0q-208 0 -244 252l-86 -135q-69 -19 -141 -19q-226 0 -293 133q-6 14 -6 40.5t7.5 85t25.5 81.5q107 158 442 340l-6 86l149 109h37v-629q0 -97 18.5 -117t106.5 -20h76l33 -6v-195l-33 -6h-86z
" />
    <glyph glyph-name="uni06EE.fina" unicode="&#x6ee;" horiz-adv-x="1018" 
d="M645 1530q41 -126 170 -266l-47 -105l-14 -2q-109 130 -154 264q-64 -172 -170 -268l-10 4l-66 131q136 106 181 234l8 8h102zM993 0q-159 0 -244 158l-96 -127q-77 -31 -293 -31q-260 0 -260 201q0 107 68 254l61 -19q-20 -69 -20 -121t37 -80t174 -28t301 10l-242 596
l121 154h37l157 -500q67 -192 94 -226t132 -34l32 -6v-195l-32 -6h-27z" />
    <glyph glyph-name="uni06EF.fina" unicode="&#x6ef;" horiz-adv-x="882" 
d="M587 1221q41 -126 170 -266l-47 -105l-14 -2q-109 130 -154 264q-64 -172 -170 -268l-10 4l-66 131q136 106 181 234l8 8h102zM859 0q-94 0 -190 84q-12 -139 -105 -294q-110 -185 -244 -185q-35 0 -160 69t-157 97l25 57q94 -25 159 -25q271 0 394 363q-11 26 -136 307
l131 158h29l47 -195q39 -149 76.5 -189t155.5 -40l32 -6v-195l-32 -6h-25z" />
    <glyph glyph-name="uni06FA.init" unicode="&#x6fa;" horiz-adv-x="1402" 
d="M907 -292q-62 -70 -119 -121q-84 67 -121 121q45 69 121 122q68 -53 119 -122zM1131 -25q-184 0 -391 162q-75 -137 -251.5 -137t-256.5 117q-88 -117 -231 -117l-33 6v195l33 6q102 0 174 14l67 203l113 76l27 -15q-19 -146 -37 -249q72 -29 156.5 -29t154.5 12l84 309
l115 76l26 -14q-6 -115 -36 -320q144 -84 331 -108l-57 475l145 119h37q21 -377 21 -539q0 -42 -77 -142t-114 -100zM904 809q-45 34 -113 109q-49 -62 -114 -109q-72 55 -123 127q61 74 123 129q110 -111 114 -117q88 88 113 117q90 -76 127 -129q-49 -72 -127 -127z
M673 1169q61 70 118 121q86 -67 121 -121q-45 -69 -121 -122q-65 53 -118 122z" />
    <glyph glyph-name="uni06FA.medi" unicode="&#x6fa;" horiz-adv-x="1501" 
d="M907 -292q-62 -70 -119 -121q-84 67 -121 121q45 69 121 122q68 -53 119 -122zM1443 0q-150 0 -215 135q-72 -135 -246 -135t-254 117q-70 -117 -243 -117t-253 117q-88 -117 -231 -117l-33 6v195l33 6q102 0 174 14l67 203l113 76l27 -15q-19 -146 -37 -249
q73 -29 157 -29t154 12l84 309l115 76l26 -14q-15 -196 -43 -350q70 -33 168 -33t172 18q-16 113 -36 336l149 113h37v-367q0 -63 16 -81t94 -19h64l33 -6v-195l-33 -6h-59zM900 809q-45 34 -113 109q-49 -62 -114 -109q-72 55 -123 127q61 74 123 129l116 -117
q112 120 113 120l-2 -3q90 -76 127 -129q-49 -72 -127 -127zM668 1169q64 70 119 121q86 -67 121 -121q-45 -69 -121 -122q-65 53 -119 122z" />
    <glyph glyph-name="uni06FA.fina" unicode="&#x6fa;" horiz-adv-x="2198" 
d="M1627 -292q-62 -70 -119 -121q-84 67 -121 121q45 69 121 122q68 -53 119 -122zM100 -39q0 203 160 451l55 -27q-78 -188 -78 -303q0 -266 324 -266q244 0 391 98q-35 225 -80 551l158 127h37l12 -367q52 -18 128.5 -18t145.5 12l84 309l115 76l27 -14q-16 -196 -43 -350
q69 -33 167.5 -33t172.5 18q-17 113 -35 336l147 113h37v-367q0 -63 16.5 -81.5t94.5 -18.5h63l33 -6v-195l-33 -6h-59q-149 0 -215 135q-73 -135 -246.5 -135t-253.5 117q-69 -117 -248 -117q-61 0 -100 23l-4 -37q-19 -116 -113 -238q-140 -143 -442 -143q-227 0 -334 114
q-84 91 -84 242zM1624 809q-58 44 -111 109q-49 -62 -115 -109q-73 55 -124 127q61 74 124 129l115 -117q112 120 113 120l-2 -3q90 -76 127 -129q-49 -72 -127 -127zM1394 1169q62 70 119 121q84 -67 121 -121q-47 -69 -121 -122q-67 53 -119 122z" />
    <glyph glyph-name="uni06FB.init" unicode="&#x6fb;" horiz-adv-x="1559" 
d="M1134 -292q-62 -70 -119 -121q-84 67 -121 121q45 69 121 122q68 -53 119 -122zM720 0q-337 0 -471 139q-97 -139 -248 -139l-33 6v195l33 6q102 0 174 14q29 94 67 207l113 76l27 -12q-15 -121 -29 -211q43 -33 109 -48q303 594 643 594q144 0 259 -155.5t115 -287.5
t-125.5 -258t-594.5 -126h-39zM1047 612q-226 0 -493 -395q92 -10 194 -10l86 2q369 6 539 102q-49 128 -138 214.5t-188 86.5zM894 1137q63 75 127 129q90 -76 129 -129q-52 -74 -129 -129q-76 55 -127 129z" />
    <glyph glyph-name="uni06FB.medi" unicode="&#x6fb;" horiz-adv-x="1605" 
d="M1140 -292q-62 -70 -119 -121q-84 67 -121 121q45 69 121 122q68 -53 119 -122zM1467 0q-78 0 -158 96q-187 -96 -550 -96h-39q-337 0 -471 139q-97 -139 -248 -139l-33 6v195l33 6q102 0 174 14q29 94 67 207l113 76l27 -12q-15 -121 -29 -211q43 -33 109 -48
q303 594 643 594q144 0 259 -155.5t115 -282.5q0 -67 -67 -182h194l33 -6v-195l-33 -6h-139zM1047 612q-226 0 -493 -395q92 -10 194 -10l86 2q369 6 539 102q-49 128 -138 214.5t-188 86.5zM900 1137q63 75 127 129q90 -76 129 -129q-51 -74 -129 -129q-76 55 -127 129z
" />
    <glyph glyph-name="uni06FB.fina" unicode="&#x6fb;" horiz-adv-x="2251" 
d="M1792 -292q-62 -70 -119 -121q-84 67 -121 121q45 69 121 122q68 -53 119 -122zM100 -39q0 203 160 451l55 -27q-78 -188 -78 -303q0 -266 324 -266q244 0 391 98q-35 225 -80 551l158 127h37l12 -352q10 -4 31 -9q304 596 643 596q144 0 260.5 -155.5t116.5 -282.5
q0 -63 -70 -182h192l33 -6v-195l-33 -6h-137q-78 0 -157 96q-193 -96 -549 -96h-39q-205 0 -291 55q-4 -60 -6 -69q-19 -116 -113 -238q-140 -143 -442 -143q-227 0 -334 114q-84 91 -84 242zM1695 612q-223 0 -491 -395q116 -10 192 -10l88 2q369 6 539 102
q-48 128 -137.5 214.5t-190.5 86.5zM1538 1137q61 75 127 129q90 -76 127 -129q-50 -74 -127 -129q-78 55 -127 129z" />
    <glyph glyph-name="uni06FC.init" unicode="&#x6fc;" horiz-adv-x="1017" 
d="M618 -292q-62 -70 -119 -121q-84 67 -121 121q45 69 121 122q68 -53 119 -122zM161 0h-160l-33 6v195l33 6h235q-123 105 -123 245t74 236q42 70 143 131.5t191 61.5q139 0 278 -258l-38 -39l-185 116q-197 -16 -352 -176q35 -104 128.5 -189t234.5 -85t333 96l17 -14
l-82 -205q-368 -127 -694 -127zM378 1194q61 76 125 129q90 -76 129 -129q-50 -74 -129 -129q-76 55 -125 129z" />
    <glyph glyph-name="uni06FC.medi" unicode="&#x6fc;" horiz-adv-x="1165" 
d="M724 -292q-62 -70 -119 -121q-84 67 -121 121q45 69 121 122q68 -53 119 -122zM1025 0q-235 0 -404 113q-222 -113 -491 -113h-129l-33 6v195l33 6h297q92 0 182 22l-45 45q-30 32 -118 127l-113 121l-70 -98l-47 29q92 259 162 284q145 58 434 58t379 -86
q10 -13 10 -83.5t-19 -101.5q-98 -175 -260 -301q63 -16 131 -16h242l33 -6v-195l-33 -6h-141zM653 608q-176 0 -308 -22q230 -240 309 -295q214 107 320 278q-145 39 -321 39zM484 1141q62 76 125 131q90 -76 129 -131q-49 -74 -129 -129q-76 55 -125 129z" />
    <glyph glyph-name="uni06FC.fina" unicode="&#x6fc;" horiz-adv-x="1209" 
d="M516 -166q61 78 125 131q90 -76 129 -131q-50 -74 -129 -127q-76 53 -125 127zM164 -179q0 245 342 423l-281 295l-76 -109l-49 27q94 262 166 291q158 57 438.5 57t370.5 -86q9 -10 9 -75.5t-17 -108.5q-62 -172 -281 -297q77 -31 178 -31h246l33 -6v-195l-33 -6h-178
q-223 0 -402 133q-339 -172 -378 -317q91 -215 618 -215q117 0 326 22l14 -43q-319 -205 -410 -205q-498 0 -608 297q-28 77 -28 149zM680 621q-174 0 -314 -21q221 -228 291 -281h2q256 116 332 261q-137 41 -311 41zM516 1188q63 78 127 131q90 -76 129 -131
q-51 -74 -129 -127q-76 53 -127 127z" />
    <glyph glyph-name="uni06FF.init" unicode="&#x6ff;" horiz-adv-x="1031" 
d="M390 1469q41 -126 170 -266l-47 -105l-14 -2q-109 130 -154 264q-64 -172 -170 -268l-10 4l-66 131q136 106 181 234l8 8h102zM115 381q0 196 162 332l-77 41l80 182l36 8q368 -236 501.5 -417t133.5 -380v-3q0 -43 -56.5 -129.5t-86.5 -86.5q-157 0 -408 150
q-152 -78 -315 -78h-84l-33 6v195l33 6h207q-35 27 -60 55q-33 67 -33 119zM667 420v-6q0 -118 -109 -221q160 -63 299 -76l-2 8q-45 210 -197 346q9 -25 9 -51zM397 633q-52 0 -115.5 -68.5t-96.5 -146.5q89 -95 262 -176q80 37 113 112q-12 110 -61.5 194.5t-101.5 84.5z
" />
    <glyph glyph-name="uni06FF.medi" unicode="&#x6ff;" horiz-adv-x="944" 
d="M642 1329q41 -126 170 -266l-47 -105l-14 -2q-109 130 -154 264q-64 -172 -170 -268l-10 4l-66 131q136 106 181 234l8 8h102zM591 -418q-141 0 -265.5 110.5t-160.5 319.5q-98 -12 -164 -12l-33 6v195l33 6l156 2q35 243 158 417.5t229 174.5q82 0 143 -141
q51 -118 51 -210.5t-96 -213.5l-31 -29h334l33 -6v-195l-33 -6h-137q63 -57 63 -109v-6q0 -38 -46 -147t-62 -125q-31 -31 -172 -31zM628 -217q82 0 137 18q-47 236 -354 258q-37 0 -164 -28q91 -248 381 -248zM253 207q278 0 373 151q-22 85 -64.5 153.5t-88.5 68.5
t-120 -104.5t-106 -268.5h6z" />
    <glyph glyph-name="uni06FF.fina" unicode="&#x6ff;" horiz-adv-x="1134" 
d="M792 1329q41 -126 170 -266l-47 -105l-14 -2q-109 130 -154 264q-64 -172 -170 -268l-10 4l-66 131q136 106 181 234l8 8h102zM675 580q-56 0 -135.5 -110.5t-103.5 -261.5l46 1q249 12 334 149q-52 222 -141 222zM783 -418q-142 0 -266 108t-162 314l-24 -4
q-53 0 -103 10l-200 185l10 24q160 -8 309 -10q35 243 157.5 417.5t229.5 174.5q82 0 138.5 -129.5t56.5 -220.5t-99 -215q-6 -10 -28 -29h334l32 -6v-195l-32 -6h-138q64 -60 64 -109v-5q0 -39 -47 -147.5t-64 -125.5q-26 -31 -168 -31zM818 -217q84 0 135 18
q-47 236 -352 258q-73 0 -162 -30q92 -246 379 -246z" />
    <glyph glyph-name="uniFB50" unicode="&#x671;" horiz-adv-x="552" arabic-form="isolated" 
d="M290 1362q-123 0 -204 33l-57 -82l-29 11q20 88 37 122q45 68 84 68l40 -11q138 221 245 221q52 0 99 -61.5t47 -121.5q0 -21 -31.5 -76.5t-47.5 -63.5q-60 -39 -183 -39zM384 1600q-68 0 -170 -108q62 -7 139 -7t141 23q-42 92 -110 92zM361 301q0 -26 -88 -301h-60
l-31 1110l142 135h37v-944z" />
    <glyph glyph-name="uniFB51" unicode="&#x671;" horiz-adv-x="581" arabic-form="final" 
d="M300 1362q-123 0 -204 33l-57 -82l-29 11q20 88 37 122q45 68 84 68l40 -11q138 221 245 221q52 0 99 -61.5t47 -121.5q0 -21 -31.5 -76.5t-47.5 -63.5q-60 -39 -183 -39zM394 1600q-68 0 -170 -108q62 -7 139 -7t141 23q-42 92 -110 92zM179 686v494l149 114h35v-991
q0 -63 61 -83q42 -13 158 -13l33 -6v-195l-33 -6q-211 0 -307 158.5t-96 527.5z" />
    <glyph glyph-name="uniFB52" unicode="&#x67b;" horiz-adv-x="1564" arabic-form="isolated" 
d="M653 -528q78 92 117 116q-65 55 -117 115q78 92 133 129q74 -49 129 -129q-39 -53 -113 -115q66 -51 113 -116q-55 -78 -129 -127q-78 61 -133 127zM624 0q-524 0 -524 365q0 204 160 442l57 -31q-80 -182 -80 -291q0 -278 426 -278q477 0 664 14q-25 195 -99 465
l140 137h37l79 -225l-2 -23l-47 -51q18 -119 18 -172q0 -54 -3 -84t-65 -124t-99 -117q-66 -27 -662 -27z" />
    <glyph glyph-name="uniFB53" unicode="&#x67b;" horiz-adv-x="1620" arabic-form="final" 
d="M632 -528q78 92 117 116q-64 55 -117 115q78 92 134 129q73 -49 129 -129q-39 -53 -113 -115q66 -51 113 -116q-56 -78 -129 -127q-76 61 -134 127zM624 0q-524 0 -524 365q0 204 160 442l57 -31q-82 -182 -82 -291q0 -278 428 -278q283 0 553 37q21 98 70 313l129 88
l28 -12q-26 -312 -47 -381q65 -45 226 -45l32 -6v-195l-32 -6q-252 0 -344 145q-72 -82 -99 -96q-155 -49 -555 -49z" />
    <glyph glyph-name="uniFB54" unicode="&#x67b;" horiz-adv-x="529" arabic-form="initial" 
d="M99 -520q76 92 115 117q-82 75 -115 114q76 92 131 129q74 -49 131 -129q-58 -75 -114 -114q65 -52 114 -117q-57 -78 -131 -129q-76 63 -131 129zM416 348.5q0 -51.5 -3 -81t-64.5 -125t-97.5 -117.5q-59 -25 -250 -25l-33 6v195l33 6q224 0 286 14q-24 195 -98 465
l141 137h37l82 -227l-4 -23l-47 -49q18 -124 18 -175.5z" />
    <glyph glyph-name="uniFB55" unicode="&#x67b;" horiz-adv-x="610" arabic-form="medial" 
d="M137 -524q76 94 115 118q-84 77 -115 113q76 94 131 131q74 -51 131 -131q-45 -62 -113 -113q66 -51 113 -118q-57 -76 -131 -127q-76 63 -131 127zM597 0q-218 0 -320 135q-80 -101 -104 -112q-48 -23 -172 -23l-33 6v195l33 6q132 0 203 18q20 97 73 332l127 84l29 -8
q-21 -302 -47 -381q65 -45 225 -45l33 -6v-195l-33 -6h-14z" />
    <glyph glyph-name="uniFB56" unicode="&#x67e;" horiz-adv-x="1564" arabic-form="isolated" 
d="M907 -530q-62 -70 -119 -121q-84 67 -121 121q45 69 121 122q68 -53 119 -122zM788 -309q-57 -62 -113 -117q-90 76 -126 129q51 72 126 127q42 -30 113 -109q49 62 115 109q74 -55 123 -127q-62 -74 -123 -129zM624 0q-524 0 -524 365q0 204 160 442l57 -31
q-80 -182 -80 -291q0 -278 426 -278q477 0 664 14q-25 195 -99 465l140 137h37l79 -225l-2 -23l-47 -51q18 -119 18 -172q0 -54 -3 -84t-65 -124t-99 -117q-66 -27 -662 -27z" />
    <glyph glyph-name="uniFB57" unicode="&#x67e;" horiz-adv-x="1620" arabic-form="final" 
d="M891 -528q-62 -70 -119 -121q-84 67 -121 121q45 67 121 122q67 -55 119 -122zM772 -309l-113 -115q-90 74 -127 129q51 72 127 127q52 -38 113 -111q49 64 114 111q74 -55 123 -127q-61 -76 -123 -129q-108 111 -114 115zM624 0q-524 0 -524 365q0 204 160 442l57 -31
q-82 -182 -82 -291q0 -278 428 -278q283 0 553 37q21 98 70 313l129 88l28 -12q-26 -312 -47 -381q65 -45 226 -45l32 -6v-195l-32 -6q-252 0 -344 145q-72 -82 -99 -96q-155 -49 -555 -49z" />
    <glyph glyph-name="uniFB58" unicode="&#x67e;" horiz-adv-x="529" arabic-form="initial" 
d="M347 -530q-62 -70 -119 -121q-84 67 -121 121q45 69 121 122q68 -53 119 -122zM228 -309q-57 -62 -113 -117q-90 76 -127 129q52 72 127 127q42 -30 113 -109q49 62 115 109q74 -55 123 -127q-62 -74 -123 -129zM416 348.5q0 -51.5 -3 -81t-64.5 -125t-97.5 -117.5
q-59 -25 -250 -25l-33 6v195l33 6q224 0 286 14q-24 195 -98 465l141 137h37l82 -227l-4 -23l-47 -49q18 -124 18 -175.5z" />
    <glyph glyph-name="uniFB59" unicode="&#x67e;" horiz-adv-x="610" arabic-form="medial" 
d="M412 -530q-61 -70 -118 -121q-86 67 -121 121q45 69 121 122q65 -53 118 -122zM294 -309l-113 -117q-90 76 -127 129q51 72 127 127q45 -34 113 -109q49 62 114 109q72 -55 123 -127q-61 -74 -123 -129q-110 111 -114 117zM597 0q-218 0 -320 135q-80 -101 -104 -112
q-48 -23 -172 -23l-33 6v195l33 6q132 0 203 18q20 97 73 332l127 84l29 -8q-21 -302 -47 -381q65 -45 225 -45l33 -6v-195l-33 -6h-14z" />
    <glyph glyph-name="uniFB5A" unicode="&#x680;" horiz-adv-x="1564" arabic-form="isolated" 
d="M905 -416l-107 107l-104 -107l104 -104zM798 -545q-28 -39 -112 -108q-84 63 -123 123q15 25 112 114q-86 71 -112 117q25 35 123 121q81 -56 112 -109q44 47 115 109q80 -55 121 -121q-30 -50 -111 -117q92 -85 111 -114q-37 -59 -121 -123q-91 69 -115 108zM624 0
q-524 0 -524 365q0 204 160 442l57 -31q-80 -182 -80 -291q0 -278 426 -278q477 0 664 14q-25 195 -99 465l140 137h37l79 -225l-2 -23l-47 -51q18 -119 18 -172q0 -54 -3 -84t-65 -124t-99 -117q-66 -27 -662 -27z" />
    <glyph glyph-name="uniFB5B" unicode="&#x680;" horiz-adv-x="1620" arabic-form="final" 
d="M884 -416l-106 105l-103 -105l103 -106zM780 -547q-45 -56 -115 -108q-77 61 -123 123q5 6 113 114q-80 69 -113 117l123 123q81 -62 115 -111q51 55 115 111q85 -71 120 -123q-34 -53 -110 -115q99 -99 110 -116q-30 -48 -120 -123q-92 69 -115 108zM624 0
q-524 0 -524 365q0 204 160 442l57 -31q-82 -182 -82 -291q0 -278 428 -278q283 0 553 37q21 98 70 313l129 88l28 -12q-26 -312 -47 -381q65 -45 226 -45l32 -6v-195l-32 -6q-252 0 -344 145q-72 -82 -99 -96q-155 -49 -555 -49z" />
    <glyph glyph-name="uniFB5C" unicode="&#x680;" horiz-adv-x="533" arabic-form="initial" 
d="M322 -416l-106 105l-103 -105l103 -106zM218 -545q-50 -65 -115 -108q-62 46 -123 121q5 6 113 114q-80 69 -113 117l123 123q86 -66 113 -111q30 35 117 111q85 -71 120 -123q-7 -11 -110 -115q88 -82 110 -116q-36 -58 -120 -121q-87 62 -115 108zM414 348.5
q0 -51.5 -3 -81t-64.5 -125t-97.5 -117.5q-59 -25 -250 -25l-33 6v195l33 6q224 0 286 14q-24 195 -98 465l141 137h37l82 -227l-4 -23l-47 -49q18 -124 18 -175.5z" />
    <glyph glyph-name="uniFB5D" unicode="&#x680;" horiz-adv-x="610" arabic-form="medial" 
d="M412 -418l-106 107l-105 -107l105 -106zM306 -547q-28 -39 -113 -108q-83 63 -123 123q20 29 113 114q-79 64 -113 115q13 19 123 123q83 -64 113 -109q43 47 115 109q81 -63 122 -123q-32 -48 -112 -115q73 -63 112 -114q-37 -57 -122 -123q-92 69 -115 108zM597 0
q-218 0 -320 135q-80 -101 -104 -112q-48 -23 -172 -23l-33 6v195l33 6q132 0 203 18q20 97 73 332l127 84l29 -8q-21 -302 -47 -381q65 -45 225 -45l33 -6v-195l-33 -6h-14z" />
    <glyph glyph-name="uniFB5E" unicode="&#x67a;" horiz-adv-x="1564" arabic-form="isolated" 
d="M624 0q-524 0 -524 365q0 204 160 442l57 -31q-80 -182 -80 -291q0 -278 426 -278q477 0 664 14q-25 195 -99 465l140 137h37l79 -225l-2 -23l-47 -51q18 -119 18 -172q0 -54 -3 -84t-65 -124t-99 -117q-66 -27 -662 -27zM661 942q78 92 117 119q-48 37 -117 113
q78 92 133 131q74 -52 129 -131q-45 -63 -112 -113q65 -51 112 -119q-55 -76 -129 -127q-78 64 -133 127z" />
    <glyph glyph-name="uniFB5F" unicode="&#x67a;" horiz-adv-x="1620" arabic-form="final" 
d="M624 0q-524 0 -524 365q0 204 160 442l57 -31q-82 -182 -82 -291q0 -278 428 -278q283 0 553 37q21 98 70 313l129 88l28 -12q-26 -312 -47 -381q65 -45 226 -45l32 -6v-195l-32 -6q-252 0 -344 145q-72 -82 -99 -96q-155 -49 -555 -49zM653 879q76 92 115 118
q-51 43 -115 113q76 92 131 131q74 -51 131 -131q-45 -62 -113 -113q66 -51 113 -118q-57 -76 -131 -127q-76 63 -131 127z" />
    <glyph glyph-name="uniFB60" unicode="&#x67a;" horiz-adv-x="529" arabic-form="initial" 
d="M416 348.5q0 -51.5 -3 -81t-64.5 -125t-97.5 -117.5q-59 -25 -250 -25l-33 6v195l33 6q224 0 286 14q-24 195 -98 465l141 137h37l82 -227l-4 -23l-47 -49q18 -124 18 -175.5zM158 1151q76 92 115 117q-74 67 -115 114q76 93 132 129q73 -49 131 -129q-39 -53 -113 -114
q66 -51 113 -117q-58 -78 -131 -127q-76 61 -132 127z" />
    <glyph glyph-name="uniFB61" unicode="&#x67a;" horiz-adv-x="610" arabic-form="medial" 
d="M597 0q-218 0 -320 135q-80 -101 -104 -112q-48 -23 -172 -23l-33 6v195l33 6q132 0 203 18q20 97 73 332l127 84l29 -8q-21 -302 -47 -381q65 -45 225 -45l33 -6v-195l-33 -6h-14zM201 958q78 93 117 119q-62 53 -117 113q78 92 134 131q73 -51 129 -131
q-46 -62 -113 -113q66 -51 113 -119q-56 -75 -129 -127q-78 64 -134 127z" />
    <glyph glyph-name="uniFB62" unicode="&#x67f;" horiz-adv-x="1564" arabic-form="isolated" 
d="M624 0q-524 0 -524 365q0 204 160 442l57 -31q-80 -182 -80 -291q0 -278 426 -278q477 0 664 14q-25 195 -99 465l140 137h37l79 -225l-2 -23l-47 -51q18 -119 18 -172q0 -54 -3 -84t-65 -124t-99 -117q-66 -27 -662 -27zM880 989l-106 107l-103 -107l103 -106zM776 860
q-40 -52 -115 -108q-77 61 -123 122q7 10 113 115q-84 71 -113 115l123 123q83 -64 113 -109q52 56 117 109q85 -71 120 -123q-7 -11 -110 -115q87 -81 110 -115q-27 -45 -120 -122q-92 69 -115 108z" />
    <glyph glyph-name="uniFB63" unicode="&#x67f;" horiz-adv-x="1620" arabic-form="final" 
d="M624 0q-524 0 -524 365q0 204 160 442l57 -31q-82 -182 -82 -291q0 -278 428 -278q283 0 553 37q21 98 70 313l129 88l28 -12q-26 -312 -47 -381q65 -45 226 -45l32 -6v-195l-32 -6q-252 0 -344 145q-72 -82 -99 -96q-155 -49 -555 -49zM878 977l-106 106l-105 -106
l105 -105zM772 848q-37 -52 -113 -109q-77 62 -123 123q15 26 113 115q-80 68 -113 117q37 44 123 120q81 -56 113 -108q52 56 116 108q78 -58 121 -120q-28 -47 -112 -117q80 -70 112 -115q-27 -45 -121 -123q-76 59 -116 109z" />
    <glyph glyph-name="uniFB64" unicode="&#x67f;" horiz-adv-x="537" arabic-form="initial" 
d="M388 1307l-107 104l-104 -104l104 -107zM281 1178q-45 -64 -112 -109q-85 64 -123 121q15 25 113 115q-81 68 -113 116q13 20 123 123q86 -66 112 -110q16 18 115 110q82 -63 123 -123q-33 -48 -113 -114q88 -82 113 -117q-46 -68 -123 -121q-81 58 -115 109zM414 348.5
q0 -51.5 -3 -81t-64.5 -125t-97.5 -117.5q-59 -25 -250 -25l-33 6v195l33 6q224 0 286 14q-24 195 -98 465l141 137h37l82 -227l-4 -23l-47 -49q18 -124 18 -175.5z" />
    <glyph glyph-name="uniFB65" unicode="&#x67f;" horiz-adv-x="610" arabic-form="medial" 
d="M597 0q-218 0 -320 135q-80 -101 -104 -112q-48 -23 -172 -23l-33 6v195l33 6q132 0 203 18q20 97 73 332l127 84l29 -8q-21 -302 -47 -381q65 -45 225 -45l33 -6v-195l-33 -6h-14zM437 1092l-107 106l-104 -106l104 -105zM330 963q-37 -52 -112 -109q-77 61 -123 123
q15 25 113 115q-81 68 -113 116q36 45 123 121q75 -52 112 -108q44 46 115 108q70 -48 123 -121q-33 -50 -113 -116q81 -70 113 -115q-37 -57 -123 -123q-71 54 -115 109z" />
    <glyph glyph-name="uniFB66" unicode="&#x679;" horiz-adv-x="1564" arabic-form="isolated" 
d="M921 1204q53 0 101 -63t48 -124q0 -21 -34 -73t-51 -63q-55 -35 -159 -35t-171 13l-123 96l5 18l125 -7l18 28q-18 182 -23 281l-17 47l84 80l18 -11v-35l46 -80l-34 -35l-2 -86q0 -18 -33 -101q113 150 202 150zM897 1081q-72 0 -180 -116q40 -2 136 -2t158 24
q-42 94 -114 94zM624 0q-524 0 -524 365q0 204 160 442l57 -31q-80 -182 -80 -291q0 -278 426 -278q477 0 664 14q-25 195 -99 465l140 137h37l79 -225l-2 -23l-47 -51q18 -119 18 -172t-3 -83.5t-65 -124.5t-99 -117q-66 -27 -662 -27z" />
    <glyph glyph-name="uniFB67" unicode="&#x679;" horiz-adv-x="1610" arabic-form="final" 
d="M881 1164q53 0 101 -63t48 -124q0 -21 -34 -73t-51 -63q-55 -35 -159 -35t-171 13l-123 96l5 18l125 -7l18 28q-18 182 -23 281l-17 47l84 80l18 -11v-35l46 -80l-34 -35l-2 -86q0 -18 -33 -101q113 150 202 150zM857 1041q-72 0 -180 -116q40 -2 136 -2t158 24
q-42 94 -114 94zM614 0q-524 0 -524 365q0 204 160 442l57 -31q-82 -182 -82 -291q0 -278 428 -278q283 0 553 37q21 98 70 313l129 88l28 -12q-26 -312 -47 -381q65 -45 226 -45l32 -6v-195l-32 -6q-252 0 -344 145q-72 -82 -99 -96q-155 -49 -555 -49z" />
    <glyph glyph-name="uniFB68" unicode="&#x679;" horiz-adv-x="583" arabic-form="initial" 
d="M394 1400q53 0 101 -63t48 -124q0 -21 -34 -73t-51 -63q-55 -35 -159 -35t-171 13l-123 96l5 18l125 -7l18 28q-18 182 -23 281l-17 47l84 80l18 -11v-35l46 -80l-34 -35l-2 -86q0 -18 -33 -101q113 150 202 150zM370 1277q-72 0 -180 -116q40 -2 136 -2t158 24
q-42 94 -114 94zM460 347q0 -51 -3 -80t-64.5 -124t-98.5 -118q-59 -25 -293 -25l-33 6v195l33 6q261 0 332 16q-25 195 -97 463l140 137h34l82 -227l-2 -23l-49 -49q19 -126 19 -177z" />
    <glyph glyph-name="uniFB69" unicode="&#x679;" horiz-adv-x="610" arabic-form="medial" 
d="M401 1204q53 0 101 -63t48 -124q0 -21 -34 -73t-51 -63q-55 -35 -159 -35t-171 13l-123 96l5 18l125 -7l18 28q-18 182 -23 281l-17 47l84 80l18 -11v-35l46 -80l-34 -35l-2 -86q0 -18 -33 -101q113 150 202 150zM377 1081q-72 0 -180 -116q40 -2 136 -2t158 24
q-42 94 -114 94zM597 0q-218 0 -320 135q-80 -101 -104 -112q-48 -23 -172 -23l-33 6v195l33 6q132 0 203 18q20 97 73 332l127 84l29 -8q-21 -302 -47 -381q65 -45 225 -45l33 -6v-195l-33 -6h-14z" />
    <glyph glyph-name="uniFB6A" unicode="&#x6a4;" horiz-adv-x="1548" arabic-form="isolated" 
d="M100 365q0 204 160 442l59 -31q-82 -182 -82 -291q0 -278 440.5 -278t665.5 22q6 68 6 111.5t-14 112.5l-57 -101q-84 -35 -206.5 -35t-183.5 76q-61 89 -61 189q4 135 93 271q102 157 237.5 157t223 -195.5t87.5 -423.5q0 -65 -9.5 -115.5t-74.5 -135.5t-90 -95
q-135 -45 -664.5 -45t-529.5 365zM1110 809q-67 0 -124.5 -77.5t-78.5 -176.5q78 -59 194.5 -59t219.5 28q-74 285 -211 285zM1247 1424v-1q92 -75 129 -129q-51 -71 -129 -127q-68 52 -111 109q-49 -64 -114 -109q-74 56 -123 127q61 74 123 129l114 -116q110 117 111 117z
M1018 1528q61 69 118 121q84 -68 121 -121q-47 -70 -121 -123q-67 53 -118 123z" />
    <glyph glyph-name="uniFB6B" unicode="&#x6a4;" horiz-adv-x="1682" arabic-form="final" 
d="M1075 193q-165 129 -165 259q0 44 5 70q18 111 129.5 244t228 133t199 -141.5t82.5 -321.5q0 -105 -135 -227l37 -2h227l33 -6v-195l-33 -6h-96q-168 0 -332 82q-244 -119 -635 -119q-520 0 -520 361q0 202 160 442l59 -33q-82 -182 -82 -291q0 -270 422 -270
q238 0 416 21zM1232.5 692q-68.5 0 -139 -70t-104.5 -159q107 -142 293 -217l20 10q67 38 121 98q-8 122 -65 230t-125.5 108zM1380 1065q-42 30 -113 109q-49 -62 -114 -109q-74 55 -123 127q61 76 123 129l114 -115q19 18 63 63l50 52q90 -76 127 -129q-51 -72 -127 -127z
M1149 1425q61 70 118 121q86 -67 121 -121q-45 -67 -121 -122q-65 55 -118 122z" />
    <glyph glyph-name="uniFB6C" unicode="&#x6a4;" horiz-adv-x="818" arabic-form="initial" 
d="M380 809q-67 0 -124.5 -77.5t-78.5 -176.5q78 -59 194.5 -59t219.5 28q-75 285 -211 285zM238 0h-237l-33 6v195l33 6h323q176 0 289 22q6 37 6 93.5t-12 130.5l-59 -101q-84 -35 -189 -35q-153 0 -198 76q-64 83 -64 189q4 135 93 271q102 157 237.5 157t223 -195.5
t87.5 -423.5q0 -70 -11.5 -121.5t-70.5 -134t-78 -88.5q-99 -47 -340 -47zM503 1424v-1q90 -75 127 -129q-50 -71 -127 -127q-61 46 -113 109q-49 -64 -115 -109q-71 56 -123 127q62 74 123 129l117 -116q109 117 111 117zM271 1528q64 69 119 121q86 -68 121 -121
q-45 -70 -121 -123q-66 53 -119 123z" />
    <glyph glyph-name="uniFB6D" unicode="&#x6a4;" horiz-adv-x="897" arabic-form="medial" 
d="M271 207q-146 124 -146 245q0 43 5 70q18 111 129 244t228 133t199.5 -141.5t82.5 -321.5q0 -105 -135 -227l39 -2h225l33 -6v-195l-33 -6h-96q-172 0 -347 90q-165 -90 -350 -90h-104l-33 6v195l33 6h270zM447 692q-68 0 -138.5 -70t-104.5 -159q108 -143 294 -217
l19 10q73 42 121 98q-9 122 -66 230t-125 108zM568 1065q-58 44 -111 109q-49 -62 -114 -109q-74 55 -125 127q63 76 125 129q108 -111 114 -115q86 86 111 115q90 -76 127 -129q-49 -72 -127 -127zM339 1425q61 70 118 121q84 -67 121 -121q-47 -67 -121 -122
q-67 55 -118 122z" />
    <glyph glyph-name="uniFB6E" unicode="&#x6a6;" horiz-adv-x="1548" arabic-form="isolated" 
d="M100 365q0 204 160 442l59 -31q-82 -182 -82 -291q0 -278 440.5 -278t665.5 22q6 68 6 111.5t-14 112.5l-57 -101q-84 -35 -206.5 -35t-183.5 76q-61 89 -61 189q4 135 93 271q102 157 237.5 157t223 -195.5t87.5 -423.5q0 -65 -9.5 -115.5t-74.5 -135.5t-90 -95
q-135 -45 -664.5 -45t-529.5 365zM1110 809q-67 0 -124.5 -77.5t-78.5 -176.5q78 -59 194.5 -59t219.5 28q-74 285 -211 285zM1237 1405l-107 104l-104 -104l104 -107zM1130 1276q-40 -53 -115 -109q-69 56 -122 121q4 7 114 117q-83 67 -114 115l122 122q85 -60 115 -110
q37 42 115 110q85 -65 121 -122q-31 -48 -111 -115q88 -82 111 -117q-35 -54 -121 -121q-91 70 -115 109z" />
    <glyph glyph-name="uniFB6F" unicode="&#x6a6;" horiz-adv-x="1682" arabic-form="final" 
d="M1587 0q-168 0 -332 82q-244 -119 -637 -119q-518 0 -518 361q0 202 160 442l59 -33q-82 -182 -82 -291q0 -270 420 -270q237 0 418 21q-102 78 -133.5 147t-31.5 112.5t5 69.5q18 111 129.5 244t228 133t198 -141.5t81.5 -321.5q0 -108 -135 -227l39 -2h225l35 -6v-195
l-35 -6h-94zM1222 692q-59 0 -130 -70t-105 -159q112 -143 295 -217l20 10q67 38 121 98q-8 122 -65.5 230t-135.5 108zM1368 1303l-107 106l-102 -106l102 -105zM1263 1174q-40 -53 -114 -109q-77 61 -123 123q4 7 112 115q-80 68 -112 116q14 19 123 121q75 -52 114 -108
q58 62 115 108q78 -58 121 -121q-10 -15 -111 -116q92 -85 111 -115q-30 -47 -121 -123q-91 70 -115 109z" />
    <glyph glyph-name="uniFB70" unicode="&#x6a6;" horiz-adv-x="818" arabic-form="initial" 
d="M380 809q-67 0 -124.5 -77.5t-78.5 -176.5q78 -59 194.5 -59t219.5 28q-75 285 -211 285zM238 0h-237l-33 6v195l33 6h323q176 0 289 22q6 37 6 93.5t-12 130.5l-59 -101q-84 -35 -189 -35q-153 0 -198 76q-64 83 -64 189q4 135 93 271q102 157 237.5 157t223 -195.5
t87.5 -423.5q0 -70 -11.5 -121.5t-70.5 -134t-78 -88.5q-99 -47 -340 -47zM496 1405l-106 104l-105 -104l105 -107zM390 1276q-28 -40 -113 -109q-78 60 -123 121q7 10 113 117q-89 72 -113 115q13 19 123 122q86 -66 113 -110q16 18 115 110q84 -65 120 -122
q-30 -48 -110 -115q88 -82 110 -117q-34 -54 -120 -121q-92 70 -115 109z" />
    <glyph glyph-name="uniFB71" unicode="&#x6a6;" horiz-adv-x="897" arabic-form="medial" 
d="M271 207q-146 124 -146 245q0 43 5 70q18 111 129 244t228 133t199.5 -141.5t82.5 -321.5q0 -105 -135 -227l39 -2h225l33 -6v-195l-33 -6h-96q-172 0 -347 90q-165 -90 -350 -90h-104l-33 6v195l33 6h270zM447 692q-68 0 -138.5 -70t-104.5 -159q108 -143 294 -217
l19 10q73 42 121 98q-9 122 -66 230t-125 108zM560 1303l-107 106l-104 -106l104 -105zM453 1174q-37 -52 -112 -109q-77 61 -123 123q15 25 112 115q-80 68 -112 116q27 37 123 121q81 -56 112 -108q52 55 117 108q78 -58 121 -121q-28 -46 -113 -116q81 -70 113 -115
q-30 -47 -121 -123q-76 58 -117 109z" />
    <glyph glyph-name="uniFB72" unicode="&#x684;" horiz-adv-x="1300" arabic-form="isolated" 
d="M632 -145q46 60 107 106q-61 47 -107 111q54 73 123 121q72 -60 125 -121q-71 -86 -108 -111q68 -62 108 -106q-71 -88 -125 -125q-69 49 -123 125zM825 -627q-257 0 -439 102q-153 87 -194 206q-44 108 -44 218q0 13 1 27q46 310 418 518q53 27 188 39l2 11
q-110 10 -259 41t-195 34l-160 -141l-43 37q158 295 231 295q42 0 275.5 -47t392.5 -47h213l8 -25l-65 -162h-105q-301 -70 -608 -323q-169 -142 -203 -306q141 -251 670 -251q117 0 354 22l13 -43q-319 -205 -451 -205z" />
    <glyph glyph-name="uniFB73" unicode="&#x684;" horiz-adv-x="1326" arabic-form="final" 
d="M635 -145q45 60 106 106q-61 47 -106 111q53 73 122 121q72 -60 125 -121q-71 -86 -108 -111q68 -62 108 -106q-71 -88 -125 -125q-69 49 -122 125zM1226 0q-265 0 -265 275q0 79 30 188q-283 -88 -549 -307q-169 -142 -203 -306q141 -251 670 -251q117 0 354 22l13 -43
q-319 -205 -451 -205q-257 0 -439 102q-153 87 -194 206q-44 108 -44 218q0 13 1 27q46 310 418 518q53 27 188 39l2 11q-110 10 -259 41t-195 34l-160 -141l-43 37q158 295 231 295q42 0 275.5 -47t392.5 -47h213l8 -25l-65 -162l-101 2q-2 -36 -2 -96.5t22 -104.5
q38 -73 159 -73h94l33 -6v-195l-33 -6h-101z" />
    <glyph glyph-name="uniFB74" unicode="&#x684;" horiz-adv-x="1308" arabic-form="initial" 
d="M732 -317q55 71 115 112q-66 51 -115 119q57 76 131 127q76 -64 131 -127q-76 -92 -115 -119q84 -76 115 -112q-76 -95 -131 -132q-74 52 -131 132zM161 0h-160l-33 6v195l33 6h237q224 0 428 90q116 53 144 61q-111 36 -246 111l-250 141l-186 -127l-43 47
q182 258 280 258q23 0 301 -153q226 -129 385 -129h168l9 -27l-66 -155h-162q-31 -5 -375 -201q-205 -123 -464 -123z" />
    <glyph glyph-name="uniFB75" unicode="&#x684;" horiz-adv-x="1327" arabic-form="medial" 
d="M599 -336q39 53 112 115q-65 49 -112 117q55 75 129 127q78 -64 133 -127q-78 -93 -117 -117q65 -55 117 -115q-78 -92 -133 -131q-74 51 -129 131zM161 0h-160l-33 6v195l33 6h237q230 0 430 92q107 49 142 59q-115 39 -246 111l-250 141l-186 -127l-43 47
q182 258 280 258q23 0 301 -153q226 -129 385 -129h164l8 -27l-67 -155l-101 -7q5 -110 130 -110h143l33 -6v-195l-33 -6h-152q-203 0 -203 217q0 44 9 98q-37 -8 -357 -192q-205 -123 -464 -123z" />
    <glyph glyph-name="uniFB76" unicode="&#x683;" horiz-adv-x="1300" arabic-form="isolated" 
d="M864 -125q-53 36 -113 109q-49 -64 -112 -109q-74 55 -125 127q61 74 125 127q90 -74 114 -113q51 61 111 113q90 -74 127 -127q-49 -72 -127 -127zM825 -627q-257 0 -439 102q-153 87 -194 206q-44 108 -44 218q0 13 1 27q46 310 418 518q53 27 188 39l2 11
q-110 10 -259 41t-195 34l-160 -141l-43 37q158 295 231 295q42 0 275.5 -47t392.5 -47h213l8 -25l-65 -162h-105q-301 -70 -608 -323q-169 -142 -203 -306q141 -251 670 -251q117 0 354 22l13 -43q-319 -205 -451 -205z" />
    <glyph glyph-name="uniFB77" unicode="&#x683;" horiz-adv-x="1326" arabic-form="final" 
d="M815 -145q-39 29 -111 108q-49 -63 -112 -108q-76 55 -125 127q61 73 125 127q88 -74 112 -111q57 62 111 111q90 -74 127 -127q-49 -72 -127 -127zM1226 0q-265 0 -265 275q0 79 30 188q-283 -88 -549 -307q-169 -142 -203 -306q141 -251 670 -251q117 0 354 22l13 -43
q-319 -205 -451 -205q-257 0 -439 102q-153 87 -194 206q-44 108 -44 218q0 13 1 27q46 310 418 518q53 27 188 39l2 11q-110 10 -259 41t-195 34l-160 -141l-43 37q158 295 231 295q42 0 275.5 -47t392.5 -47h213l8 -25l-65 -162l-101 2q-2 -36 -2 -96.5t22 -104.5
q38 -73 159 -73h94l33 -6v-195l-33 -6h-101z" />
    <glyph glyph-name="uniFB78" unicode="&#x683;" horiz-adv-x="1308" arabic-form="initial" 
d="M906 -260q-58 45 -115 113q-49 -66 -116 -113q-76 57 -127 131q63 76 127 131q92 -76 118 -115q77 84 113 115q92 -76 131 -131q-51 -74 -131 -131zM161 0h-160l-33 6v195l33 6h237q224 0 428 90q116 53 144 61q-111 36 -246 111l-250 141l-186 -127l-43 47
q182 258 280 258q23 0 301 -153q226 -129 385 -129h168l9 -27l-66 -155h-162q-31 -5 -375 -201q-205 -123 -464 -123z" />
    <glyph glyph-name="uniFB79" unicode="&#x683;" horiz-adv-x="1327" arabic-form="medial" 
d="M799 -291q-58 45 -114 113q-51 -66 -117 -113q-76 58 -127 131q64 76 127 131q92 -75 119 -114q52 62 112 114q93 -75 132 -131q-52 -73 -132 -131zM161 0h-160l-33 6v195l33 6h237q230 0 430 92q107 49 142 59q-115 39 -246 111l-250 141l-186 -127l-43 47
q182 258 280 258q23 0 301 -153q226 -129 385 -129h164l8 -27l-67 -155l-101 -7q5 -110 130 -110h143l33 -6v-195l-33 -6h-152q-203 0 -203 217q0 44 9 98q-37 -8 -357 -192q-205 -123 -464 -123z" />
    <glyph glyph-name="uniFB7A" unicode="&#x686;" horiz-adv-x="1300" arabic-form="isolated" 
d="M878 -172q-59 -66 -112 -115q-80 64 -115 115q43 66 115 117q63 -51 112 -117zM766 37q-82 -82 -107 -111q-86 72 -121 123q49 68 121 121q55 -41 107 -104q47 59 108 104q70 -53 117 -121q-60 -72 -117 -123q-104 105 -108 111zM825 -627q-257 0 -439 102
q-153 87 -194 206q-44 108 -44 218q0 13 1 27q46 310 418 518q53 27 188 39l2 11q-110 10 -259 41t-195 34l-160 -141l-43 37q158 295 231 295q42 0 275.5 -47t392.5 -47h213l8 -25l-65 -162h-105q-301 -70 -608 -323q-169 -142 -203 -306q141 -251 670 -251q117 0 354 22
l13 -43q-319 -205 -451 -205z" />
    <glyph glyph-name="uniFB7B" unicode="&#x686;" horiz-adv-x="1326" arabic-form="final" 
d="M835 -176q-59 -66 -112 -115q-80 66 -115 115q45 65 115 117q63 -52 112 -117zM723 33l-58 -61q-40 -42 -47 -50q-86 72 -121 123q47 68 121 121q53 -41 105 -105q47 60 108 105q70 -53 117 -121q-57 -70 -117 -123zM1226 0q-265 0 -265 275q0 79 30 188
q-283 -88 -549 -307q-169 -142 -203 -306q141 -251 670 -251q117 0 354 22l13 -43q-319 -205 -451 -205q-257 0 -439 102q-153 87 -194 206q-44 108 -44 218q0 13 1 27q46 310 418 518q53 27 188 39l2 11q-110 10 -259 41t-195 34l-160 -141l-43 37q158 295 231 295
q42 0 275.5 -47t392.5 -47h213l8 -25l-65 -162l-101 2q-2 -36 -2 -96.5t22 -104.5q38 -73 159 -73h94l33 -6v-195l-33 -6h-101z" />
    <glyph glyph-name="uniFB7C" unicode="&#x686;" horiz-adv-x="1308" arabic-form="initial" 
d="M918 -330q-61 -69 -119 -121q-86 68 -120 121q45 70 120 123q66 -53 119 -123zM799 -109l-112 -116q-90 75 -127 129q51 71 127 127q41 -31 112 -109q50 62 115 109q74 -56 123 -127q-61 -74 -123 -129q-110 110 -115 116zM161 0h-160l-33 6v195l33 6h237q224 0 428 90
q116 53 144 61q-111 36 -246 111l-250 141l-186 -127l-43 47q182 258 280 258q23 0 301 -153q226 -129 385 -129h168l9 -27l-66 -155h-162q-31 -5 -375 -201q-205 -123 -464 -123z" />
    <glyph glyph-name="uniFB7D" unicode="&#x686;" horiz-adv-x="1327" arabic-form="medial" 
d="M828 -360q-61 -70 -119 -121q-84 67 -120 121q47 69 120 122q68 -53 119 -122zM709 -139q-109 -117 -110 -117q-92 76 -127 129q49 72 127 127q57 -44 110 -109q50 62 115 109q74 -55 125 -127q-63 -74 -125 -129zM161 0h-160l-33 6v195l33 6h237q230 0 430 92
q107 49 142 59q-115 39 -246 111l-250 141l-186 -127l-43 47q182 258 280 258q23 0 301 -153q226 -129 385 -129h164l8 -27l-67 -155l-101 -7q5 -110 130 -110h143l33 -6v-195l-33 -6h-152q-203 0 -203 217q0 44 9 98q-37 -8 -357 -192q-205 -123 -464 -123z" />
    <glyph glyph-name="uniFB7E" unicode="&#x687;" horiz-adv-x="1300" arabic-form="isolated" 
d="M888 -33l-102 101l-98 -101l98 -102zM788 -158q-39 -51 -108 -102q-72 53 -119 117q26 33 108 108q-77 70 -108 111l119 119q89 -75 108 -107q42 48 109 107q88 -74 116 -119q-33 -50 -106 -109q84 -78 106 -110q-35 -56 -116 -117q-86 64 -109 102zM825 -627
q-257 0 -439 102q-153 87 -194 206q-44 108 -44 218q0 13 1 27q46 310 418 518q53 27 188 39l2 11q-110 10 -259 41t-195 34l-160 -141l-43 37q158 295 231 295q42 0 275.5 -47t392.5 -47h213l8 -25l-65 -162h-105q-301 -70 -608 -323q-169 -142 -203 -306
q141 -251 670 -251q117 0 354 22l13 -43q-319 -205 -451 -205z" />
    <glyph glyph-name="uniFB7F" unicode="&#x687;" horiz-adv-x="1326" arabic-form="final" 
d="M813 -59l-99 98l-98 -98l98 -99zM714 -180q-36 -50 -106 -101q-74 58 -115 115q17 25 107 107q-78 65 -107 108l115 115q81 -63 106 -105q24 28 107 105q86 -72 115 -115q-9 -12 -105 -108q85 -79 105 -107q-39 -57 -115 -115q-77 61 -107 101zM1226 0q-265 0 -265 275
q0 79 30 188q-283 -88 -549 -307q-169 -142 -203 -306q141 -251 670 -251q117 0 354 22l13 -43q-319 -205 -451 -205q-257 0 -439 102q-153 87 -194 206q-44 108 -44 218q0 13 1 27q46 310 418 518q53 27 188 39l2 11q-110 10 -259 41t-195 34l-160 -141l-43 37
q158 295 231 295q42 0 275.5 -47t392.5 -47h213l8 -25l-65 -162l-101 2q-2 -36 -2 -96.5t22 -104.5q38 -73 159 -73h94l33 -6v-195l-33 -6h-101z" />
    <glyph glyph-name="uniFB80" unicode="&#x687;" horiz-adv-x="1308" arabic-form="initial" 
d="M902 -207l-107 105l-102 -105l102 -104zM797 -336q-33 -43 -112 -108q-77 61 -123 122q31 40 113 115q-84 71 -113 115q18 24 123 123q76 -59 112 -111q18 22 113 111q77 -60 121 -123q-31 -48 -111 -115q92 -85 111 -115q-34 -56 -121 -122q-87 66 -113 108zM161 0h-160
l-33 6v195l33 6h237q224 0 428 90q116 53 144 61q-111 36 -246 111l-250 141l-186 -127l-43 47q182 258 280 258q23 0 301 -153q226 -129 385 -129h168l9 -27l-66 -155h-162q-31 -5 -375 -201q-205 -123 -464 -123z" />
    <glyph glyph-name="uniFB81" unicode="&#x687;" horiz-adv-x="1327" arabic-form="medial" 
d="M797 -238l-106 105l-102 -105l102 -104zM693 -367q-33 -43 -113 -108q-76 61 -123 123q23 32 113 114q-83 71 -113 115q19 25 123 123q83 -63 111 -111q16 19 115 111q77 -59 120 -123q-30 -48 -110 -115q91 -84 110 -114q-37 -59 -120 -123q-88 67 -113 108zM161 0h-160
l-33 6v195l33 6h237q230 0 430 92q107 49 142 59q-115 39 -246 111l-250 141l-186 -127l-43 47q182 258 280 258q23 0 301 -153q226 -129 385 -129h164l8 -27l-67 -155l-101 -7q5 -110 130 -110h143l33 -6v-195l-33 -6h-152q-203 0 -203 217q0 44 9 98q-37 -8 -357 -192
q-205 -123 -464 -123z" />
    <glyph glyph-name="uniFB82" unicode="&#x68d;" horiz-adv-x="942" arabic-form="isolated" 
d="M618 -449q-58 45 -115 113q-49 -65 -116 -113q-76 58 -127 132q63 75 127 131q92 -76 119 -115q51 62 112 115q92 -76 131 -131q-51 -74 -131 -132zM100 201q0 124 70 254l61 -19q-20 -69 -20 -121q1 -52 37 -80t206 -28t299 18q-101 271 -325 568l108 174h37
q289 -460 289 -693q0 -34 -58 -133t-86 -112q-68 -29 -356 -29q-262 0 -262 201z" />
    <glyph glyph-name="uniFB83" unicode="&#x68d;" horiz-adv-x="1020" arabic-form="final" 
d="M995 0q-159 0 -244 158l-96 -127q-84 -31 -293 -31q-262 0 -262 201q0 124 70 254l61 -19q-20 -69 -20 -121t36.5 -80t174 -28t301.5 10q-9 23 -242 596l121 154h37l155 -500q69 -194 95.5 -227t132.5 -33l32 -6v-195l-32 -6h-27zM626 -449q-58 45 -114 113
q-50 -65 -117 -113q-76 58 -127 132q63 75 127 131q92 -76 119 -115q51 62 112 115q92 -76 131 -131q-51 -74 -131 -132z" />
    <glyph glyph-name="uniFB84" unicode="&#x68c;" horiz-adv-x="942" arabic-form="isolated" 
d="M100 201q0 124 70 254l61 -19q-20 -69 -20 -121q1 -52 37 -80t206 -28t299 18q-101 271 -325 568l108 174h37q289 -460 289 -693q0 -34 -58 -133t-86 -112q-68 -29 -356 -29q-262 0 -262 201zM618 1171q-62 46 -112 113q-52 -65 -119 -113q-76 58 -127 132q63 75 127 131
q92 -76 119 -115q76 83 112 115q94 -76 131 -131q-51 -74 -131 -132z" />
    <glyph glyph-name="uniFB85" unicode="&#x68c;" horiz-adv-x="1020" arabic-form="final" 
d="M995 0q-159 0 -244 158l-96 -127q-84 -31 -293 -31q-262 0 -262 201q0 124 70 254l61 -19q-20 -69 -20 -121t36.5 -80t174 -28t301.5 10q-9 23 -242 596l121 154h37l155 -500q69 -194 95.5 -227t132.5 -33l32 -6v-195l-32 -6h-27zM657 1171q-53 39 -115 113
q-51 -65 -116 -113q-78 58 -127 132q63 75 127 131q92 -76 116 -115q76 82 115 115q92 -76 131 -131q-51 -74 -131 -132z" />
    <glyph glyph-name="uniFB86" unicode="&#x68e;" horiz-adv-x="942" arabic-form="isolated" 
d="M100 201q0 124 70 254l61 -19q-20 -69 -20 -121t36.5 -80t206.5 -28t299 18q-101 271 -325 568l108 174h37q289 -460 289 -693q0 -34 -57.5 -133t-86.5 -112q-68 -29 -356 -29q-262 0 -262 201zM637 1410v-1q90 -76 127 -129q-50 -72 -127 -127q-68 52 -111 109
q-51 -64 -117 -109q-71 55 -123 127q62 74 123 129l117 -117q109 118 111 118zM405 1513q64 70 119 121q86 -67 121 -121q-45 -69 -121 -122q-66 53 -119 122z" />
    <glyph glyph-name="uniFB87" unicode="&#x68e;" horiz-adv-x="1018" arabic-form="final" 
d="M993 0q-159 0 -244 158l-96 -127q-77 -31 -293 -31q-260 0 -260 201q0 107 68 254l61 -19q-20 -69 -20 -121t37 -80t174 -28t301 10l-242 596l121 154h37l157 -500q67 -192 94 -226t132 -34l32 -6v-195l-32 -6h-27zM688 1143q-58 44 -111 108q-51 -61 -117 -108
q-71 55 -122 127q61 73 122 129l117 -117q112 120 113 120l-2 -3q90 -76 127 -129q-49 -72 -127 -127zM458 1503q62 70 119 121q84 -68 119 -121q-45 -69 -119 -123q-67 54 -119 123z" />
    <glyph glyph-name="uniFB88" unicode="&#x688;" horiz-adv-x="942" arabic-form="isolated" 
d="M616 1506q53 0 101 -63t48 -124q0 -21 -34 -73t-51 -63q-55 -35 -159 -35t-171 13l-123 96l5 18l125 -7l18 28q-18 182 -23 281l-17 47l84 80l18 -11v-35l46 -80l-34 -35l-2 -86q0 -18 -33 -101q113 150 202 150zM592 1383q-72 0 -180 -116q40 -2 136 -2t158 24
q-42 94 -114 94zM100 201q0 124 70 254l61 -19q-20 -69 -20 -121t36.5 -80t206.5 -28t299 18q-101 271 -325 568l108 174h37q289 -460 289 -693q0 -34 -57.5 -133t-86.5 -112q-68 -29 -356 -29q-262 0 -262 201z" />
    <glyph glyph-name="uniFB89" unicode="&#x688;" horiz-adv-x="1020" arabic-form="final" 
d="M995 0q-159 0 -244 158l-96 -127q-84 -31 -293 -31q-262 0 -262 201q0 124 70 254l61 -19q-20 -69 -20 -121t36.5 -80t174 -28t301.5 10q-9 23 -242 596l121 154h37l155 -500q69 -194 95.5 -227t132.5 -33l32 -6v-195l-32 -6h-27zM686 1506q53 0 101 -63t48 -124
q0 -21 -34 -73t-51 -63q-55 -35 -159 -35t-171 13l-123 96l5 18l125 -7l18 28q-18 182 -23 281l-17 47l84 80l18 -11v-35l46 -80l-34 -35l-2 -86q0 -18 -33 -101q113 150 202 150zM662 1383q-72 0 -180 -116q40 -2 136 -2t158 24q-42 94 -114 94z" />
    <glyph glyph-name="uniFB8A" unicode="&#x698;" horiz-adv-x="785" arabic-form="isolated" 
d="M202 -199q150 0 273 135q92 102 140 240l-206 408l133 166h34q127 -388 127 -432v-1q2 -13 2 -237q-5 -123 -124.5 -299t-247.5 -176q-36 0 -167.5 69.5t-162.5 96.5l25 57q115 -27 174 -27zM573 938q-58 44 -111 109q-51 -62 -117 -109q-71 55 -123 127q62 76 123 129
q111 -111 117 -115q86 86 111 115q90 -76 127 -129q-50 -72 -127 -127zM343 1298q62 70 119 121q84 -67 119 -121q-45 -67 -119 -122q-68 55 -119 122z" />
    <glyph glyph-name="uniFB8B" unicode="&#x698;" horiz-adv-x="882" arabic-form="final" 
d="M859 0q-94 0 -190 84q-12 -139 -105 -294q-110 -185 -244 -185q-35 0 -160 69t-157 97l25 57q94 -25 159 -25q271 0 394 363q-11 26 -136 307l131 158h29l47 -195q39 -149 76.5 -189t155.5 -40l32 -6v-195l-32 -6h-25zM630 844q-53 38 -113 110q-49 -63 -115 -110
q-73 55 -123 127q62 76 123 129l115 -115q19 17 63 63l50 52q90 -74 127 -129q-52 -72 -127 -127zM398 1204q62 70 119 121q86 -68 121 -121q-45 -67 -121 -123q-68 56 -119 123z" />
    <glyph glyph-name="uniFB8C" unicode="&#x691;" horiz-adv-x="785" arabic-form="isolated" 
d="M596 1293q53 0 101 -63t48 -124q0 -21 -34 -73t-51 -63q-55 -35 -159 -35t-171 13l-123 96l5 18l125 -7l18 28q-18 182 -23 281l-17 47l84 80l18 -11v-35l46 -80l-34 -35l-2 -86q0 -18 -33 -101q113 150 202 150zM572 1170q-72 0 -180 -116q40 -2 136 -2t158 24
q-42 94 -114 94zM202 -199q150 0 273 135q92 102 140 240l-206 408l133 166h34q127 -388 127 -432v-1q2 -13 2 -237q-5 -123 -124.5 -299t-247.5 -176q-36 0 -167.5 69.5t-162.5 96.5l25 57q115 -27 174 -27z" />
    <glyph glyph-name="uniFB8D" unicode="&#x691;" horiz-adv-x="882" arabic-form="final" 
d="M859 0q-94 0 -190 84q-12 -139 -105 -294q-110 -185 -244 -185q-35 0 -160 69t-157 97l25 57q94 -25 159 -25q271 0 394 363q-11 26 -136 307l131 158h29l47 -195q39 -149 76.5 -189t155.5 -40l32 -6v-195l-32 -6h-25zM626 1193q53 0 101 -63t48 -124q0 -21 -34 -73
t-51 -63q-55 -35 -159 -35t-171 13l-123 96l5 18l125 -7l18 28q-18 182 -23 281l-17 47l84 80l18 -11v-35l46 -80l-34 -35l-2 -86q0 -18 -33 -101q113 150 202 150zM602 1070q-72 0 -180 -116q40 -2 136 -2t158 24q-42 94 -114 94z" />
    <glyph glyph-name="uniFB8E" unicode="&#x6a9;" horiz-adv-x="1573" arabic-form="isolated" 
d="M100 365q0 204 160 442l59 -31q-82 -182 -82 -291q0 -278 428 -278q479 0 680 14q-62 166 -436 400l-35 -35l-162 114q-3 2 -3 22q1 20 35 132q34 114 54 123l707 407l20 -14l-39 -205l-598 -307q278 -151 436 -327q132 -145 132 -240q0 -23 -58 -127t-84 -123
q-70 -41 -688 -41q-526 0 -526 365z" />
    <glyph glyph-name="uniFB8F" unicode="&#x6a9;" horiz-adv-x="1772" arabic-form="final" 
d="M1740 0q-146 0 -236 62q-60 41 -175 184q-107 -197 -146 -211q-79 -35 -559 -35q-524 0 -524 369q0 192 156 430l55 -33q-80 -182 -80 -291q0 -268 432 -268q374 0 553 14v12q0 103 -92 242l-197 285q-2 3 -2 19.5t32.5 108.5t51.5 99l615 408l20 -17l-39 -202l-514 -324
q52 -78 207.5 -298t239.5 -283.5t202 -63.5h33l33 -6v-195l-33 -6h-33z" />
    <glyph glyph-name="uniFB90" unicode="&#x6a9;" horiz-adv-x="938" arabic-form="initial" 
d="M310 207q309 0 395 24q-71 165 -432 390l-37 -35l-159 114q-3 3 -3 23t33.5 132.5t53.5 121.5l706 407l23 -14l-39 -205l-598 -307q277 -151 434 -327q131 -145 131 -240q0 -26 -44 -124.5t-69 -117.5q-62 -49 -420 -49h-284l-33 6v195l33 6h309z" />
    <glyph glyph-name="uniFB91" unicode="&#x6a9;" horiz-adv-x="925" arabic-form="medial" 
d="M77 0h-76l-33 6v195l33 6h123q186 0 247 16v12q0 101 -92 240l-196 285q-2 2 -2 20t32 109t52 98l612 408l22 -17l-38 -202l-514 -324q51 -78 207 -298t240 -284t202 -63h30l33 -6v-195l-33 -6h-30q-147 0 -237 63q-60 41 -179 187q-111 -204 -147 -217q-66 -33 -256 -33
z" />
    <glyph glyph-name="uniFB92" unicode="&#x6af;" horiz-adv-x="1573" arabic-form="isolated" 
d="M100 365q0 204 159 442l60 -31q-82 -182 -82 -291q0 -278 428 -278q479 0 680 14q-62 166 -436 400l-35 -35l-162 114q-3 2 -3 22t34 133t55 122l707 407l20 -14l-39 -205l-598 -307q277 -152 422 -312t145 -255q1 -23 -57 -127t-84 -123q-71 -41 -688 -41
q-526 0 -526 365zM753 1214l704 394l9 -11l-11 -84l-704 -393l-6 10z" />
    <glyph glyph-name="uniFB93" unicode="&#x6af;" horiz-adv-x="1772" arabic-form="final" 
d="M1740 0q-146 0 -236 62q-60 41 -176 184q-107 -197 -145 -211q-80 -35 -559 -35q-524 0 -524 369q0 192 155 430l56 -33q-80 -182 -80 -291q0 -268 432 -268q374 0 553 14v12q0 103 -92 242l-197 285q-2 3 -2 20t32 108.5t52 98.5l614 408l21 -17l-39 -202l-514 -324
q329 -493 445 -580q86 -65 204 -65h33l33 -6v-195l-33 -6h-33zM917 1190l686 438l6 -10l-10 -84l-684 -438l-6 10z" />
    <glyph glyph-name="uniFB94" unicode="&#x6af;" horiz-adv-x="938" arabic-form="initial" 
d="M310 207q309 0 395 24q-71 165 -432 390l-37 -35l-159 114q-3 3 -3 23t33.5 132.5t53.5 121.5l706 407l23 -14l-39 -205l-598 -307q277 -151 434 -327q131 -145 131 -240q0 -26 -44 -124.5t-69 -117.5q-62 -49 -420 -49h-284l-33 6v195l33 6h309zM115 1214l707 394l6 -11
l-10 -84l-703 -393l-6 10z" />
    <glyph glyph-name="uniFB95" unicode="&#x6af;" horiz-adv-x="925" arabic-form="medial" 
d="M77 0h-76l-33 6v195l33 6h123q186 0 248 16v10q0 101 -92 242l-197 285q-2 3 -2 20.5t32 108.5t52 98l612 408l23 -17l-39 -202l-514 -324q329 -493 445 -580q86 -65 204 -65h31l32 -6v-195l-32 -6h-31q-146 0 -237 63q-60 41 -179 187q-110 -204 -147 -217
q-66 -33 -256 -33zM71 1190l686 438l6 -10l-10 -84l-684 -438l-7 10z" />
    <glyph glyph-name="uniFB96" unicode="&#x6b3;" horiz-adv-x="1573" arabic-form="isolated" 
d="M626 -530q76 92 115 117q-74 67 -115 114q76 93 132 129q73 -49 131 -129q-39 -53 -113 -114q66 -51 113 -117q-58 -78 -131 -127q-76 61 -132 127zM100 365q0 204 159 442l60 -31q-82 -182 -82 -291q0 -278 428 -278q479 0 680 14q-62 166 -436 400l-35 -35l-162 114
q-3 2 -3 22t34 133t55 122l707 407l20 -14l-39 -205l-598 -307q277 -152 422 -312t145 -255q1 -23 -57 -127t-84 -123q-71 -41 -688 -41q-526 0 -526 365zM753 1214l704 394l9 -11l-11 -84l-704 -393l-6 10z" />
    <glyph glyph-name="uniFB97" unicode="&#x6b3;" horiz-adv-x="1772" arabic-form="final" 
d="M626 -530q76 92 115 117q-74 67 -115 114q76 93 132 129q73 -49 131 -129q-39 -53 -113 -114q66 -51 113 -117q-58 -78 -131 -127q-76 61 -132 127zM1740 0q-146 0 -236 62q-60 41 -176 184q-107 -197 -145 -211q-80 -35 -559 -35q-524 0 -524 369q0 192 155 430l56 -33
q-80 -182 -80 -291q0 -268 432 -268q374 0 553 14v12q0 103 -92 242l-197 285q-2 3 -2 20t32 108.5t52 98.5l614 408l21 -17l-39 -202l-514 -324q329 -493 445 -580q86 -65 204 -65h33l33 -6v-195l-33 -6h-33zM917 1190l686 438l6 -10l-10 -84l-684 -438l-6 10z" />
    <glyph glyph-name="uniFB98" unicode="&#x6b3;" horiz-adv-x="938" arabic-form="initial" 
d="M298 -530q76 92 115 117q-74 67 -115 114q76 93 132 129q73 -49 131 -129q-39 -53 -113 -114q66 -51 113 -117q-58 -78 -131 -127q-76 61 -132 127zM310 207q309 0 395 24q-71 165 -432 390l-37 -35l-159 114q-3 3 -3 23t33.5 132.5t53.5 121.5l706 407l23 -14l-39 -205
l-598 -307q277 -151 434 -327q131 -145 131 -240q0 -26 -44 -124.5t-69 -117.5q-62 -49 -420 -49h-284l-33 6v195l33 6h309zM115 1214l707 394l6 -11l-10 -84l-703 -393l-6 10z" />
    <glyph glyph-name="uniFB99" unicode="&#x6b3;" horiz-adv-x="925" arabic-form="medial" 
d="M298 -530q76 92 115 117q-74 67 -115 114q76 93 132 129q73 -49 131 -129q-39 -53 -113 -114q66 -51 113 -117q-58 -78 -131 -127q-76 61 -132 127zM77 0h-76l-33 6v195l33 6h123q186 0 248 16v10q0 101 -92 242l-197 285q-2 3 -2 20.5t32 108.5t52 98l612 408l23 -17
l-39 -202l-514 -324q329 -493 445 -580q86 -65 204 -65h31l32 -6v-195l-32 -6h-31q-146 0 -237 63q-60 41 -179 187q-110 -204 -147 -217q-66 -33 -256 -33zM71 1190l686 438l6 -10l-10 -84l-684 -438l-7 10z" />
    <glyph glyph-name="uniFB9A" unicode="&#x6b1;" horiz-adv-x="1573" arabic-form="isolated" 
d="M1052 1473q-45 34 -113 109q-49 -62 -114 -109q-72 55 -123 127q61 74 123 129q110 -111 114 -117q88 88 113 117q90 -76 127 -129q-49 -72 -127 -127zM100 365q0 204 159 442l60 -31q-82 -182 -82 -291q0 -278 428 -278q479 0 680 14q-62 166 -436 400l-35 -35l-162 114
q-3 2 -3 22t34 133t55 122l707 407l20 -14l-39 -205l-598 -307q277 -152 422 -312t145 -255q1 -23 -57 -127t-84 -123q-71 -41 -688 -41q-526 0 -526 365zM753 1214l704 394l9 -11l-11 -84l-704 -393l-6 10z" />
    <glyph glyph-name="uniFB9B" unicode="&#x6b1;" horiz-adv-x="1772" arabic-form="final" 
d="M1232 1473q-45 34 -113 109q-49 -62 -114 -109q-72 55 -123 127q61 74 123 129q110 -111 114 -117q88 88 113 117q90 -76 127 -129q-49 -72 -127 -127zM1740 0q-146 0 -236 62q-60 41 -176 184q-107 -197 -145 -211q-80 -35 -559 -35q-524 0 -524 369q0 192 155 430
l56 -33q-80 -182 -80 -291q0 -268 432 -268q374 0 553 14v12q0 103 -92 242l-197 285q-2 3 -2 20t32 108.5t52 98.5l614 408l21 -17l-39 -202l-514 -324q329 -493 445 -580q86 -65 204 -65h33l33 -6v-195l-33 -6h-33zM917 1190l686 438l6 -10l-10 -84l-684 -438l-6 10z" />
    <glyph glyph-name="uniFB9C" unicode="&#x6b1;" horiz-adv-x="938" arabic-form="initial" 
d="M452 1473q-45 34 -113 109q-49 -62 -114 -109q-72 55 -123 127q61 74 123 129q110 -111 114 -117q88 88 113 117q90 -76 127 -129q-49 -72 -127 -127zM310 207q309 0 395 24q-71 165 -432 390l-37 -35l-159 114q-3 3 -3 23t33.5 132.5t53.5 121.5l706 407l23 -14
l-39 -205l-598 -307q277 -151 434 -327q131 -145 131 -240q0 -26 -44 -124.5t-69 -117.5q-62 -49 -420 -49h-284l-33 6v195l33 6h309zM115 1214l707 394l6 -11l-10 -84l-703 -393l-6 10z" />
    <glyph glyph-name="uniFB9D" unicode="&#x6b1;" horiz-adv-x="925" arabic-form="medial" 
d="M382 1473q-45 34 -113 109q-49 -62 -114 -109q-72 55 -123 127q61 74 123 129q110 -111 114 -117q88 88 113 117q90 -76 127 -129q-49 -72 -127 -127zM77 0h-76l-33 6v195l33 6h123q186 0 248 16v10q0 101 -92 242l-197 285q-2 3 -2 20.5t32 108.5t52 98l612 408l23 -17
l-39 -202l-514 -324q329 -493 445 -580q86 -65 204 -65h31l32 -6v-195l-32 -6h-31q-146 0 -237 63q-60 41 -179 187q-110 -204 -147 -217q-66 -33 -256 -33zM71 1190l686 438l6 -10l-10 -84l-684 -438l-7 10z" />
    <glyph glyph-name="uniFB9E" unicode="&#x6ba;" horiz-adv-x="1163" arabic-form="isolated" 
d="M100 -39q0 203 160 442l53 -26q-76 -180 -76 -295q0 -266 330 -266q221 0 389 90q-20 231 -129 594l147 135h37q72 -304 72 -565q0 -45 -3 -88q-3 -42 -52 -134t-70 -110q-133 -133 -434 -133q-424 0 -424 356z" />
    <glyph glyph-name="uniFB9F" unicode="&#x6ba;" horiz-adv-x="1293" arabic-form="final" 
d="M100 -39q0 203 160 442l53 -26q-76 -180 -76 -295q0 -266 330 -266q217 0 389 90l-74 569l148 115h37l8 -154q9 -139 36 -175q40 -54 183 -54l33 -6v-195l-33 -6q-144 0 -209 92l2 -78q-54 -207 -129 -276q-133 -133 -434 -133q-424 0 -424 356z" />
    <glyph glyph-name="uniFBA0" unicode="&#x6bb;" horiz-adv-x="1163" arabic-form="isolated" 
d="M667 1005q53 0 101 -63t48 -124q0 -21 -34 -73t-51 -63q-55 -35 -159 -35t-171 13l-123 96l5 18l125 -7l18 28q-18 182 -23 281l-17 47l84 80l18 -11v-35l46 -80l-34 -35l-2 -86q0 -18 -33 -101q113 150 202 150zM643 882q-72 0 -180 -116q40 -2 136 -2t158 24
q-42 94 -114 94zM100 -39q0 203 159 442l54 -26q-76 -180 -76 -295q0 -266 330 -266q220 0 389 90q-21 231 -129 594l147 135h37q72 -304 72 -565q0 -45 -3.5 -88t-52.5 -134.5t-69 -109.5q-133 -133 -434 -133q-424 0 -424 356z" />
    <glyph glyph-name="uniFBA1" unicode="&#x6bb;" horiz-adv-x="1293" arabic-form="final" 
d="M697 1005q53 0 101 -63t48 -124q0 -21 -34 -73t-51 -63q-55 -35 -158.5 -35t-171.5 13l-123 96l6 18l124 -7l18 28q-18 182 -23 281l-17 47l84 80l18 -11v-35l46 -80l-34 -35l-1 -86q0 -18 -33 -101q113 150 201 150zM673.5 882q-72.5 0 -180.5 -116q41 -2 137 -2t158 24
q-42 94 -114.5 94zM100 -39q0 203 160 442l53 -26q-76 -180 -76 -295q0 -266 330 -266q217 0 389 90l-74 569l148 115h37l8 -154q9 -139 36 -175q40 -54 183 -54l33 -6v-195l-33 -6q-144 0 -209 92l2 -78q-54 -207 -129 -276q-133 -133 -434 -133q-424 0 -424 356z" />
    <glyph glyph-name="uniFBA2" unicode="&#x6bb;" horiz-adv-x="583" arabic-form="initial" 
d="M394 1400q53 0 101 -63t48 -124q0 -21 -34 -73t-51 -63q-55 -35 -159 -35t-171 13l-123 96l5 18l125 -7l18 28q-18 182 -23 281l-17 47l84 80l18 -11v-35l46 -80l-34 -35l-2 -86q0 -18 -33 -101q113 150 202 150zM370 1277q-72 0 -180 -116q40 -2 136 -2t158 24
q-42 94 -114 94zM460 347q0 -51 -3 -80t-64.5 -124t-98.5 -118q-59 -25 -293 -25l-33 6v195l33 6q261 0 332 16q-25 195 -97 463l140 137h34l82 -227l-2 -23l-49 -49q19 -126 19 -177z" />
    <glyph glyph-name="uniFBA3" unicode="&#x6bb;" horiz-adv-x="610" arabic-form="medial" 
d="M401 1204q53 0 101 -63t48 -124q0 -21 -34 -73t-51 -63q-55 -35 -159 -35t-171 13l-123 96l5 18l125 -7l18 28q-18 182 -23 281l-17 47l84 80l18 -11v-35l46 -80l-34 -35l-2 -86q0 -18 -33 -101q113 150 202 150zM377 1081q-72 0 -180 -116q40 -2 136 -2t158 24
q-42 94 -114 94zM597 0q-218 0 -320 135q-80 -101 -104 -112q-48 -23 -172 -23l-33 6v195l33 6q132 0 203 18q20 97 73 332l127 84l29 -8q-21 -302 -47 -381q65 -45 225 -45l33 -6v-195l-33 -6h-14z" />
    <glyph glyph-name="uniFBA4" unicode="&#x6c0;" horiz-adv-x="837" arabic-form="isolated" 
d="M418.5 207q145.5 0 238.5 37q-30 179 -240 379q-174 -175 -227 -336q83 -80 228.5 -80zM100 238q0 184 221 473l-56 45l103 190h37q352 -355 352 -670q0 -33 -44 -117.5t-56 -92.5q-92 -66 -253 -66t-243 79q-43 42 -52 79.5t-9 79.5zM347 1077q-26 0 -143 97l6 32
q96 0 119 4v2q-39 23 -39 96.5t51.5 139t124 65.5t104.5 -91q16 -45 19 -91l-35 -8q-27 49 -86.5 49t-118.5 -49q29 -86 123 -86q72 0 164 35l10 -15l-55 -120q-119 -60 -244 -60z" />
    <glyph glyph-name="uniFBA5" unicode="&#x6c0;" horiz-adv-x="955" arabic-form="final" 
d="M460 299q67 0 150 14l-25 308q-266 -121 -379 -244q82 -78 254 -78zM870 0q-208 0 -244 252l-86 -135q-69 -19 -141 -19q-226 0 -293 133q-6 14 -6 40.5t7.5 85t25.5 81.5q107 158 442 340l-6 86l149 109h37v-629q0 -97 18.5 -117t106.5 -20h76l33 -6v-195l-33 -6h-86z
M419 1057q-26 0 -143 96l6 33q96 0 119 4v2q-39 22 -39 95t51.5 138.5t124 65.5t103.5 -90q16 -45 18 -90l-33 -8q-27 49 -86.5 49t-118.5 -49q28 -86 114.5 -86t172.5 32l10 -14l-55 -119q-119 -59 -244 -59z" />
    <glyph glyph-name="uniFBA6" unicode="&#x6c1;" horiz-adv-x="837" arabic-form="isolated" 
d="M418.5 207q146.5 0 238.5 37q-30 179 -240 379q-175 -176 -225 -336q80 -80 226.5 -80zM100 238q0 184 221 473l-53 45l100 190h37q352 -355 352 -670q0 -33 -43.5 -117.5t-56.5 -92.5q-92 -66 -253 -66t-243 79q-43 42 -52 79.5t-9 79.5z" />
    <glyph glyph-name="uniFBA7" unicode="&#x6c1;" horiz-adv-x="961" arabic-form="final" 
d="M579 586q141 0 164 -137q23 -126 46 -164q48 -78 173 -78l33 -6v-195l-33 -6q-160 0 -234 116q-54 85 -83 287q-133 -4 -303.5 -81t-264.5 -164l-18 22l104 230q240 176 416 176z" />
    <glyph glyph-name="uniFBA8" unicode="&#x6c1;" horiz-adv-x="529" arabic-form="initial" 
d="M94 -414q0 142 155 279l49 -37q-58 -77 -82 -164l121 -72v-18l-78 -125q-156 66 -164 113q-1 12 -1 24zM416 348.5q0 -51.5 -3 -81t-64.5 -125t-97.5 -117.5q-59 -25 -250 -25l-33 6v195l33 6q224 0 286 14q-24 195 -98 465l141 137h37l82 -227l-4 -23l-47 -49
q18 -124 18 -175.5z" />
    <glyph glyph-name="uniFBA9" unicode="&#x6c1;" horiz-adv-x="831" arabic-form="medial" 
d="M28 -645q0 139 155 280l49 -38q-59 -79 -80 -162q121 -71 121 -73h-1l-1 1v-20l-78 -125q-155 69 -164 114q-1 12 -1 23zM197 -39q0 51 9 113q-54 -54 -70 -64t-135 -10l-33 6v195l33 6q193 0 266 22q30 57 78 127l129 52l8 -15q-154 -239 -154 -370q0 -176 166 -345l4 3
q-28 77 -28 174.5t28 171.5q12 27 78.5 94.5t81.5 71.5q72 14 174 14l33 -6v-195l-33 -6h-73q-125 0 -166 -8q-27 -57 -27 -135q0 -136 96 -271q-8 0 -141 -184h-6q-318 275 -318 559z" />
    <glyph glyph-name="uniFBAA" unicode="&#x6be;" horiz-adv-x="1283" arabic-form="isolated" 
d="M1203 147v-3q0 -43 -56.5 -129.5t-86.5 -86.5q-156 0 -406 148q-140 -76 -301 -76q-41 0 -118 14l-207 181l10 24q172 -12 338 -12h84q-35 27 -60 55q-33 67 -33 119t7 86q44 154 155 246l-77 41l79 182l37 8q369 -236 514 -432q121 -165 121 -365zM919 420v-6
q0 -117 -107 -221q161 -64 297 -76l-2 8q-45 208 -195 346q7 -28 7 -51zM649 633q-52 0 -115.5 -68.5t-96.5 -146.5q89 -95 262 -176q84 40 113 112q-11 109 -61 194t-102 85z" />
    <glyph glyph-name="uniFBAB" unicode="&#x6be;" horiz-adv-x="1134" arabic-form="final" 
d="M675 580q-56 0 -135.5 -110.5t-103.5 -261.5l46 1q249 12 334 149q-52 222 -141 222zM783 -418q-142 0 -266 108t-162 314l-24 -4q-53 0 -103 10l-200 185l10 24q160 -8 309 -10q35 243 157.5 417.5t229.5 174.5q82 0 138.5 -129.5t56.5 -220.5t-99 -215q-6 -10 -28 -29
h334l32 -6v-195l-32 -6h-138q64 -60 64 -109v-5q0 -39 -47 -147.5t-64 -125.5q-26 -31 -168 -31zM818 -217q84 0 135 18q-47 236 -352 258q-73 0 -162 -30q92 -246 379 -246z" />
    <glyph glyph-name="uniFBAC" unicode="&#x6be;" horiz-adv-x="1031" arabic-form="initial" 
d="M115 381q0 196 162 332l-77 41l80 182l36 8q368 -236 501.5 -417t133.5 -380v-3q0 -43 -56.5 -129.5t-86.5 -86.5q-157 0 -408 150q-152 -78 -315 -78h-84l-33 6v195l33 6h207q-35 27 -60 55q-33 67 -33 119zM667 420v-6q0 -118 -109 -221q160 -63 299 -76l-2 8
q-45 210 -197 346q9 -25 9 -51zM397 633q-52 0 -115.5 -68.5t-96.5 -146.5q89 -95 262 -176q80 37 113 112q-12 110 -61.5 194.5t-101.5 84.5z" />
    <glyph glyph-name="uniFBAD" unicode="&#x6be;" horiz-adv-x="944" arabic-form="medial" 
d="M591 -418q-141 0 -265.5 110.5t-160.5 319.5q-98 -12 -164 -12l-33 6v195l33 6l156 2q35 243 158 417.5t229 174.5q82 0 143 -141q51 -118 51 -210.5t-96 -213.5l-31 -29h334l33 -6v-195l-33 -6h-137q63 -57 63 -109v-6q0 -38 -46 -147t-62 -125q-31 -31 -172 -31z
M628 -217q82 0 137 18q-47 236 -354 258q-37 0 -164 -28q91 -248 381 -248zM253 207q278 0 373 151q-22 85 -64.5 153.5t-88.5 68.5t-120 -104.5t-106 -268.5h6z" />
    <glyph glyph-name="uniFBAE" unicode="&#x6d2;" horiz-adv-x="1492" arabic-form="isolated" 
d="M594 0q-264 0 -402 87q-92 58 -92 106q0 29 40 123.5t62 109.5q642 428 699 428q31 0 69 -62.5t38 -95.5q0 -4 -1 -8l-43 -221l-30 -2l-56 190q-172 -111 -647 -374q96 -74 481 -74h731v-33l-274 -174h-575z" />
    <glyph glyph-name="uniFBAF" unicode="&#x6d2;" horiz-adv-x="1292" arabic-form="final" 
d="M615 -528q-400 0 -481 161q-34 77 -34 127t8 80q29 110 182 223q194 144 444 144h559l33 -6v-195l-33 -6h-592q-354 0 -522 -246q121 -76 555 -76h483v-32l-287 -174h-315z" />
    <glyph glyph-name="uniFBB0" unicode="&#x6d3;" horiz-adv-x="1492" arabic-form="isolated" 
d="M594 0q-264 0 -402 87q-92 58 -92 106q0 29 40 123.5t62 109.5q642 428 699 428q31 0 69 -62.5t38 -95.5q0 -4 -1 -8l-43 -221l-30 -2l-56 190q-172 -111 -647 -374q96 -74 481 -74h731v-33l-274 -174h-575zM444 903q-27 0 -143 98l8 33q94 0 117 4v2q-39 23 -39 95.5
t52.5 138t124.5 65.5t103 -91q16 -45 19 -91l-33 -6q-35 47 -94 47t-113 -49q29 -86 125 -86q70 0 162 35l10 -15l-53 -118q-123 -62 -246 -62z" />
    <glyph glyph-name="uniFBB1" unicode="&#x6d3;" horiz-adv-x="1292" arabic-form="final" 
d="M615 -528q-400 0 -481 161q-34 76 -34 126.5t8 80.5q29 110 182 223q194 144 444 144h559l33 -6v-195l-33 -6h-592q-354 0 -522 -246q121 -76 555 -76h483v-32l-287 -174h-315zM427 383q-27 0 -143 96l6 33q96 0 119 4v2q-39 22 -39 95t51.5 138.5t124 65.5t104.5 -90
q16 -45 19 -90l-35 -8q-27 49 -86.5 49t-118.5 -49q27 -86 113.5 -86t173.5 32l10 -14l-55 -119q-119 -59 -244 -59z" />
    <glyph glyph-name="uniFBD3" unicode="&#x6ad;" horiz-adv-x="1546" arabic-form="isolated" 
d="M1369 1571q-45 34 -113 109q-49 -62 -114 -109q-72 55 -123 127q61 74 123 129q110 -111 114 -117q88 88 113 117q90 -76 127 -129q-49 -72 -127 -127zM1138 1931q61 70 118 121q86 -67 121 -121q-45 -69 -121 -122q-65 53 -118 122zM100 365q0 204 160 442l59 -31
q-82 -182 -82 -291q0 -278 428 -278q318 0 557 20l-22 891l-58 148l193 186l39 -25v-102l92 -166l-94 -100v-703q0 -62 -78 -183.5t-121 -139.5q-139 -33 -547 -33q-526 0 -526 365zM610 776q0 81 78 147.5t186 96.5l10 -12v-136q-135 -28 -204 -69q105 -16 149 -27
q92 -24 92 -94t-57 -123q-28 -28 -197 -43l-147 100v15q263 11 330 26q-5 3 -139 37q-101 25 -101 82z" />
    <glyph glyph-name="uniFBD4" unicode="&#x6ad;" horiz-adv-x="1563" arabic-form="final" 
d="M1369 1571q-45 34 -113 109q-49 -62 -114 -109q-72 55 -123 127q61 74 123 129q110 -111 114 -117q88 88 113 117q90 -76 127 -129q-49 -72 -127 -127zM1138 1931q61 70 118 121q86 -67 121 -121q-45 -69 -121 -122q-65 53 -118 122zM626 0q-526 0 -526 365
q0 204 160 442l59 -31q-82 -182 -82 -291q0 -278 428 -278q345 0 553 41l-26 1069l143 135h37v-999q0 -140 22 -181q37 -65 170 -65l33 -6v-195l-33 -6q-241 0 -309 205l-88 -146q-131 -59 -541 -59zM608 776q0 81 78 147.5t186 96.5l10 -12v-136q-135 -28 -204 -69
q111 -17 149 -27q92 -23 92 -102q0 -60 -55 -115q-28 -28 -199 -43l-145 100v15q263 12 330 26q-5 3 -123.5 32.5t-118.5 86.5z" />
    <glyph glyph-name="uniFBD5" unicode="&#x6ad;" horiz-adv-x="938" arabic-form="initial" 
d="M466 1311q-45 34 -113 109q-49 -62 -114 -109q-72 55 -123 127q61 74 123 129q110 -111 114 -117q88 88 113 117q90 -76 127 -129q-49 -72 -127 -127zM235 1671q61 70 118 121q86 -67 121 -121q-45 -69 -121 -122q-65 53 -118 122zM310 207q309 0 395 24
q-71 165 -432 390l-37 -35l-159 114q-3 3 -3 23t33.5 132.5t53.5 121.5l706 407l23 -14l-39 -205l-598 -307q277 -151 434 -327q131 -145 131 -240q0 -26 -44 -124.5t-69 -117.5q-62 -49 -420 -49h-284l-33 6v195l33 6h309z" />
    <glyph glyph-name="uniFBD6" unicode="&#x6ad;" horiz-adv-x="925" arabic-form="medial" 
d="M466 1311q-45 34 -113 109q-49 -62 -114 -109q-72 55 -123 127q61 74 123 129q110 -111 114 -117q88 88 113 117q90 -76 127 -129q-49 -72 -127 -127zM235 1671q61 70 118 121q86 -67 121 -121q-45 -69 -121 -122q-65 53 -118 122zM77 0h-76l-33 6v195l33 6h123
q186 0 247 16v12q0 101 -92 240l-196 285q-2 2 -2 20t32 109t52 98l612 408l22 -17l-38 -202l-514 -324q51 -78 207 -298t240 -284t202 -63h30l33 -6v-195l-33 -6h-30q-147 0 -237 63q-60 41 -179 187q-111 -204 -147 -217q-66 -33 -256 -33z" />
    <glyph glyph-name="uniFBD7" unicode="&#x6c7;" horiz-adv-x="899" arabic-form="isolated" 
d="M386 1195.5q0 26.5 10 44.5q51 117 150 117q45 0 70.5 -44t25.5 -92.5t-20 -92.5l57 -10v-19l-57 -78q-34 3 -68 13q-97 -88 -207 -105l-127 68l4 20q168 10 258 45q-75 38 -90 76q-6 31 -6 57.5zM521 1261q-26 0 -56 -19.5t-32 -37.5q42 -40 127 -62l8 14l4 31
q0 74 -51 74zM309 -197q290 0 397 242q-2 48 -16 117l-78 -127q-69 -35 -202.5 -35t-202.5 86q-62 89 -62 199q6 156 105 313.5t237 157.5t229 -180.5t91 -411.5q0 -78 -17 -168q-33 -154 -135 -272.5t-235 -118.5q-37 0 -167.5 71t-160.5 99l25 57q118 -29 192 -29z
M448 555q-76 0 -139.5 -89.5t-85.5 -203.5q66 -57 205.5 -57t245.5 24q-84 326 -226 326z" />
    <glyph glyph-name="uniFBD8" unicode="&#x6c7;" horiz-adv-x="920" arabic-form="final" 
d="M396 1195.5q0 26.5 10 44.5q51 117 150 117q45 0 70.5 -44t25.5 -92.5t-20 -92.5l57 -10v-19l-57 -78q-34 3 -68 13q-97 -88 -207 -105l-127 68l4 20q168 10 258 45q-75 38 -90 76q-6 31 -6 57.5zM531 1261q-26 0 -56 -19.5t-32 -37.5q42 -40 127 -62l8 14l4 31
q0 74 -51 74zM309 -197q279 0 397 197h-217q-217 0 -280 84q-64 103 -64 201q6 156 105 313.5t243 157.5q123 0 212.5 -169.5t97.5 -379.5h118l33 -6v-195l-33 -6h-137q-29 -154 -128.5 -274.5t-235.5 -120.5q-37 0 -167.5 71t-160.5 99l25 57q118 -29 192 -29zM448 555
q-77 0 -141 -91.5t-84 -203.5q80 -53 266 -53h201v6q-26 124 -95.5 233t-146.5 109z" />
    <glyph glyph-name="uniFBD9" unicode="&#x6c6;" horiz-adv-x="899" arabic-form="isolated" 
d="M309 -197q290 0 397 242q-2 48 -16 117l-78 -127q-69 -35 -202.5 -35t-202.5 86q-62 89 -62 199q6 156 105 313.5t237 157.5t229 -180.5t91 -411.5q0 -78 -17 -168q-33 -154 -135 -272.5t-235 -118.5q-37 0 -167.5 71t-160.5 99l25 57q118 -29 192 -29zM448 555
q-76 0 -139.5 -89.5t-85.5 -203.5q66 -57 205.5 -57t245.5 24q-84 326 -226 326zM420 977l-6 8q-44 126 -183 234l66 131l12 4q107 -100 170 -269q41 132 152 265l14 -2l49 -105q-127 -134 -170 -266h-104z" />
    <glyph glyph-name="uniFBDA" unicode="&#x6c6;" horiz-adv-x="920" arabic-form="final" 
d="M309 -197q279 0 397 197h-217q-217 0 -280 84q-64 103 -64 201q6 156 105 313.5t243 157.5q123 0 212.5 -169.5t97.5 -379.5h118l33 -6v-195l-33 -6h-137q-29 -154 -128.5 -274.5t-235.5 -120.5q-37 0 -167.5 71t-160.5 99l25 57q118 -29 192 -29zM448 555
q-77 0 -141 -91.5t-84 -203.5q80 -53 266 -53h201v6q-26 124 -95.5 233t-146.5 109zM420 977l-6 8q-44 126 -183 234l66 131l12 4q107 -100 170 -269q41 132 152 265l14 -2l49 -105q-127 -134 -170 -266h-104z" />
    <glyph glyph-name="uniFBDB" unicode="&#x6c8;" horiz-adv-x="899" arabic-form="isolated" 
d="M406 897v336l98 43l17 -8l-27 -338l-67 -33h-21zM309 -197q290 0 397 242q-2 48 -16 117l-78 -127q-69 -35 -202.5 -35t-202.5 86q-62 89 -62 199q6 156 105 313.5t237 157.5t229 -180.5t91 -411.5q0 -78 -17 -168q-33 -154 -135 -272.5t-235 -118.5q-37 0 -167.5 71
t-160.5 99l25 57q118 -29 192 -29zM448 555q-76 0 -139.5 -89.5t-85.5 -203.5q66 -57 205.5 -57t245.5 24q-84 326 -226 326z" />
    <glyph glyph-name="uniFBDC" unicode="&#x6c8;" horiz-adv-x="920" arabic-form="final" 
d="M406 897v336l98 43l17 -8l-27 -338l-67 -33h-21zM309 -197q279 0 397 197h-217q-217 0 -280 84q-64 103 -64 201q6 156 105 313.5t243 157.5q123 0 212.5 -169.5t97.5 -379.5h118l33 -6v-195l-33 -6h-137q-29 -154 -128.5 -274.5t-235.5 -120.5q-37 0 -167.5 71
t-160.5 99l25 57q118 -29 192 -29zM448 555q-77 0 -141 -91.5t-84 -203.5q80 -53 266 -53h201v6q-26 124 -95.5 233t-146.5 109z" />
    <glyph glyph-name="uniFBDD" unicode="&#x677;" horiz-adv-x="1061" arabic-form="isolated" 
d="M266 1195.5q0 26.5 10 44.5q51 117 150 117q45 0 70.5 -44t25.5 -92.5t-20 -92.5l57 -10v-19l-57 -78q-34 3 -68 13q-97 -88 -207 -105l-127 68l4 20q168 10 258 45q-75 38 -90 76q-6 31 -6 57.5zM401 1261q-26 0 -56 -19.5t-32 -37.5q42 -40 127 -62l8 14l4 31
q0 74 -51 74zM309 -197q290 0 397 242q-2 48 -16 117l-78 -127q-69 -35 -202.5 -35t-202.5 86q-62 89 -62 199q6 156 105 313.5t237 157.5t229 -180.5t91 -411.5q0 -78 -17 -168q-33 -154 -135 -272.5t-235 -118.5q-37 0 -167.5 71t-160.5 99l25 57q118 -29 192 -29z
M448 555q-76 0 -139.5 -89.5t-85.5 -203.5q66 -57 205.5 -57t245.5 24q-84 326 -226 326zM724 932q-26 0 -145 96l8 33q96 0 119 4v2q-41 23 -41 95t52.5 138t124.5 66t104 -90q15 -45 18 -90l-33 -8q-35 47 -94 47t-113 -49q28 -84 114.5 -84t172.5 32l10 -14l-53 -119
q-119 -59 -244 -59z" />
    <glyph glyph-name="uniFBDE" unicode="&#x6cb;" horiz-adv-x="899" arabic-form="isolated" 
d="M575 897q-57 42 -112 109q-50 -63 -115 -109q-74 56 -123 127q61 74 123 129q110 -110 115 -116q84 84 112 116q90 -75 127 -129q-51 -71 -127 -127zM344 1258q61 70 119 121q86 -68 120 -121q-45 -70 -120 -123q-66 53 -119 123zM309 -197q290 0 397 242q-2 48 -16 117
l-78 -127q-69 -35 -202.5 -35t-202.5 86q-62 89 -62 199q6 156 105 313.5t237 157.5t229 -180.5t91 -411.5q0 -78 -17 -168q-33 -154 -135 -272.5t-235 -118.5q-37 0 -167.5 71t-160.5 99l25 57q118 -29 192 -29zM448 555q-76 0 -139.5 -89.5t-85.5 -203.5q66 -57 205.5 -57
t245.5 24q-84 326 -226 326z" />
    <glyph glyph-name="uniFBDF" unicode="&#x6cb;" horiz-adv-x="920" arabic-form="final" 
d="M575 897q-57 42 -112 109q-50 -63 -115 -109q-74 56 -123 127q61 74 123 129q110 -110 115 -116q84 84 112 116q90 -75 127 -129q-51 -71 -127 -127zM344 1258q61 70 119 121q86 -68 120 -121q-45 -70 -120 -123q-66 53 -119 123zM309 -197q279 0 397 197h-217
q-217 0 -280 84q-64 103 -64 201q6 156 105 313.5t243 157.5q123 0 212.5 -169.5t97.5 -379.5h118l33 -6v-195l-33 -6h-137q-29 -154 -128.5 -274.5t-235.5 -120.5q-37 0 -167.5 71t-160.5 99l25 57q118 -29 192 -29zM448 555q-77 0 -141 -91.5t-84 -203.5q80 -53 266 -53
h201v6q-26 124 -95.5 233t-146.5 109z" />
    <glyph glyph-name="uniFBE0" unicode="&#x6c5;" horiz-adv-x="899" arabic-form="isolated" 
d="M432.5 39q-133.5 0 -219.5 70q-68 66 -68 176q6 156 105 313.5t237 157.5t229 -180.5t91 -411.5q0 -78 -17 -168q-33 -154 -135 -272.5t-235 -118.5q-37 0 -167.5 71t-160.5 99l25 57q118 -29 192 -29q153 0 255 67h-336l49 113h396q18 29 33 62q-2 48 -16 117l-55 -88
q-69 -35 -202.5 -35zM448 555q-76 0 -139.5 -89.5t-85.5 -203.5q66 -57 205.5 -57t245.5 24q-84 326 -226 326z" />
    <glyph glyph-name="uniFBE1" unicode="&#x6c5;" horiz-adv-x="920" arabic-form="final" 
d="M448 555q-77 0 -141 -91.5t-84 -203.5q80 -53 266 -53h201v6q-26 124 -95.5 233t-146.5 109zM420 -395q-37 0 -167.5 71t-160.5 99l25 57q118 -29 192 -29q153 0 255 67h-336l49 113h396q18 29 33 62q-2 48 -16 117l-55 -88q-69 -35 -202.5 -35t-219.5 70q-68 66 -68 176
q6 156 105 313.5t237 157.5t231 -184q81 -160 88 -365h115l33 -6v-195l-33 -6h-130q-1 -2 -1 -4q-33 -154 -135 -272.5t-235 -118.5z" />
    <glyph glyph-name="uniFBE2" unicode="&#x6c9;" horiz-adv-x="899" arabic-form="isolated" 
d="M309 -197q290 0 397 242q-2 48 -16 117l-78 -127q-69 -35 -202.5 -35t-202.5 86q-62 89 -62 199q6 156 105 313.5t237 157.5t229 -180.5t91 -411.5q0 -78 -17 -168q-33 -154 -135 -272.5t-235 -118.5q-37 0 -167.5 71t-160.5 99l25 57q118 -29 192 -29zM448 555
q-76 0 -139.5 -89.5t-85.5 -203.5q66 -57 205.5 -57t245.5 24q-84 326 -226 326zM524 1354q43 -133 170 -267l-49 -104l-14 -2q-111 132 -152 264q-63 -168 -170 -268l-12 4l-66 131q139 108 183 234l6 8h104z" />
    <glyph glyph-name="uniFBE3" unicode="&#x6c9;" horiz-adv-x="920" arabic-form="final" 
d="M309 -197q279 0 397 197h-217q-217 0 -280 84q-64 103 -64 201q6 156 105 313.5t243 157.5q123 0 212.5 -169.5t97.5 -379.5h118l33 -6v-195l-33 -6h-137q-29 -154 -128.5 -274.5t-235.5 -120.5q-37 0 -167.5 71t-160.5 99l25 57q118 -29 192 -29zM448 555
q-77 0 -141 -91.5t-84 -203.5q80 -53 266 -53h201v6q-26 124 -95.5 233t-146.5 109zM524 1354q43 -133 170 -267l-49 -104l-14 -2q-111 132 -152 264q-63 -168 -170 -268l-12 4l-66 131q139 108 183 234l6 8h104z" />
    <glyph glyph-name="uniFBE4" unicode="&#x6d0;" horiz-adv-x="1317" arabic-form="isolated" 
d="M549 -915q76 92 115 117q-82 75 -115 114q76 92 131 129q74 -49 131 -129q-58 -75 -114 -114q65 -52 114 -117q-57 -78 -131 -129q-76 63 -131 129zM100 -55q0 202 160 448l59 -31q-82 -167 -82 -276q0 -281 326.5 -281t578.5 136q-22 82 -237 137q-259 64 -303 151
q-28 58 -28 117.5t18 118.5q32 119 176.5 239.5t316.5 120.5q43 0 92 -76t49 -113.5t-34 -211.5h-54l-45 205q-328 -18 -432 -238q39 -45 277 -108q299 -84 299 -279q0 -148 -72 -225q-48 -48 -238 -120.5t-407.5 -72.5t-328.5 116q-91 94 -91 243z" />
    <glyph glyph-name="uniFBE5" unicode="&#x6d0;" horiz-adv-x="1260" arabic-form="final" 
d="M499 -975q76 92 115 117q-82 75 -115 114q76 92 131 129q74 -49 131 -129q-58 -75 -114 -114q65 -52 114 -117q-57 -78 -131 -129q-76 63 -131 129zM100 -115q0 205 160 451l59 -33q-82 -168 -82 -274q0 -281 325.5 -281t549.5 121q-71 131 -279 131h-35l-6 10l62 191
l12 6h395l33 -6v-195l-33 -6h-76q25 -35 25 -74t-33.5 -131t-56.5 -110q-216 -156 -590 -156q-223 0 -336 115q-94 95 -94 241z" />
    <glyph glyph-name="uniFBE6" unicode="&#x6d0;" horiz-adv-x="529" arabic-form="initial" 
d="M99 -520q76 92 115 117q-82 75 -115 114q76 92 131 129q74 -49 131 -129q-58 -75 -114 -114q65 -52 114 -117q-57 -78 -131 -129q-76 63 -131 129zM416 348.5q0 -51.5 -3 -81t-64.5 -125t-97.5 -117.5q-59 -25 -250 -25l-33 6v195l33 6q224 0 286 14q-24 195 -98 465
l141 137h37l82 -227l-4 -23l-47 -49q18 -124 18 -175.5z" />
    <glyph glyph-name="uniFBE7" unicode="&#x6d0;" horiz-adv-x="610" arabic-form="medial" 
d="M137 -524q76 94 115 118q-84 77 -115 113q76 94 131 131q74 -51 131 -131q-45 -62 -113 -113q66 -51 113 -118q-57 -76 -131 -127q-76 63 -131 127zM597 0q-218 0 -320 135q-80 -101 -104 -112q-48 -23 -172 -23l-33 6v195l33 6q132 0 203 18q20 97 73 332l127 84l29 -8
q-21 -302 -47 -381q65 -45 225 -45l33 -6v-195l-33 -6h-14z" />
    <glyph glyph-name="uniFBE8" unicode="&#x649;" horiz-adv-x="527" arabic-form="initial" 
d="M414 339.5q0 -47.5 -2.5 -74.5t-63.5 -122t-97 -118q-59 -25 -250 -25l-33 6v195l33 6q224 0 286 14q-24 195 -98 465l141 137h35l82 -227l-2 -23l-47 -49q16 -137 16 -184.5z" />
    <glyph glyph-name="uniFBE9" unicode="&#x649;" horiz-adv-x="610" arabic-form="medial" 
d="M597 0q-218 0 -320 135q-80 -101 -104 -112q-48 -23 -172 -23l-33 6v195l33 6q132 0 203 18q20 97 73 332l127 84l29 -8q-21 -302 -47 -381q65 -45 225 -45l33 -6v-195l-33 -6h-14z" />
    <glyph glyph-name="uniFBFC" unicode="&#x6cc;" horiz-adv-x="1317" arabic-form="isolated" 
d="M100 -55q0 202 160 448l59 -31q-82 -167 -82 -276q0 -281 326.5 -281t578.5 136q-22 82 -237 137q-259 64 -303 151q-28 58 -28 117.5t18 118.5q32 119 176.5 239.5t316.5 120.5q43 0 92 -76t49 -113.5t-34 -211.5h-54l-45 205q-328 -18 -432 -238q39 -45 277 -108
q299 -84 299 -279q0 -148 -72 -225q-48 -48 -238 -120.5t-407.5 -72.5t-328.5 116q-91 94 -91 243z" />
    <glyph glyph-name="uniFBFD" unicode="&#x6cc;" horiz-adv-x="1260" arabic-form="final" 
d="M100 -115q0 205 160 451l59 -33q-82 -168 -82 -274q0 -281 325.5 -281t549.5 121q-71 131 -279 131h-35l-6 10l62 191l12 6h395l33 -6v-195l-33 -6h-76q25 -35 25 -74t-33.5 -131t-56.5 -110q-216 -156 -590 -156q-223 0 -336 115q-94 95 -94 241z" />
    <glyph glyph-name="uniFBFE" unicode="&#x6cc;" horiz-adv-x="557" arabic-form="initial" 
d="M365 -393q-37 27 -109 106q-47 -61 -111 -106q-71 53 -120 125q59 71 120 125q89 -74 113 -111q48 58 107 111q88 -74 125 -125q-50 -72 -125 -125zM444 339.5q0 -47.5 -2.5 -74.5t-63.5 -122t-97 -118q-59 -25 -280 -25l-33 6v195l33 6q254 0 316 14q-24 195 -98 465
l141 137h35l82 -227l-2 -23l-47 -49q16 -137 16 -184.5z" />
    <glyph glyph-name="uniFBFF" unicode="&#x6cc;" horiz-adv-x="610" arabic-form="medial" 
d="M384 -393q-50 37 -106 106q-49 -61 -113 -106q-72 53 -121 125q60 71 121 125q88 -74 113 -111q48 58 106 111q90 -74 125 -125q-47 -72 -125 -125zM597 0q-218 0 -320 135q-80 -101 -104 -112q-48 -23 -172 -23l-33 6v195l33 6q132 0 203 18q20 97 73 332l127 84l29 -8
q-21 -302 -47 -381q65 -45 225 -45l33 -6v-195l-33 -6h-14z" />
    <glyph glyph-name="uniFC5E" unicode="&#xfc5e;" arabic-form="isolated" 
d="M117.5 1668q-50.5 0 -83 34.5t-32.5 85.5v3q2 74 53 148l37 -11q-12 -47 -12 -80q0 -57 63 -57q21 0 50 8l36 138l68 38l12 -12l-10 -133q63 -18 89.5 -18t37.5 2l-39 151l92 58l13 -11q8 -109 8 -170q0 -19 -42.5 -81t-66.5 -62q-87 0 -155 43q-26 -39 -35 -49
q-33 -25 -83.5 -25zM173 2019q-118 0 -118 117q0 49 29 119l-113 -33l-16 39q100 80 143 80q19 0 37.5 -20.5t18.5 -41.5l-8 -37q-7 -33 -7 -51q0 -63 65 -63t118 33q-85 39 -95.5 70.5t-10.5 57t11 50.5q49 117 150 117q48 0 74 -43t26 -91t-20 -96l57 -8v-20l-55 -78
q-33 3 -66 12q-102 -113 -220 -113zM354 2357q-29 0 -58 -17.5t-32 -37.5q50 -41 129 -61l6 16l5 29q0 71 -50 71z" />
    <glyph glyph-name="uniFC5F" unicode="&#xfc5f;" arabic-form="isolated" 
d="M432 1777l-408 -125l-10 6l18 96l410 129l10 -12zM448 1962l-406 -125l-12 8l21 96l407 127l10 -10zM118.5 2081q-50.5 0 -82.5 34t-32 83v6q2 73 53 147l37 -10q-13 -45 -13 -80q0 -55 64 -55q27 0 49 6l37 139l67 37l13 -10l-11 -135q66 -19 92 -19t35 2l-38 152l92 57
l12 -10q8 -109 8 -168q0 -21 -42.5 -83t-65.5 -62q-87 0 -156 43q-25 -40 -35 -50q-33 -24 -83.5 -24z" />
    <glyph glyph-name="uniFC60" unicode="&#xfc60;" arabic-form="isolated" 
d="M118.5 1648q-50.5 0 -82.5 34t-32 83v6q2 74 53 148l37 -11q-13 -47 -13 -80q0 -57 64 -57q20 0 49 8l37 138l67 38l13 -12l-11 -133q64 -18 90.5 -18t36.5 2l-38 151l92 58l12 -11q8 -109 8 -170q0 -19 -42.5 -81t-65.5 -62q-87 0 -156 43q-25 -39 -35 -49
q-33 -25 -83.5 -25zM479 2114l-406 -125l-10 8l18 94l408 129l12 -10z" />
    <glyph glyph-name="uniFC61" unicode="&#xfc61;" arabic-form="isolated" 
d="M118.5 1638q-50.5 0 -83 34.5t-32.5 85.5v3q2 74 53 148l37 -11q-12 -47 -12 -80q0 -57 63 -57q21 0 50 8l36 138l68 38l12 -12l-10 -133q63 -18 89.5 -18t37.5 2l-39 151l92 58l13 -11q8 -109 8 -170q0 -19 -42.5 -81t-66.5 -62q-87 0 -155 43q-26 -39 -35 -49
q-33 -25 -83.5 -25zM177 2255.5q0 26.5 10 44.5q51 117 150 117q45 0 70.5 -44t25.5 -92.5t-20 -92.5l57 -10v-19l-57 -78q-34 3 -68 13q-97 -88 -207 -105l-127 68l4 20q168 10 258 45q-75 38 -90 76q-6 31 -6 57.5zM312 2321q-26 0 -56 -19.5t-32 -37.5q42 -40 127 -62
l8 14l4 31q0 74 -51 74z" />
    <glyph glyph-name="uniFC62" unicode="&#xfc62;" arabic-form="isolated" 
d="M448 1721l-406 -125l-12 6l21 96l407 129l10 -10zM118.5 1854q-50.5 0 -82.5 33.5t-32 83.5v6q2 73 53 147l37 -10q-13 -45 -13 -80q0 -55 64 -55q27 0 49 6l37 139l67 37l13 -10l-11 -136q64 -18 90.5 -18t36.5 2l-38 152l92 57l12 -10q8 -110 8 -168q0 -21 -42.5 -83.5
t-65.5 -62.5q-87 0 -156 43q-25 -39 -35 -49q-33 -24 -83.5 -24z" />
    <glyph glyph-name="uniFC63" unicode="&#xfc63;" arabic-form="isolated" 
d="M118.5 1648q-50.5 0 -82.5 34t-32 83v6q2 74 53 148l37 -11q-13 -47 -13 -80q0 -57 64 -57q20 0 49 8l37 138l67 38l13 -12l-11 -133q64 -18 90.5 -18t36.5 2l-38 151l92 58l12 -11q8 -109 8 -170q0 -19 -42.5 -81t-65.5 -62q-87 0 -156 43q-25 -39 -35 -49
q-33 -25 -83.5 -25zM229 2040v297l88 39l12 -8l-22 -297l-60 -31h-18z" />
    </font>
</defs>
</svg>
